  0
SECTION
  2
HEADER
  9
$ACADVER
  1
AC1009
  9
$DWGCODEPAGE
  3
undefined
  9
$INSBASE
 10
0.0
 20
0.0
 30
0.0
  9
$EXTMIN
 10
0.0
 20
-3.544412608229267
 30
0.0
  9
$EXTMAX
 10
93.36389891500073
 20
128.5
 30
15.40680577670138
  9
$LIMMIN
 10
0.0
 20
0.0
  9
$LIMMAX
 10
420.0
 20
297.0
  9
$ORTHOMODE
 70
     0
  9
$REGENMODE
 70
     1
  9
$FILLMODE
 70
     1
  9
$QTEXTMODE
 70
     0
  9
$MIRRTEXT
 70
     1
  9
$DRAGMODE
 70
     2
  9
$LTSCALE
 40
1.0
  9
$OSMODE
 70
    37
  9
$ATTMODE
 70
     1
  9
$TEXTSIZE
 40
2.5
  9
$TRACEWID
 40
1.0
  9
$TEXTSTYLE
  7
STANDARD
  9
$CLAYER
  8
0
  9
$CELTYPE
  6
BYLAYER
  9
$CECOLOR
 62
   256
  9
$DIMSCALE
 40
1.0
  9
$DIMASZ
 40
2.5
  9
$DIMEXO
 40
0.625
  9
$DIMDLI
 40
3.75
  9
$DIMRND
 40
0.0
  9
$DIMDLE
 40
0.0
  9
$DIMEXE
 40
1.25
  9
$DIMTP
 40
0.0
  9
$DIMTM
 40
0.0
  9
$DIMTXT
 40
2.5
  9
$DIMCEN
 40
2.5
  9
$DIMTSZ
 40
0.0
  9
$DIMTOL
 70
     0
  9
$DIMLIM
 70
     0
  9
$DIMTIH
 70
     0
  9
$DIMTOH
 70
     0
  9
$DIMSE1
 70
     0
  9
$DIMSE2
 70
     0
  9
$DIMTAD
 70
     1
  9
$DIMZIN
 70
     8
  9
$DIMBLK
  1

  9
$DIMASO
 70
     1
  9
$DIMSHO
 70
     1
  9
$DIMPOST
  1

  9
$DIMAPOST
  1

  9
$DIMALT
 70
     0
  9
$DIMALTD
 70
     3
  9
$DIMALTF
 40
0.03937007874016
  9
$DIMLFAC
 40
1.0
  9
$DIMTOFL
 70
     1
  9
$DIMTVP
 40
0.0
  9
$DIMTIX
 70
     0
  9
$DIMSOXD
 70
     0
  9
$DIMSAH
 70
     0
  9
$DIMBLK1
  1

  9
$DIMBLK2
  1

  9
$DIMSTYLE
  2
ISO-25
  9
$DIMCLRD
 70
     0
  9
$DIMCLRE
 70
     0
  9
$DIMCLRT
 70
     0
  9
$DIMTFAC
 40
1.0
  9
$DIMGAP
 40
0.625
  9
$LUNITS
 70
     2
  9
$LUPREC
 70
     4
  9
$SKETCHINC
 40
1.0
  9
$FILLETRAD
 40
10.0
  9
$AUNITS
 70
     0
  9
$AUPREC
 70
     0
  9
$MENU
  1
.
  9
$ELEVATION
 40
0.0
  9
$PELEVATION
 40
0.0
  9
$THICKNESS
 40
0.0
  9
$LIMCHECK
 70
     0
  9
$CHAMFERA
 40
10.0
  9
$CHAMFERB
 40
10.0
  9
$SKPOLY
 70
     0
  9
$TDCREATE
 40
1798971.542638889
  9
$TDUPDATE
 40
1798971.542638889
  9
$TDINDWG
 40
0.0000000116
  9
$TDUSRTIMER
 40
0.0000000116
  9
$USRTIMER
 70
     1
  9
$ANGBASE
 50
0.0
  9
$ANGDIR
 70
     0
  9
$PDMODE
 70
     0
  9
$PDSIZE
 40
0.0
  9
$PLINEWID
 40
0.0
  9
$COORDS
 70
     1
  9
$SPLFRAME
 70
     0
  9
$SPLINETYPE
 70
     6
  9
$SPLINESEGS
 70
     8
  9
$ATTDIA
 70
     0
  9
$ATTREQ
 70
     1
  9
$HANDLING
 70
     1
  9
$HANDSEED
  5
306
  9
$SURFTAB1
 70
     6
  9
$SURFTAB2
 70
     6
  9
$SURFTYPE
 70
     6
  9
$SURFU
 70
     6
  9
$SURFV
 70
     6
  9
$UCSNAME
  2

  9
$UCSORG
 10
0.0
 20
0.0
 30
0.0
  9
$UCSXDIR
 10
1.0
 20
0.0
 30
0.0
  9
$UCSYDIR
 10
0.0
 20
1.0
 30
0.0
  9
$PUCSNAME
  2

  9
$PUCSORG
 10
0.0
 20
0.0
 30
0.0
  9
$PUCSXDIR
 10
1.0
 20
0.0
 30
0.0
  9
$PUCSYDIR
 10
0.0
 20
1.0
 30
0.0
  9
$USERI1
 70
     0
  9
$USERI2
 70
     0
  9
$USERI3
 70
     0
  9
$USERI4
 70
     0
  9
$USERI5
 70
     0
  9
$USERR1
 40
0.0
  9
$USERR2
 40
0.0
  9
$USERR3
 40
0.0
  9
$USERR4
 40
0.0
  9
$USERR5
 40
0.0
  9
$WORLDVIEW
 70
     1
  9
$SHADEDGE
 70
     3
  9
$SHADEDIF
 70
    70
  9
$TILEMODE
 70
     1
  9
$MAXACTVP
 70
    64
  9
$PLIMCHECK
 70
     0
  9
$PEXTMIN
 10
1.000000000000000E+20
 20
1.000000000000000E+20
 30
1.000000000000000E+20
  9
$PEXTMAX
 10
-1.000000000000000E+20
 20
-1.000000000000000E+20
 30
-1.000000000000000E+20
  9
$PLIMMIN
 10
0.0
 20
0.0
  9
$PLIMMAX
 10
420.0
 20
297.0
  9
$UNITMODE
 70
     0
  9
$VISRETAIN
 70
     1
  9
$PLINEGEN
 70
     0
  9
$PSLTSCALE
 70
     1
  0
ENDSEC
  0
SECTION
  2
TABLES
  0
TABLE
  2
VPORT
 70
     1
  0
VPORT
  2
*ACTIVE
 70
     0
 10
0.0
 20
0.0
 11
1.0
 21
1.0
 12
46.68194945750037
 22
64.25
 13
0.0
 23
0.0
 14
10.0
 24
10.0
 15
10.0
 25
10.0
 16
0.0
 26
0.0
 36
1.0
 17
0.0
 27
0.0
 37
0.0
 40
131.07
 41
0.7265673067315233
 42
50.0
 43
0.0
 44
0.0
 50
0.0
 51
0.0
 71
     0
 72
   100
 73
     1
 74
     3
 75
     0
 76
     0
 77
     0
 78
     0
  0
ENDTAB
  0
TABLE
  2
LTYPE
 70
    11
  0
LTYPE
  2
CONTINUOUS
 70
     0
  3
Solid line
 72
    65
 73
     0
 40
0.0
  0
LTYPE
  2
BORDER
 70
     0
  3
__ __ . __ __ . __ 
 72
    65
 73
     6
 40
0.875
 49
0.25
 49
-0.125
 49
0.25
 49
-0.125
 49
0.0
 49
-0.125
  0
LTYPE
  2
CENTER
 70
     0
  3
___ _ ___ _ ___ _ _
 72
    65
 73
     4
 40
1.125
 49
0.75
 49
-0.125
 49
0.125
 49
-0.125
  0
LTYPE
  2
DASHDOT
 70
     0
  3
_._._._._._._._._._
 72
    65
 73
     4
 40
0.5
 49
0.25
 49
-0.125
 49
0.0
 49
-0.125
  0
LTYPE
  2
DASHED
 70
     0
  3
_ _ _ _ _ _ _ _ _ _
 72
    65
 73
     2
 40
0.375
 49
0.25
 49
-0.125
  0
LTYPE
  2
DIVIDE
 70
     0
  3
__..__..__..__..__.
 72
    65
 73
     6
 40
0.625
 49
0.25
 49
-0.125
 49
0.0
 49
-0.125
 49
0.0
 49
-0.125
  0
LTYPE
  2
DOT
 70
     0
  3
...................
 72
    65
 73
     2
 40
0.125
 49
0.0
 49
-0.125
  0
LTYPE
  2
HIDDEN
 70
     0
  3
__ __ __ __ __ __ _
 72
    65
 73
     2
 40
0.1875
 49
0.125
 49
-0.0625
  0
LTYPE
  2
PHANTOM
 70
     0
  3
___ _ _ ___ _ _ ___
 72
    65
 73
     6
 40
1.25
 49
0.625
 49
-0.125
 49
0.125
 49
-0.125
 49
0.125
 49
-0.125
  0
LTYPE
  2
CUTTING
 70
     0
  3
________ _ _ ______
 72
    65
 73
     6
 40
1.4675
 49
1.0
 49
-0.0725
 49
0.125
 49
-0.0725
 49
0.125
 49
-0.0725
  0
LTYPE
  2
STITCH
 70
     0
  3
_ _ _ _ _ _ _ _ _ _
 72
    65
 73
     2
 40
0.145
 49
0.0725
 49
-0.0725
  0
ENDTAB
  0
TABLE
  2
LAYER
 70
     2
  0
LAYER
  2
0
 70
     0
 62
     7
  6
CONTINUOUS
  0
LAYER
  2
LAYER1
 70
     0
 62
     7
  6
CONTINUOUS
  0
ENDTAB
  0
TABLE
  2
STYLE
 70
    70
  0
STYLE
  2
STANDARD
 70
     0
 40
0.0
 41
1.0
 50
0.0
 71
     0
 42
2.5
  3
txt
  4

  0
STYLE
  2
TEXT312678
 70
     0
 40
0.2
 41
1.0
 50
0.0
 71
     0
 42
0.2
  3

  4

  0
STYLE
  2
TEXT312681
 70
     0
 40
0.2
 41
1.0
 50
0.0
 71
     0
 42
0.2
  3

  4

  0
STYLE
  2
TEXT312684
 70
     0
 40
0.2
 41
1.0
 50
0.0
 71
     0
 42
0.2
  3

  4

  0
STYLE
  2
TEXT312687
 70
     0
 40
0.2
 41
1.0
 50
0.0
 71
     0
 42
0.2
  3

  4

  0
STYLE
  2
TEXT312690
 70
     0
 40
0.2
 41
1.0
 50
0.0
 71
     0
 42
0.2
  3

  4

  0
STYLE
  2
TEXT312693
 70
     0
 40
0.2
 41
1.0
 50
0.0
 71
     0
 42
0.2
  3

  4

  0
STYLE
  2
TEXT312696
 70
     0
 40
0.2
 41
1.0
 50
0.0
 71
     0
 42
0.2
  3

  4

  0
STYLE
  2
TEXT312699
 70
     0
 40
0.2
 41
1.0
 50
0.0
 71
     0
 42
0.2
  3

  4

  0
STYLE
  2
TEXT312834
 70
     0
 40
0.2
 41
1.0
 50
0.0
 71
     0
 42
0.2
  3

  4

  0
STYLE
  2
TEXT312975
 70
     0
 40
0.2
 41
1.0
 50
0.0
 71
     0
 42
0.2
  3

  4

  0
STYLE
  2
TEXT312996
 70
     0
 40
0.2
 41
1.0
 50
0.0
 71
     0
 42
0.2
  3

  4

  0
STYLE
  2
TEXT313017
 70
     0
 40
0.2
 41
1.0
 50
0.0
 71
     0
 42
0.2
  3

  4

  0
STYLE
  2
TEXT313046
 70
     0
 40
0.2
 41
1.0
 50
0.0
 71
     0
 42
0.2
  3

  4

  0
STYLE
  2
TEXT313049
 70
     0
 40
0.2
 41
1.0
 50
0.0
 71
     0
 42
0.2
  3

  4

  0
STYLE
  2
TEXT313052
 70
     0
 40
0.2
 41
1.0
 50
0.0
 71
     0
 42
0.2
  3

  4

  0
STYLE
  2
TEXT313171
 70
     0
 40
0.2
 41
1.0
 50
0.0
 71
     0
 42
0.2
  3

  4

  0
STYLE
  2
TEXT313177
 70
     0
 40
0.2
 41
1.0
 50
0.0
 71
     0
 42
0.2
  3

  4

  0
STYLE
  2
TEXT313179
 70
     0
 40
0.2
 41
1.0
 50
0.0
 71
     0
 42
0.2
  3

  4

  0
STYLE
  2
TEXT313203
 70
     0
 40
0.2
 41
1.0
 50
0.0
 71
     0
 42
0.2
  3

  4

  0
STYLE
  2
TEXT313209
 70
     0
 40
0.2
 41
1.0
 50
0.0
 71
     0
 42
0.2
  3

  4

  0
STYLE
  2
TEXT313211
 70
     0
 40
0.2
 41
1.0
 50
0.0
 71
     0
 42
0.2
  3

  4

  0
STYLE
  2
TEXT313235
 70
     0
 40
0.2
 41
1.0
 50
0.0
 71
     0
 42
0.2
  3

  4

  0
STYLE
  2
TEXT313241
 70
     0
 40
0.2
 41
1.0
 50
0.0
 71
     0
 42
0.2
  3

  4

  0
STYLE
  2
TEXT313243
 70
     0
 40
0.2
 41
1.0
 50
0.0
 71
     0
 42
0.2
  3

  4

  0
STYLE
  2
TEXT313267
 70
     0
 40
0.2
 41
1.0
 50
0.0
 71
     0
 42
0.2
  3

  4

  0
STYLE
  2
TEXT313273
 70
     0
 40
0.2
 41
1.0
 50
0.0
 71
     0
 42
0.2
  3

  4

  0
STYLE
  2
TEXT313275
 70
     0
 40
0.2
 41
1.0
 50
0.0
 71
     0
 42
0.2
  3

  4

  0
STYLE
  2
TEXT313315
 70
     0
 40
0.2
 41
1.0
 50
0.0
 71
     0
 42
0.2
  3

  4

  0
STYLE
  2
TEXT313321
 70
     0
 40
0.2
 41
1.0
 50
0.0
 71
     0
 42
0.2
  3

  4

  0
STYLE
  2
TEXT313323
 70
     0
 40
0.2
 41
1.0
 50
0.0
 71
     0
 42
0.2
  3

  4

  0
STYLE
  2
TEXT313347
 70
     0
 40
0.2
 41
1.0
 50
0.0
 71
     0
 42
0.2
  3

  4

  0
STYLE
  2
TEXT313353
 70
     0
 40
0.2
 41
1.0
 50
0.0
 71
     0
 42
0.2
  3

  4

  0
STYLE
  2
TEXT313355
 70
     0
 40
0.2
 41
1.0
 50
0.0
 71
     0
 42
0.2
  3

  4

  0
STYLE
  2
TEXT313379
 70
     0
 40
0.2
 41
1.0
 50
0.0
 71
     0
 42
0.2
  3

  4

  0
STYLE
  2
TEXT313385
 70
     0
 40
0.2
 41
1.0
 50
0.0
 71
     0
 42
0.2
  3

  4

  0
STYLE
  2
TEXT313387
 70
     0
 40
0.2
 41
1.0
 50
0.0
 71
     0
 42
0.2
  3

  4

  0
STYLE
  2
TEXT313411
 70
     0
 40
0.2
 41
1.0
 50
0.0
 71
     0
 42
0.2
  3

  4

  0
STYLE
  2
TEXT313417
 70
     0
 40
0.2
 41
1.0
 50
0.0
 71
     0
 42
0.2
  3

  4

  0
STYLE
  2
TEXT313419
 70
     0
 40
0.2
 41
1.0
 50
0.0
 71
     0
 42
0.2
  3

  4

  0
STYLE
  2
TEXT313455
 70
     0
 40
0.2
 41
1.0
 50
0.0
 71
     0
 42
0.2
  3

  4

  0
STYLE
  2
TEXT313462
 70
     0
 40
0.2
 41
1.0
 50
0.0
 71
     0
 42
0.2
  3

  4

  0
STYLE
  2
TEXT313487
 70
     0
 40
0.2
 41
1.0
 50
0.0
 71
     0
 42
0.2
  3

  4

  0
STYLE
  2
TEXT313494
 70
     0
 40
0.2
 41
1.0
 50
0.0
 71
     0
 42
0.2
  3

  4

  0
STYLE
  2
TEXT313519
 70
     0
 40
0.2
 41
1.0
 50
0.0
 71
     0
 42
0.2
  3

  4

  0
STYLE
  2
TEXT313526
 70
     0
 40
0.2
 41
1.0
 50
0.0
 71
     0
 42
0.2
  3

  4

  0
STYLE
  2
TEXT313555
 70
     0
 40
0.2
 41
1.0
 50
0.0
 71
     0
 42
0.2
  3

  4

  0
STYLE
  2
TEXT313561
 70
     0
 40
0.2
 41
1.0
 50
0.0
 71
     0
 42
0.2
  3

  4

  0
STYLE
  2
TEXT313563
 70
     0
 40
0.2
 41
1.0
 50
0.0
 71
     0
 42
0.2
  3

  4

  0
STYLE
  2
TEXT313587
 70
     0
 40
0.2
 41
1.0
 50
0.0
 71
     0
 42
0.2
  3

  4

  0
STYLE
  2
TEXT313593
 70
     0
 40
0.2
 41
1.0
 50
0.0
 71
     0
 42
0.2
  3

  4

  0
STYLE
  2
TEXT313595
 70
     0
 40
0.2
 41
1.0
 50
0.0
 71
     0
 42
0.2
  3

  4

  0
STYLE
  2
TEXT313619
 70
     0
 40
0.2
 41
1.0
 50
0.0
 71
     0
 42
0.2
  3

  4

  0
STYLE
  2
TEXT313625
 70
     0
 40
0.2
 41
1.0
 50
0.0
 71
     0
 42
0.2
  3

  4

  0
STYLE
  2
TEXT313627
 70
     0
 40
0.2
 41
1.0
 50
0.0
 71
     0
 42
0.2
  3

  4

  0
STYLE
  2
TEXT313651
 70
     0
 40
0.2
 41
1.0
 50
0.0
 71
     0
 42
0.2
  3

  4

  0
STYLE
  2
TEXT313657
 70
     0
 40
0.2
 41
1.0
 50
0.0
 71
     0
 42
0.2
  3

  4

  0
STYLE
  2
TEXT313659
 70
     0
 40
0.2
 41
1.0
 50
0.0
 71
     0
 42
0.2
  3

  4

  0
STYLE
  2
TEXT313699
 70
     0
 40
0.2
 41
1.0
 50
0.0
 71
     0
 42
0.2
  3

  4

  0
STYLE
  2
TEXT313705
 70
     0
 40
0.2
 41
1.0
 50
0.0
 71
     0
 42
0.2
  3

  4

  0
STYLE
  2
TEXT313707
 70
     0
 40
0.2
 41
1.0
 50
0.0
 71
     0
 42
0.2
  3

  4

  0
STYLE
  2
TEXT313731
 70
     0
 40
0.2
 41
1.0
 50
0.0
 71
     0
 42
0.2
  3

  4

  0
STYLE
  2
TEXT313737
 70
     0
 40
0.2
 41
1.0
 50
0.0
 71
     0
 42
0.2
  3

  4

  0
STYLE
  2
TEXT313739
 70
     0
 40
0.2
 41
1.0
 50
0.0
 71
     0
 42
0.2
  3

  4

  0
STYLE
  2
TEXT313763
 70
     0
 40
0.2
 41
1.0
 50
0.0
 71
     0
 42
0.2
  3

  4

  0
STYLE
  2
TEXT313769
 70
     0
 40
0.2
 41
1.0
 50
0.0
 71
     0
 42
0.2
  3

  4

  0
STYLE
  2
TEXT313771
 70
     0
 40
0.2
 41
1.0
 50
0.0
 71
     0
 42
0.2
  3

  4

  0
STYLE
  2
TEXT313795
 70
     0
 40
0.2
 41
1.0
 50
0.0
 71
     0
 42
0.2
  3

  4

  0
STYLE
  2
TEXT313801
 70
     0
 40
0.2
 41
1.0
 50
0.0
 71
     0
 42
0.2
  3

  4

  0
STYLE
  2
TEXT313803
 70
     0
 40
0.2
 41
1.0
 50
0.0
 71
     0
 42
0.2
  3

  4

  0
ENDTAB
  0
TABLE
  2
VIEW
 70
     0
  0
ENDTAB
  0
TABLE
  2
UCS
 70
     0
  0
ENDTAB
  0
TABLE
  2
APPID
 70
     2
  0
APPID
  2
ACAD
 70
     0
  0
APPID
  2
ENCORE_SOFTWARE_VIACAD
 70
     0
  0
ENDTAB
  0
TABLE
  2
DIMSTYLE
 70
     1
  0
DIMSTYLE
  2
ISO-25
 70
     0
  3

  4

  5

  6

  7

 40
1.0
 41
2.5
 42
0.625
 43
3.75
 44
1.25
 45
0.0
 46
0.0
 47
0.0
 48
0.0
140
2.5
141
2.5
142
0.0
143
0.03937007874016
144
1.0
145
0.0
146
1.0
147
0.625
 71
     0
 72
     0
 73
     0
 74
     0
 75
     0
 76
     0
 77
     1
 78
     8
170
     0
171
     3
172
     1
173
     0
174
     0
175
     0
176
     0
177
     0
178
     0
  0
ENDTAB
  0
ENDSEC
  0
SECTION
  2
BLOCKS
  0
BLOCK
  8
0
  2
$MODEL_SPACE
 70
     0
 10
0.0
 20
0.0
 30
0.0
  3
$MODEL_SPACE
  1

  0
ENDBLK
  5
21
  8
0
  0
BLOCK
 67
     1
  8
0
  2
$PAPER_SPACE
 70
     0
 10
0.0
 20
0.0
 30
0.0
  3
$PAPER_SPACE
  1

  0
ENDBLK
  5
1D
 67
     1
  8
0
  0
ENDSEC
  0
SECTION
  2
ENTITIES
  0
CIRCLE
  5
4C
  8
LAYER1
 62
   178
 10
40.45
 20
93.56444023930129
 30
0.0
 40
9.9
  0
CIRCLE
  5
4D
  8
LAYER1
 62
   178
 10
40.45
 20
93.56444023930129
 30
0.0
 40
7.199999999999991
  0
CIRCLE
  5
4E
  8
LAYER1
 62
   178
 10
40.45
 20
93.56444023930129
 30
0.0
 40
6.35919682637576
  0
LINE
  5
4F
  8
LAYER1
 62
   178
 10
33.73742138438143
 20
86.85186162368272
 30
0.0
 11
34.27366636196588
 21
88.46059655643616
 31
0.0
  0
LINE
  5
50
  8
LAYER1
 62
   178
 10
33.73742138438143
 20
86.85186162368272
 30
0.0
 11
35.34615631713482
 21
87.38810660126717
 31
0.0
  0
LINE
  5
51
  8
LAYER1
 62
   178
 10
34.27366636196588
 20
88.46059655643616
 30
0.0
 11
35.34615631713482
 21
87.38810660126717
 31
0.0
  0
CIRCLE
  5
52
  8
LAYER1
 62
   178
 10
72.57500000000009
 20
17.87440809905505
 30
0.0
 40
4.925000000000014
  0
LINE
  5
53
  8
LAYER1
 62
   178
 10
69.83495858243116
 20
20.61444259183176
 30
0.0
 11
68.83204014828809
 21
16.87149034039743
 31
0.0
  0
LINE
  5
54
  8
LAYER1
 62
   178
 10
68.83204014828809
 20
16.87149034039743
 30
0.0
 11
71.57207396557935
 21
14.13144441144235
 31
0.0
  0
LINE
  5
55
  8
LAYER1
 62
   178
 10
71.57207396557935
 20
14.13144441144235
 30
0.0
 11
75.31503832867749
 21
15.13437495724924
 31
0.0
  0
LINE
  5
56
  8
LAYER1
 62
   178
 10
75.31503832867749
 20
15.13437495724924
 30
0.0
 11
76.31796281865248
 21
18.87732720868356
 31
0.0
  0
LINE
  5
57
  8
LAYER1
 62
   178
 10
76.31796281865248
 20
18.87732720868356
 30
0.0
 11
73.5779229455293
 21
21.61737313763864
 31
0.0
  0
LINE
  5
58
  8
LAYER1
 62
   178
 10
73.5779229455293
 20
21.61737313763864
 30
0.0
 11
69.83495858243116
 21
20.61444259183176
 31
0.0
  0
CIRCLE
  5
59
  8
LAYER1
 62
   178
 10
72.57500000000009
 20
17.87440809905505
 30
0.0
 40
2.319757404725177
  0
TEXT
  5
5B
  8
LAYER1
  6
BORDER
 62
   178
 10
32.40077997818121
 20
77.61271104559145
 30
0.0
 40
2.652999877929688
  1
FINE TUNE
  7
TEXT312678
  0
TEXT
  5
7F
  8
LAYER1
  6
BORDER
 62
   178
 10
5.301909728240201
 20
27.72166105911241
 30
0.0
 40
2.652999877929688
  1
LIN FM AMT
  7
TEXT312681
  0
TEXT
  5
81
  8
LAYER1
  6
BORDER
 62
   178
 10
40.31303897622909
 20
8.018538107644204
 30
0.0
 40
2.652999877929688
  1
1V/OCT
  7
TEXT312684
  0
TEXT
  5
83
  8
LAYER1
  6
BORDER
 62
   178
 10
13.07975166208525
 20
100.0756597970946
 30
0.0
 40
2.652999877929688
  1
UP
  7
TEXT312687
  0
TEXT
  5
85
  8
LAYER1
  6
BORDER
 62
   178
 10
59.66958316415799
 20
100.1378232111939
 30
0.0
 40
2.652999877929688
  1
DOWN
  7
TEXT312690
  0
TEXT
  5
87
  8
LAYER1
  6
BORDER
 62
   178
 10
54.63959625843606
 20
59.87513997403314
 30
0.0
 40
2.652999877929688
  1
PULSE WIDTH
  7
TEXT312693
  0
TEXT
  5
89
  8
LAYER1
  6
BORDER
 62
   178
 10
57.2166670411102
 20
27.83488973976071
 30
0.0
 40
2.652999877929688
  1
PWM AMT
  7
TEXT312696
  0
TEXT
  5
8B
  8
LAYER1
  6
BORDER
 62
   178
 10
5.751144616699296
 20
59.79463817493769
 30
0.0
 40
2.652999877929688
  1
EXP FM AMT
  7
TEXT312699
  0
LINE
  5
8C
  8
LAYER1
 62
   178
 10
32.76500000000001
 20
107.0478203147687
 30
0.0
 11
48.135
 21
107.0478203147687
 31
0.0
  0
LINE
  5
8D
  8
LAYER1
 62
   178
 10
48.135
 20
107.0478203147687
 30
0.0
 11
48.135
 21
113.3978203147687
 31
0.0
  0
LINE
  5
8E
  8
LAYER1
 62
   178
 10
48.135
 20
113.3978203147687
 30
0.0
 11
32.76500000000001
 21
113.3978203147687
 31
0.0
  0
LINE
  5
8F
  8
LAYER1
 62
   178
 10
32.76500000000001
 20
113.3978203147687
 30
0.0
 11
32.76500000000001
 21
107.0478203147687
 31
0.0
  0
ARC
  5
90
  8
LAYER1
 62
   178
 10
34.68625000000001
 20
111.0603203147687
 30
0.0
 40
2.095854912082427
 50
23.55306688851033
 51
156.4469331114894
  0
ARC
  5
91
  8
LAYER1
 62
   178
 10
38.52875000000002
 20
111.0603203147687
 30
0.0
 40
2.095854912082421
 50
23.55306688851042
 51
156.4469331114891
  0
ARC
  5
92
  8
LAYER1
 62
   178
 10
42.37124999999999
 20
111.0603203147687
 30
0.0
 40
2.09585491208242
 50
23.55306688851085
 51
156.4469331114896
  0
ARC
  5
93
  8
LAYER1
 62
   178
 10
46.21374999999998
 20
111.0603203147687
 30
0.0
 40
2.09585491208242
 50
23.55306688851085
 51
156.4469331114898
  0
ARC
  5
94
  8
LAYER1
 62
   178
 10
34.68625000000001
 20
109.3853203147686
 30
0.0
 40
2.095854912082433
 50
203.5530668885106
 51
336.4469331114893
  0
ARC
  5
95
  8
LAYER1
 62
   178
 10
38.52875000000002
 20
109.3853203147686
 30
0.0
 40
2.095854912082427
 50
203.5530668885102
 51
336.4469331114893
  0
ARC
  5
96
  8
LAYER1
 62
   178
 10
42.37124999999999
 20
109.3853203147686
 30
0.0
 40
2.09585491208242
 50
203.5530668885098
 51
336.4469331114892
  0
ARC
  5
97
  8
LAYER1
 62
   178
 10
46.21374999999998
 20
109.3853203147686
 30
0.0
 40
2.09585491208242
 50
203.5530668885101
 51
336.4469331114892
  0
LINE
  5
98
  8
LAYER1
 62
   178
 10
36.60750000000002
 20
111.8978203147687
 30
0.0
 11
36.60750000000002
 21
108.5478203147686
 31
0.0
  0
LINE
  5
99
  8
LAYER1
 62
   178
 10
40.45000000000002
 20
111.8978203147687
 30
0.0
 11
40.45000000000002
 21
108.5478203147687
 31
0.0
  0
LINE
  5
9A
  8
LAYER1
 62
   178
 10
44.29250000000001
 20
111.8978203147687
 30
0.0
 11
44.29250000000001
 21
108.5478203147687
 31
0.0
  0
LINE
  5
9B
  8
LAYER1
 62
   178
 10
33.77664811579332
 20
108.8987351009425
 30
0.0
 11
35.35064811579331
 21
108.8987351009425
 31
0.0
  0
LINE
  5
9C
  8
LAYER1
 62
   178
 10
33.91378040987237
 20
110.4661643946635
 30
0.0
 11
35.48778040987235
 21
110.4661643946635
 31
0.0
  0
LINE
  5
9D
  8
LAYER1
 62
   178
 10
35.48778040987235
 20
110.4661643946635
 30
0.0
 11
35.35064811579331
 21
108.8987351009425
 31
0.0
  0
LINE
  5
9E
  8
LAYER1
 62
   178
 10
33.91378040987237
 20
110.4661643946635
 30
0.0
 11
33.77664811579332
 21
108.8987351009425
 31
0.0
  0
LINE
  5
9F
  8
LAYER1
 62
   178
 10
34.02109144168476
 20
111.6927351009425
 30
0.0
 11
35.59509144168475
 21
111.6927351009425
 31
0.0
  0
LINE
  5
A0
  8
LAYER1
 62
   178
 10
33.91378040987237
 20
110.4661643946635
 30
0.0
 11
34.02109144168476
 21
111.6927351009425
 31
0.0
  0
LINE
  5
A1
  8
LAYER1
 62
   178
 10
35.48778040987235
 20
110.4661643946635
 30
0.0
 11
35.59509144168475
 21
111.6927351009425
 31
0.0
  0
LINE
  5
A2
  8
LAYER1
 62
   178
 10
35.96172865750533
 20
108.5416545592305
 30
0.0
 11
35.96172865750533
 21
108.1898156426545
 31
0.0
  0
LINE
  5
A3
  8
LAYER1
 62
   178
 10
35.96172865750533
 20
108.1898156426545
 30
0.0
 11
36.31356757408133
 21
108.1898156426545
 31
0.0
  0
LINE
  5
A4
  8
LAYER1
 62
   178
 10
36.31356757408133
 20
108.1898156426545
 30
0.0
 11
36.31356757408133
 21
108.5416545592305
 31
0.0
  0
LINE
  5
A5
  8
LAYER1
 62
   178
 10
36.31356757408133
 20
108.5416545592305
 30
0.0
 11
35.96172865750533
 21
108.5416545592305
 31
0.0
  0
LINE
  5
A6
  8
LAYER1
 62
   178
 10
37.61914811579332
 20
108.8987351009425
 30
0.0
 11
39.19314811579333
 21
108.8987351009425
 31
0.0
  0
LINE
  5
A7
  8
LAYER1
 62
   178
 10
37.75628040987235
 20
110.4661643946635
 30
0.0
 11
39.33028040987237
 21
110.4661643946635
 31
0.0
  0
LINE
  5
A8
  8
LAYER1
 62
   178
 10
39.33028040987237
 20
110.4661643946635
 30
0.0
 11
39.19314811579333
 21
108.8987351009425
 31
0.0
  0
LINE
  5
A9
  8
LAYER1
 62
   178
 10
37.75628040987235
 20
110.4661643946635
 30
0.0
 11
37.61914811579332
 21
108.8987351009425
 31
0.0
  0
LINE
  5
AA
  8
LAYER1
 62
   178
 10
37.86359144168475
 20
111.6927351009425
 30
0.0
 11
39.43759144168477
 21
111.6927351009425
 31
0.0
  0
LINE
  5
AB
  8
LAYER1
 62
   178
 10
37.75628040987235
 20
110.4661643946635
 30
0.0
 11
37.86359144168475
 21
111.6927351009425
 31
0.0
  0
LINE
  5
AC
  8
LAYER1
 62
   178
 10
39.33028040987237
 20
110.4661643946635
 30
0.0
 11
39.43759144168477
 21
111.6927351009425
 31
0.0
  0
LINE
  5
AD
  8
LAYER1
 62
   178
 10
39.80422865750532
 20
108.5416545592305
 30
0.0
 11
39.80422865750532
 21
108.1898156426545
 31
0.0
  0
LINE
  5
AE
  8
LAYER1
 62
   178
 10
39.80422865750532
 20
108.1898156426545
 30
0.0
 11
40.15606757408133
 21
108.1898156426545
 31
0.0
  0
LINE
  5
AF
  8
LAYER1
 62
   178
 10
40.15606757408133
 20
108.1898156426545
 30
0.0
 11
40.15606757408133
 21
108.5416545592305
 31
0.0
  0
LINE
  5
B0
  8
LAYER1
 62
   178
 10
40.15606757408133
 20
108.5416545592305
 30
0.0
 11
39.80422865750532
 21
108.5416545592305
 31
0.0
  0
LINE
  5
B1
  8
LAYER1
 62
   178
 10
43.17278040987234
 20
110.4661643946635
 30
0.0
 11
43.03564811579329
 21
108.8987351009425
 31
0.0
  0
LINE
  5
B2
  8
LAYER1
 62
   178
 10
41.70609144168473
 20
111.6927351009425
 30
0.0
 11
43.28009144168474
 21
111.6927351009425
 31
0.0
  0
LINE
  5
B3
  8
LAYER1
 62
   178
 10
43.17278040987234
 20
110.4661643946635
 30
0.0
 11
43.28009144168474
 21
111.6927351009425
 31
0.0
  0
LINE
  5
B4
  8
LAYER1
 62
   178
 10
43.64672865750529
 20
108.5416545592305
 30
0.0
 11
43.64672865750529
 21
108.1898156426545
 31
0.0
  0
LINE
  5
B5
  8
LAYER1
 62
   178
 10
43.64672865750529
 20
108.1898156426545
 30
0.0
 11
43.99856757408131
 21
108.1898156426545
 31
0.0
  0
LINE
  5
B6
  8
LAYER1
 62
   178
 10
43.99856757408131
 20
108.1898156426545
 30
0.0
 11
43.99856757408131
 21
108.5416545592305
 31
0.0
  0
LINE
  5
B7
  8
LAYER1
 62
   178
 10
43.99856757408131
 20
108.5416545592305
 30
0.0
 11
43.64672865750529
 21
108.5416545592305
 31
0.0
  0
LINE
  5
B8
  8
LAYER1
 62
   178
 10
45.44128040987233
 20
110.4661643946635
 30
0.0
 11
47.01528040987233
 21
110.4661643946635
 31
0.0
  0
LINE
  5
B9
  8
LAYER1
 62
   178
 10
47.01528040987233
 20
110.4661643946635
 30
0.0
 11
46.87814811579329
 21
108.8987351009425
 31
0.0
  0
LINE
  5
BA
  8
LAYER1
 62
   178
 10
45.54859144168473
 20
111.6927351009425
 30
0.0
 11
47.12259144168473
 21
111.6927351009425
 31
0.0
  0
LINE
  5
BB
  8
LAYER1
 62
   178
 10
45.44128040987233
 20
110.4661643946635
 30
0.0
 11
45.54859144168473
 21
111.6927351009425
 31
0.0
  0
LINE
  5
BC
  8
LAYER1
 62
   178
 10
47.01528040987233
 20
110.4661643946635
 30
0.0
 11
47.12259144168473
 21
111.6927351009425
 31
0.0
  0
LINE
  5
BD
  8
LAYER1
 62
   178
 10
47.48922865750528
 20
108.5416545592305
 30
0.0
 11
47.48922865750528
 21
108.1898156426545
 31
0.0
  0
LINE
  5
BE
  8
LAYER1
 62
   178
 10
47.48922865750528
 20
108.1898156426545
 30
0.0
 11
47.84106757408129
 21
108.1898156426545
 31
0.0
  0
LINE
  5
BF
  8
LAYER1
 62
   178
 10
47.84106757408129
 20
108.1898156426545
 30
0.0
 11
47.84106757408129
 21
108.5416545592305
 31
0.0
  0
LINE
  5
C0
  8
LAYER1
 62
   178
 10
47.84106757408129
 20
108.5416545592305
 30
0.0
 11
47.48922865750528
 21
108.5416545592305
 31
0.0
  0
LINE
  5
C1
  8
LAYER1
 62
     1
 10
85.54889891500073
 20
16.92889986473273
 30
0.0
 11
85.54889891500073
 21
24.52889986473276
 31
0.0
  0
LINE
  5
C2
  8
LAYER1
 62
     1
 10
85.54889891500073
 20
24.52889986473276
 30
0.0
 11
93.14889891500074
 21
24.52889986473276
 31
0.0
  0
LINE
  5
C3
  8
LAYER1
 62
     1
 10
93.14889891500074
 20
24.52889986473276
 30
0.0
 11
93.14889891500074
 21
16.92889986473273
 31
0.0
  0
LINE
  5
C4
  8
LAYER1
 62
     1
 10
93.14889891500074
 20
16.92889986473273
 30
0.0
 11
85.54889891500073
 21
16.92889986473273
 31
0.0
  0
LINE
  5
C5
  8
LAYER1
 62
     1
 10
85.33389891500073
 20
16.71389986473276
 30
0.0
 11
85.33389891500073
 21
24.74389986473274
 31
0.0
  0
LINE
  5
C6
  8
LAYER1
 62
     1
 10
85.33389891500073
 20
24.74389986473274
 30
0.0
 11
93.36389891500073
 21
24.74389986473274
 31
0.0
  0
LINE
  5
C7
  8
LAYER1
 62
     1
 10
93.36389891500073
 20
24.74389986473274
 30
0.0
 11
93.36389891500073
 21
16.71389986473276
 31
0.0
  0
LINE
  5
C8
  8
LAYER1
 62
     1
 10
93.36389891500073
 20
16.71389986473276
 30
0.0
 11
85.33389891500073
 21
16.71389986473276
 31
0.0
  0
SOLID
  5
C9
  8
LAYER1
 62
     1
 10
85.54889891500073
 20
16.92889986473273
 30
0.0
 11
85.54889891500073
 21
24.52889986473276
 31
0.0
 12
93.14889891500074
 22
16.92889986473273
 32
0.0
 13
93.14889891500074
 23
24.52889986473276
 33
0.0
  0
POLYLINE
  5
CA
  8
LAYER1
 62
     1
 10
0.0
 20
0.0
 30
0.0
 66
     1
 70
     8
  0
VERTEX
  5
CB
  8
LAYER1
 62
     1
 10
85.54889678955078
 20
16.92889976501465
 30
0.0
 70
    32
  0
VERTEX
  5
CC
  8
LAYER1
 62
     1
 10
85.54889678955078
 20
24.52890014648438
 30
0.0
 70
    32
  0
VERTEX
  5
CD
  8
LAYER1
 62
     1
 10
93.14889526367188
 20
24.52890014648438
 30
0.0
 70
    32
  0
VERTEX
  5
CE
  8
LAYER1
 62
     1
 10
93.14889526367188
 20
16.92889976501465
 30
0.0
 70
    32
  0
VERTEX
  5
CF
  8
LAYER1
 62
     1
 10
85.54889678955078
 20
16.92889976501465
 30
0.0
 70
    32
  0
SEQEND
  5
D0
  8
LAYER1
 62
     1
  0
TEXT
  5
D2
  8
LAYER1
  6
BORDER
 62
   178
 10
68.13216079469235
 20
8.053138723582475
 30
0.0
 40
2.652999877929688
  1
SYNC
  7
TEXT312834
  0
CIRCLE
  5
D3
  8
LAYER1
 62
   178
 10
15.31587551283559
 20
75.19498319396318
 30
0.0
 40
9.900000000000011
  0
CIRCLE
  5
D4
  8
LAYER1
 62
   178
 10
15.31587551283559
 20
75.19498319396318
 30
0.0
 40
7.199999999999999
  0
CIRCLE
  5
D5
  8
LAYER1
 62
   178
 10
15.31587551283559
 20
75.19498319396318
 30
0.0
 40
6.359196826375759
  0
LINE
  5
D6
  8
LAYER1
 62
   178
 10
8.60329689721702
 20
68.48240457834461
 30
0.0
 11
9.139541874801466
 21
70.09113951109804
 31
0.0
  0
LINE
  5
D7
  8
LAYER1
 62
   178
 10
8.60329689721702
 20
68.48240457834461
 30
0.0
 11
10.2120318299704
 21
69.01864955592906
 31
0.0
  0
LINE
  5
D8
  8
LAYER1
 62
   178
 10
9.139541874801466
 20
70.09113951109804
 30
0.0
 11
10.2120318299704
 21
69.01864955592906
 31
0.0
  0
CIRCLE
  5
D9
  8
LAYER1
 62
   178
 10
15.31581188473314
 20
42.78696454725114
 30
0.0
 40
9.900000000000007
  0
CIRCLE
  5
DA
  8
LAYER1
 62
   178
 10
15.31581188473314
 20
42.78696454725114
 30
0.0
 40
7.199999999999994
  0
CIRCLE
  5
DB
  8
LAYER1
 62
   178
 10
15.31581188473314
 20
42.78696454725114
 30
0.0
 40
6.359196826375754
  0
LINE
  5
DC
  8
LAYER1
 62
   178
 10
8.603233269114574
 20
36.07438593163257
 30
0.0
 11
9.139478246699019
 21
37.683120864386
 31
0.0
  0
LINE
  5
DD
  8
LAYER1
 62
   178
 10
8.603233269114574
 20
36.07438593163257
 30
0.0
 11
10.21196820186796
 21
36.61063090921702
 31
0.0
  0
LINE
  5
DE
  8
LAYER1
 62
   178
 10
9.139478246699019
 20
37.683120864386
 30
0.0
 11
10.21196820186796
 21
36.61063090921702
 31
0.0
  0
CIRCLE
  5
DF
  8
LAYER1
 62
   178
 10
65.6749999999277
 20
75.13628546952025
 30
0.0
 40
9.900000000000006
  0
CIRCLE
  5
E0
  8
LAYER1
 62
   178
 10
65.6749999999277
 20
75.13628546952025
 30
0.0
 40
7.199999999999986
  0
CIRCLE
  5
E1
  8
LAYER1
 62
   178
 10
65.6749999999277
 20
75.13628546952025
 30
0.0
 40
6.35919682637576
  0
LINE
  5
E2
  8
LAYER1
 62
   178
 10
58.96242138430914
 20
68.42370685390168
 30
0.0
 11
59.49866636189358
 21
70.0324417866551
 31
0.0
  0
LINE
  5
E3
  8
LAYER1
 62
   178
 10
58.96242138430914
 20
68.42370685390168
 30
0.0
 11
60.57115631706252
 21
68.95995183148612
 31
0.0
  0
LINE
  5
E4
  8
LAYER1
 62
   178
 10
59.49866636189358
 20
70.0324417866551
 30
0.0
 11
60.57115631706252
 21
68.95995183148612
 31
0.0
  0
CIRCLE
  5
E5
  8
LAYER1
 62
   178
 10
65.67499999992768
 20
42.78696454725114
 30
0.0
 40
9.900000000000011
  0
CIRCLE
  5
E6
  8
LAYER1
 62
   178
 10
65.67499999992768
 20
42.78696454725114
 30
0.0
 40
7.200000000000001
  0
CIRCLE
  5
E7
  8
LAYER1
 62
   178
 10
65.67499999992768
 20
42.78696454725114
 30
0.0
 40
6.35919682637577
  0
LINE
  5
E8
  8
LAYER1
 62
   178
 10
58.96242138430912
 20
36.07438593163257
 30
0.0
 11
59.49866636189356
 21
37.683120864386
 31
0.0
  0
LINE
  5
E9
  8
LAYER1
 62
   178
 10
58.96242138430912
 20
36.07438593163257
 30
0.0
 11
60.5711563170625
 21
36.61063090921702
 31
0.0
  0
LINE
  5
EA
  8
LAYER1
 62
   178
 10
59.49866636189356
 20
37.683120864386
 30
0.0
 11
60.5711563170625
 21
36.61063090921702
 31
0.0
  0
CIRCLE
  5
EB
  8
LAYER1
 62
   178
 10
8.324999999999934
 20
17.87440809905505
 30
0.0
 40
4.925000000000015
  0
LINE
  5
EC
  8
LAYER1
 62
   178
 10
5.584958582431014
 20
20.61444259183176
 30
0.0
 11
4.582040148287947
 21
16.87149034039743
 31
0.0
  0
LINE
  5
ED
  8
LAYER1
 62
   178
 10
4.582040148287947
 20
16.87149034039743
 30
0.0
 11
7.322073965579196
 21
14.13144441144235
 31
0.0
  0
LINE
  5
EE
  8
LAYER1
 62
   178
 10
7.322073965579196
 20
14.13144441144235
 30
0.0
 11
11.06503832867734
 21
15.13437495724924
 31
0.0
  0
LINE
  5
EF
  8
LAYER1
 62
   178
 10
11.06503832867734
 20
15.13437495724924
 30
0.0
 11
12.06796281865232
 21
18.87732720868356
 31
0.0
  0
LINE
  5
F0
  8
LAYER1
 62
   178
 10
12.06796281865232
 20
18.87732720868356
 30
0.0
 11
9.327922945529147
 21
21.61737313763864
 31
0.0
  0
LINE
  5
F1
  8
LAYER1
 62
   178
 10
9.327922945529147
 20
21.61737313763864
 30
0.0
 11
5.584958582431014
 21
20.61444259183176
 31
0.0
  0
CIRCLE
  5
F2
  8
LAYER1
 62
   178
 10
8.324999999999934
 20
17.87440809905505
 30
0.0
 40
2.319757404725173
  0
CIRCLE
  5
F3
  8
LAYER1
 62
   178
 10
21.17499999999996
 20
17.87440809905505
 30
0.0
 40
4.925000000000014
  0
LINE
  5
F4
  8
LAYER1
 62
   178
 10
18.43495858243104
 20
20.61444259183176
 30
0.0
 11
17.43204014828797
 21
16.87149034039743
 31
0.0
  0
LINE
  5
F5
  8
LAYER1
 62
   178
 10
17.43204014828797
 20
16.87149034039743
 30
0.0
 11
20.17207396557922
 21
14.13144441144235
 31
0.0
  0
LINE
  5
F6
  8
LAYER1
 62
   178
 10
20.17207396557922
 20
14.13144441144235
 30
0.0
 11
23.91503832867737
 21
15.13437495724924
 31
0.0
  0
LINE
  5
F7
  8
LAYER1
 62
   178
 10
23.91503832867737
 20
15.13437495724924
 30
0.0
 11
24.91796281865234
 21
18.87732720868356
 31
0.0
  0
LINE
  5
F8
  8
LAYER1
 62
   178
 10
24.91796281865234
 20
18.87732720868356
 30
0.0
 11
22.17792294552918
 21
21.61737313763864
 31
0.0
  0
LINE
  5
F9
  8
LAYER1
 62
   178
 10
22.17792294552918
 20
21.61737313763864
 30
0.0
 11
18.43495858243104
 21
20.61444259183176
 31
0.0
  0
CIRCLE
  5
FA
  8
LAYER1
 62
   178
 10
21.17499999999996
 20
17.87440809905505
 30
0.0
 40
2.319757404725172
  0
CIRCLE
  5
FB
  8
LAYER1
 62
   178
 10
34.02499999999999
 20
17.87440809905505
 30
0.0
 40
4.925000000000014
  0
LINE
  5
FC
  8
LAYER1
 62
   178
 10
31.28495858243107
 20
20.61444259183176
 30
0.0
 11
30.282040148288
 21
16.87149034039743
 31
0.0
  0
LINE
  5
FD
  8
LAYER1
 62
   178
 10
30.282040148288
 20
16.87149034039743
 30
0.0
 11
33.02207396557925
 21
14.13144441144235
 31
0.0
  0
LINE
  5
FE
  8
LAYER1
 62
   178
 10
33.02207396557925
 20
14.13144441144235
 30
0.0
 11
36.76503832867739
 21
15.13437495724924
 31
0.0
  0
LINE
  5
FF
  8
LAYER1
 62
   178
 10
36.76503832867739
 20
15.13437495724924
 30
0.0
 11
37.76796281865237
 21
18.87732720868356
 31
0.0
  0
LINE
  5
100
  8
LAYER1
 62
   178
 10
37.76796281865237
 20
18.87732720868356
 30
0.0
 11
35.0279229455292
 21
21.61737313763864
 31
0.0
  0
LINE
  5
101
  8
LAYER1
 62
   178
 10
35.0279229455292
 20
21.61737313763864
 30
0.0
 11
31.28495858243107
 21
20.61444259183176
 31
0.0
  0
CIRCLE
  5
102
  8
LAYER1
 62
   178
 10
34.02499999999999
 20
17.87440809905505
 30
0.0
 40
2.319757404725172
  0
CIRCLE
  5
103
  8
LAYER1
 62
   178
 10
46.87500000000001
 20
17.87440809905505
 30
0.0
 40
4.925000000000014
  0
LINE
  5
104
  8
LAYER1
 62
   178
 10
44.13495858243109
 20
20.61444259183176
 30
0.0
 11
43.13204014828802
 21
16.87149034039743
 31
0.0
  0
LINE
  5
105
  8
LAYER1
 62
   178
 10
43.13204014828802
 20
16.87149034039743
 30
0.0
 11
45.87207396557927
 21
14.13144441144235
 31
0.0
  0
LINE
  5
106
  8
LAYER1
 62
   178
 10
45.87207396557927
 20
14.13144441144235
 30
0.0
 11
49.61503832867741
 21
15.13437495724924
 31
0.0
  0
LINE
  5
107
  8
LAYER1
 62
   178
 10
49.61503832867741
 20
15.13437495724924
 30
0.0
 11
50.61796281865239
 21
18.87732720868356
 31
0.0
  0
LINE
  5
108
  8
LAYER1
 62
   178
 10
50.61796281865239
 20
18.87732720868356
 30
0.0
 11
47.87792294552923
 21
21.61737313763864
 31
0.0
  0
LINE
  5
109
  8
LAYER1
 62
   178
 10
47.87792294552923
 20
21.61737313763864
 30
0.0
 11
44.13495858243109
 21
20.61444259183176
 31
0.0
  0
CIRCLE
  5
10A
  8
LAYER1
 62
   178
 10
46.87500000000001
 20
17.87440809905505
 30
0.0
 40
2.319757404725177
  0
CIRCLE
  5
10B
  8
LAYER1
 62
   178
 10
65.67499999992768
 20
110.2227934224008
 30
0.0
 40
4.499999999999986
  0
CIRCLE
  5
10C
  8
LAYER1
 62
   178
 10
65.67500552702587
 20
110.2228387184766
 30
0.0
 40
5.0
  0
POLYLINE
  5
10D
  8
LAYER1
 62
     1
 10
0.0
 20
0.0
 30
0.0
 66
     1
 70
     8
  0
VERTEX
  5
10E
  8
LAYER1
 62
     1
 10
70.17500305175781
 20
110.2227935791016
 30
0.0
 70
    32
  0
VERTEX
  5
10F
  8
LAYER1
 62
     1
 10
70.05370330810547
 20
111.2605667114258
 30
0.0
 70
    32
  0
VERTEX
  5
110
  8
LAYER1
 62
     1
 10
69.69635009765625
 20
112.2423934936523
 30
0.0
 70
    32
  0
VERTEX
  5
111
  8
LAYER1
 62
     1
 10
69.12220001220703
 20
113.1153411865234
 30
0.0
 70
    32
  0
VERTEX
  5
112
  8
LAYER1
 62
     1
 10
68.36221313476562
 20
113.8323440551758
 30
0.0
 70
    32
  0
VERTEX
  5
113
  8
LAYER1
 62
     1
 10
67.45735931396484
 20
114.3547668457031
 30
0.0
 70
    32
  0
VERTEX
  5
114
  8
LAYER1
 62
     1
 10
66.45641326904297
 20
114.654426574707
 30
0.0
 70
    32
  0
VERTEX
  5
115
  8
LAYER1
 62
     1
 10
65.41334533691406
 20
114.7151794433594
 30
0.0
 70
    32
  0
VERTEX
  5
116
  8
LAYER1
 62
     1
 10
64.38438415527344
 20
114.5337448120117
 30
0.0
 70
    32
  0
VERTEX
  5
117
  8
LAYER1
 62
     1
 10
63.42499923706055
 20
114.1199111938477
 30
0.0
 70
    32
  0
VERTEX
  5
118
  8
LAYER1
 62
     1
 10
62.5869140625
 20
113.4959716796875
 30
0.0
 70
    32
  0
VERTEX
  5
119
  8
LAYER1
 62
     1
 10
61.91530609130859
 20
112.6955871582031
 30
0.0
 70
    32
  0
VERTEX
  5
11A
  8
LAYER1
 62
     1
 10
61.44638442993164
 20
111.7618865966797
 30
0.0
 70
    32
  0
VERTEX
  5
11B
  8
LAYER1
 62
     1
 10
61.20542907714844
 20
110.7452087402344
 30
0.0
 70
    32
  0
VERTEX
  5
11C
  8
LAYER1
 62
     1
 10
61.20542907714844
 20
109.7003784179688
 30
0.0
 70
    32
  0
VERTEX
  5
11D
  8
LAYER1
 62
     1
 10
61.44638442993164
 20
108.6837005615234
 30
0.0
 70
    32
  0
VERTEX
  5
11E
  8
LAYER1
 62
     1
 10
61.91530609130859
 20
107.75
 30
0.0
 70
    32
  0
VERTEX
  5
11F
  8
LAYER1
 62
     1
 10
62.5869140625
 20
106.9496154785156
 30
0.0
 70
    32
  0
VERTEX
  5
120
  8
LAYER1
 62
     1
 10
63.42499923706055
 20
106.3256759643555
 30
0.0
 70
    32
  0
VERTEX
  5
121
  8
LAYER1
 62
     1
 10
64.38438415527344
 20
105.9118423461914
 30
0.0
 70
    32
  0
VERTEX
  5
122
  8
LAYER1
 62
     1
 10
65.41334533691406
 20
105.7304077148438
 30
0.0
 70
    32
  0
VERTEX
  5
123
  8
LAYER1
 62
     1
 10
66.45641326904297
 20
105.7911605834961
 30
0.0
 70
    32
  0
VERTEX
  5
124
  8
LAYER1
 62
     1
 10
67.45735931396484
 20
106.0908203125
 30
0.0
 70
    32
  0
VERTEX
  5
125
  8
LAYER1
 62
     1
 10
68.36221313476562
 20
106.6132354736328
 30
0.0
 70
    32
  0
VERTEX
  5
126
  8
LAYER1
 62
     1
 10
69.12220001220703
 20
107.3302459716797
 30
0.0
 70
    32
  0
VERTEX
  5
127
  8
LAYER1
 62
     1
 10
69.69635009765625
 20
108.2031936645508
 30
0.0
 70
    32
  0
VERTEX
  5
128
  8
LAYER1
 62
     1
 10
70.05370330810547
 20
109.1850204467773
 30
0.0
 70
    32
  0
VERTEX
  5
129
  8
LAYER1
 62
     1
 10
70.17500305175781
 20
110.2227935791016
 30
0.0
 70
    32
  0
SEQEND
  5
12A
  8
LAYER1
 62
     1
  0
TEXT
  5
12C
  8
LAYER1
  6
BORDER
 62
   178
 10
55.51990411067396
 20
8.018538107644204
 30
0.0
 40
2.652999877929688
  1
PWM
  7
TEXT312975
  0
CIRCLE
  5
12D
  8
LAYER1
 62
   178
 10
59.72500000000005
 20
17.87440809905505
 30
0.0
 40
4.925000000000019
  0
LINE
  5
12E
  8
LAYER1
 62
   178
 10
56.98495858243112
 20
20.61444259183176
 30
0.0
 11
55.98204014828806
 21
16.87149034039743
 31
0.0
  0
LINE
  5
12F
  8
LAYER1
 62
   178
 10
55.98204014828806
 20
16.87149034039743
 30
0.0
 11
58.72207396557931
 21
14.13144441144235
 31
0.0
  0
LINE
  5
130
  8
LAYER1
 62
   178
 10
58.72207396557931
 20
14.13144441144235
 30
0.0
 11
62.46503832867746
 21
15.13437495724924
 31
0.0
  0
LINE
  5
131
  8
LAYER1
 62
   178
 10
62.46503832867746
 20
15.13437495724924
 30
0.0
 11
63.46796281865244
 21
18.87732720868357
 31
0.0
  0
LINE
  5
132
  8
LAYER1
 62
   178
 10
63.46796281865244
 20
18.87732720868357
 30
0.0
 11
60.72792294552927
 21
21.61737313763865
 31
0.0
  0
LINE
  5
133
  8
LAYER1
 62
   178
 10
60.72792294552927
 20
21.61737313763865
 30
0.0
 11
56.98495858243112
 21
20.61444259183176
 31
0.0
  0
CIRCLE
  5
134
  8
LAYER1
 62
   178
 10
59.72500000000005
 20
17.87440809905505
 30
0.0
 40
2.319757404725175
  0
TEXT
  5
136
  8
LAYER1
  6
BORDER
 62
   178
 10
34.84838396857724
 20
27.83489169778879
 30
0.0
 40
2.652999877929688
  1
LIN FM
  7
TEXT312996
  0
CIRCLE
  5
137
  8
LAYER1
 62
   178
 10
40.45
 20
37.69076162399188
 30
0.0
 40
4.925000000000011
  0
LINE
  5
138
  8
LAYER1
 62
   178
 10
37.70995858243109
 20
40.43079611676861
 30
0.0
 11
36.70704014828802
 21
36.68784386533427
 31
0.0
  0
LINE
  5
139
  8
LAYER1
 62
   178
 10
36.70704014828802
 20
36.68784386533427
 30
0.0
 11
39.44707396557926
 21
33.9477979363792
 31
0.0
  0
LINE
  5
13A
  8
LAYER1
 62
   178
 10
39.44707396557926
 20
33.9477979363792
 30
0.0
 11
43.1900383286774
 21
34.95072848218608
 31
0.0
  0
LINE
  5
13B
  8
LAYER1
 62
   178
 10
43.1900383286774
 20
34.95072848218608
 30
0.0
 11
44.19296281865238
 21
38.6936807336204
 31
0.0
  0
LINE
  5
13C
  8
LAYER1
 62
   178
 10
44.19296281865238
 20
38.6936807336204
 30
0.0
 11
41.45292294552921
 21
41.43372666257548
 31
0.0
  0
LINE
  5
13D
  8
LAYER1
 62
   178
 10
41.45292294552921
 20
41.43372666257548
 30
0.0
 11
37.70995858243109
 21
40.43079611676861
 31
0.0
  0
CIRCLE
  5
13E
  8
LAYER1
 62
   178
 10
40.45
 20
37.69076162399188
 30
0.0
 40
2.319757404725167
  0
TEXT
  5
140
  8
LAYER1
  6
BORDER
 62
   178
 10
34.61398597791191
 20
59.72452895693536
 30
0.0
 40
2.652999877929688
  1
EXP CV
  7
TEXT313017
  0
CIRCLE
  5
141
  8
LAYER1
 62
   178
 10
40.45
 20
69.5803989483462
 30
0.0
 40
4.925000000000017
  0
LINE
  5
142
  8
LAYER1
 62
   178
 10
37.7099585824311
 20
72.32043344112294
 30
0.0
 11
36.70704014828803
 21
68.57748118968858
 31
0.0
  0
LINE
  5
143
  8
LAYER1
 62
   178
 10
36.70704014828803
 20
68.57748118968858
 30
0.0
 11
39.44707396557926
 21
65.83743526073351
 31
0.0
  0
LINE
  5
144
  8
LAYER1
 62
   178
 10
39.44707396557926
 20
65.83743526073351
 30
0.0
 11
43.19003832867739
 21
66.84036580654039
 31
0.0
  0
LINE
  5
145
  8
LAYER1
 62
   178
 10
43.19003832867739
 20
66.84036580654039
 30
0.0
 11
44.19296281865236
 21
70.58331805797475
 31
0.0
  0
LINE
  5
146
  8
LAYER1
 62
   178
 10
44.19296281865236
 20
70.58331805797475
 30
0.0
 11
41.45292294552922
 21
73.32336398692982
 31
0.0
  0
LINE
  5
147
  8
LAYER1
 62
   178
 10
41.45292294552922
 20
73.32336398692982
 30
0.0
 11
37.7099585824311
 21
72.32043344112294
 31
0.0
  0
CIRCLE
  5
148
  8
LAYER1
 62
   178
 10
40.45
 20
69.5803989483462
 30
0.0
 40
2.319757404725157
  0
LINE
  5
149
  8
LAYER1
 62
   178
 10
0.0
 20
0.0
 30
0.0
 11
80.9
 21
0.0
 31
0.0
  0
LINE
  5
14A
  8
LAYER1
 62
   178
 10
80.9
 20
0.0
 30
0.0
 11
80.9
 21
128.5
 31
0.0
  0
LINE
  5
14B
  8
LAYER1
 62
   178
 10
80.9
 20
128.5
 30
0.0
 11
0.0
 21
128.5
 31
0.0
  0
LINE
  5
14C
  8
LAYER1
 62
   178
 10
0.0
 20
128.5
 30
0.0
 11
0.0
 21
0.0
 31
0.0
  0
TEXT
  5
14E
  8
LAYER1
  6
BORDER
 62
   178
 10
2.991061812590188
 20
8.018538107644204
 30
0.0
 40
2.652999877929688
  1
PULSE
  7
TEXT313046
  0
TEXT
  5
150
  8
LAYER1
  6
BORDER
 62
   178
 10
16.95742037446915
 20
8.018538107644204
 30
0.0
 40
2.652999877929688
  1
SAW
  7
TEXT313049
  0
TEXT
  5
152
  8
LAYER1
  6
BORDER
 62
   178
 10
30.4917744058373
 20
8.033369357972374
 30
0.0
 40
2.652999877929688
  1
TRI
  7
TEXT313052
  0
CIRCLE
  5
153
  8
LAYER1
 62
   178
 10
15.31587551283557
 20
109.682449747803
 30
0.0
 40
4.499999999999988
  0
CIRCLE
  5
154
  8
LAYER1
 62
   178
 10
15.31588103993375
 20
109.6824950438788
 30
0.0
 40
5.000000000000005
  0
POLYLINE
  5
155
  8
LAYER1
 62
     1
 10
0.0
 20
0.0
 30
0.0
 66
     1
 70
     8
  0
VERTEX
  5
156
  8
LAYER1
 62
     1
 10
19.81587600708008
 20
109.6824493408203
 30
0.0
 70
    32
  0
VERTEX
  5
157
  8
LAYER1
 62
     1
 10
19.69457817077637
 20
110.7202224731445
 30
0.0
 70
    32
  0
VERTEX
  5
158
  8
LAYER1
 62
     1
 10
19.33722305297852
 20
111.7020492553711
 30
0.0
 70
    32
  0
VERTEX
  5
159
  8
LAYER1
 62
     1
 10
18.76307487487793
 20
112.5749969482422
 30
0.0
 70
    32
  0
VERTEX
  5
15A
  8
LAYER1
 62
     1
 10
18.00308990478516
 20
113.2920074462891
 30
0.0
 70
    32
  0
VERTEX
  5
15B
  8
LAYER1
 62
     1
 10
17.09823417663574
 20
113.8144226074219
 30
0.0
 70
    32
  0
VERTEX
  5
15C
  8
LAYER1
 62
     1
 10
16.09729194641113
 20
114.1140823364258
 30
0.0
 70
    32
  0
VERTEX
  5
15D
  8
LAYER1
 62
     1
 10
15.05422401428223
 20
114.1748352050781
 30
0.0
 70
    32
  0
VERTEX
  5
15E
  8
LAYER1
 62
     1
 10
14.02526092529297
 20
113.9934005737305
 30
0.0
 70
    32
  0
VERTEX
  5
15F
  8
LAYER1
 62
     1
 10
13.06587505340576
 20
113.5795669555664
 30
0.0
 70
    32
  0
VERTEX
  5
160
  8
LAYER1
 62
     1
 10
12.22778797149658
 20
112.9556274414062
 30
0.0
 70
    32
  0
VERTEX
  5
161
  8
LAYER1
 62
     1
 10
11.55618000030518
 20
112.1552429199219
 30
0.0
 70
    32
  0
VERTEX
  5
162
  8
LAYER1
 62
     1
 10
11.08725833892822
 20
111.2215423583984
 30
0.0
 70
    32
  0
VERTEX
  5
163
  8
LAYER1
 62
     1
 10
10.84630298614502
 20
110.2048645019531
 30
0.0
 70
    32
  0
VERTEX
  5
164
  8
LAYER1
 62
     1
 10
10.84630298614502
 20
109.1600341796875
 30
0.0
 70
    32
  0
VERTEX
  5
165
  8
LAYER1
 62
     1
 10
11.08725833892822
 20
108.1433563232422
 30
0.0
 70
    32
  0
VERTEX
  5
166
  8
LAYER1
 62
     1
 10
11.55618000030518
 20
107.2096557617188
 30
0.0
 70
    32
  0
VERTEX
  5
167
  8
LAYER1
 62
     1
 10
12.22778797149658
 20
106.4092712402344
 30
0.0
 70
    32
  0
VERTEX
  5
168
  8
LAYER1
 62
     1
 10
13.06587505340576
 20
105.7853317260742
 30
0.0
 70
    32
  0
VERTEX
  5
169
  8
LAYER1
 62
     1
 10
14.02526092529297
 20
105.3714981079102
 30
0.0
 70
    32
  0
VERTEX
  5
16A
  8
LAYER1
 62
     1
 10
15.05422401428223
 20
105.1900634765625
 30
0.0
 70
    32
  0
VERTEX
  5
16B
  8
LAYER1
 62
     1
 10
16.09729194641113
 20
105.2508163452148
 30
0.0
 70
    32
  0
VERTEX
  5
16C
  8
LAYER1
 62
     1
 10
17.09823417663574
 20
105.5504760742188
 30
0.0
 70
    32
  0
VERTEX
  5
16D
  8
LAYER1
 62
     1
 10
18.00308990478516
 20
106.0728988647461
 30
0.0
 70
    32
  0
VERTEX
  5
16E
  8
LAYER1
 62
     1
 10
18.76307487487793
 20
106.7899017333984
 30
0.0
 70
    32
  0
VERTEX
  5
16F
  8
LAYER1
 62
     1
 10
19.33722305297852
 20
107.6628570556641
 30
0.0
 70
    32
  0
VERTEX
  5
170
  8
LAYER1
 62
     1
 10
19.69457817077637
 20
108.6446762084961
 30
0.0
 70
    32
  0
VERTEX
  5
171
  8
LAYER1
 62
     1
 10
19.81587600708008
 20
109.6824493408203
 30
0.0
 70
    32
  0
SEQEND
  5
172
  8
LAYER1
 62
     1
  0
LINE
  5
173
  8
LAYER1
 62
   178
 10
6.0
 20
4.6
 30
0.0
 11
9.000000000000002
 21
4.6
 31
0.0
  0
LINE
  5
174
  8
LAYER1
 62
   178
 10
6.0
 20
1.400000000000002
 30
0.0
 11
9.000000000000002
 21
1.400000000000002
 31
0.0
  0
ARC
  5
175
  8
LAYER1
 62
   178
 10
6.000000000000001
 20
3.0
 30
0.0
 40
1.599999999999999
 50
90.0
 51
270.0
  0
ARC
  5
176
  8
LAYER1
 62
   178
 10
9.0
 20
3.0
 30
0.0
 40
1.599999999999999
 50
270.0
 51
90.0
  0
LINE
  5
177
  8
LAYER1
 62
   178
 10
6.0
 20
4.6
 30
0.0
 11
9.000000000000002
 21
4.6
 31
0.0
  0
LINE
  5
178
  8
LAYER1
 62
   178
 10
6.0
 20
1.400000000000002
 30
0.0
 11
9.000000000000002
 21
1.400000000000002
 31
0.0
  0
ARC
  5
179
  8
LAYER1
 62
   178
 10
6.000000000000001
 20
3.0
 30
0.0
 40
1.599999999999999
 50
90.0
 51
270.0
  0
ARC
  5
17A
  8
LAYER1
 62
   178
 10
9.0
 20
3.0
 30
0.0
 40
1.599999999999999
 50
270.0
 51
90.0
  0
LINE
  5
17B
  8
LAYER1
 62
   178
 10
6.0
 20
4.6
 30
0.0
 11
9.000000000000002
 21
4.6
 31
0.0
  0
LINE
  5
17C
  8
LAYER1
 62
   178
 10
6.0
 20
1.400000000000002
 30
0.0
 11
9.000000000000002
 21
1.400000000000002
 31
0.0
  0
ARC
  5
17D
  8
LAYER1
 62
   178
 10
6.000000000000001
 20
3.0
 30
0.0
 40
1.599999999999999
 50
90.0
 51
270.0
  0
ARC
  5
17E
  8
LAYER1
 62
   178
 10
9.0
 20
3.0
 30
0.0
 40
1.599999999999999
 50
270.0
 51
90.0
  0
LINE
  5
17F
  8
LAYER1
 62
   178
 10
5.977967741562241
 20
127.1
 30
0.0
 11
8.977967741562242
 21
127.1
 31
0.0
  0
LINE
  5
180
  8
LAYER1
 62
   178
 10
5.977967741562241
 20
123.9
 30
0.0
 11
8.977967741562242
 21
123.9
 31
0.0
  0
ARC
  5
181
  8
LAYER1
 62
   178
 10
5.977967741562249
 20
125.5
 30
0.0
 40
1.600000000000001
 50
90.0
 51
270.0
  0
ARC
  5
182
  8
LAYER1
 62
   178
 10
8.977967741562235
 20
125.5
 30
0.0
 40
1.600000000000001
 50
270.0
 51
90.0
  0
LINE
  5
183
  8
LAYER1
 62
   178
 10
5.977967741562241
 20
127.1
 30
0.0
 11
8.977967741562242
 21
127.1
 31
0.0
  0
LINE
  5
184
  8
LAYER1
 62
   178
 10
5.977967741562241
 20
123.9
 30
0.0
 11
8.977967741562242
 21
123.9
 31
0.0
  0
ARC
  5
185
  8
LAYER1
 62
   178
 10
5.977967741562249
 20
125.5
 30
0.0
 40
1.600000000000001
 50
90.0
 51
270.0
  0
ARC
  5
186
  8
LAYER1
 62
   178
 10
8.977967741562235
 20
125.5
 30
0.0
 40
1.600000000000001
 50
270.0
 51
90.0
  0
LINE
  5
187
  8
LAYER1
 62
   178
 10
69.61999999999998
 20
127.1
 30
0.0
 11
72.61999999999999
 21
127.1
 31
0.0
  0
LINE
  5
188
  8
LAYER1
 62
   178
 10
69.61999999999998
 20
123.9
 30
0.0
 11
72.61999999999999
 21
123.9
 31
0.0
  0
ARC
  5
189
  8
LAYER1
 62
   178
 10
69.62
 20
125.5
 30
0.0
 40
1.600000000000002
 50
90.00000000000104
 51
269.999999999999
  0
ARC
  5
18A
  8
LAYER1
 62
   178
 10
72.61999999999998
 20
125.5
 30
0.0
 40
1.600000000000001
 50
270.0
 51
90.0
  0
LINE
  5
18B
  8
LAYER1
 62
   178
 10
69.61999999999998
 20
127.1
 30
0.0
 11
72.61999999999999
 21
127.1
 31
0.0
  0
LINE
  5
18C
  8
LAYER1
 62
   178
 10
69.61999999999998
 20
123.9
 30
0.0
 11
72.61999999999999
 21
123.9
 31
0.0
  0
ARC
  5
18D
  8
LAYER1
 62
   178
 10
69.62
 20
125.5
 30
0.0
 40
1.600000000000002
 50
90.00000000000104
 51
269.999999999999
  0
ARC
  5
18E
  8
LAYER1
 62
   178
 10
72.61999999999998
 20
125.5
 30
0.0
 40
1.600000000000001
 50
270.0
 51
90.0
  0
LINE
  5
18F
  8
LAYER1
 62
   178
 10
69.62000000000002
 20
4.6
 30
0.0
 11
72.62
 21
4.6
 31
0.0
  0
LINE
  5
190
  8
LAYER1
 62
   178
 10
69.62000000000002
 20
1.400000000000002
 30
0.0
 11
72.62
 21
1.400000000000002
 31
0.0
  0
ARC
  5
191
  8
LAYER1
 62
   178
 10
69.62000000000002
 20
3.0
 30
0.0
 40
1.599999999999999
 50
90.0
 51
270.0
  0
ARC
  5
192
  8
LAYER1
 62
   178
 10
72.62000000000002
 20
3.0
 30
0.0
 40
1.599999999999999
 50
270.0
 51
90.0
  0
LINE
  5
193
  8
LAYER1
 62
   178
 10
69.62000000000002
 20
4.6
 30
0.0
 11
72.62
 21
4.6
 31
0.0
  0
LINE
  5
194
  8
LAYER1
 62
   178
 10
69.62000000000002
 20
1.400000000000002
 30
0.0
 11
72.62
 21
1.400000000000002
 31
0.0
  0
ARC
  5
195
  8
LAYER1
 62
   178
 10
69.62000000000002
 20
3.0
 30
0.0
 40
1.599999999999999
 50
90.0
 51
270.0
  0
ARC
  5
196
  8
LAYER1
 62
   178
 10
72.62000000000002
 20
3.0
 30
0.0
 40
1.599999999999999
 50
270.0
 51
90.0
  0
LINE
  5
197
  8
LAYER1
 62
   178
 10
69.62000000000002
 20
4.6
 30
0.0
 11
72.62
 21
4.6
 31
0.0
  0
LINE
  5
198
  8
LAYER1
 62
   178
 10
69.62000000000002
 20
1.400000000000002
 30
0.0
 11
72.62
 21
1.400000000000002
 31
0.0
  0
ARC
  5
199
  8
LAYER1
 62
   178
 10
69.62000000000002
 20
3.0
 30
0.0
 40
1.599999999999999
 50
90.0
 51
270.0
  0
ARC
  5
19A
  8
LAYER1
 62
   178
 10
72.62000000000002
 20
3.0
 30
0.0
 40
1.599999999999999
 50
270.0
 51
90.0
  0
LINE
  5
19B
  8
LAYER1
 62
   178
 10
15.31581188473314
 20
52.68696454725112
 30
0.0
 11
15.31581188473314
 21
54.68696454725112
 31
0.0
  0
LINE
  5
19C
  8
LAYER1
 62
   178
 10
10.36581188473314
 20
51.36061604471706
 30
0.0
 11
9.36581188473314
 21
53.09266685228592
 31
0.0
  0
LINE
  5
19D
  8
LAYER1
 62
   178
 10
6.742160387267196
 20
47.73696454725117
 30
0.0
 11
5.010109579698318
 21
48.73696454725115
 31
0.0
  0
LINE
  5
19E
  8
LAYER1
 62
   178
 10
5.415811884733138
 20
42.78696454725116
 30
0.0
 11
3.415811884733141
 21
42.78696454725115
 31
0.0
  0
LINE
  5
19F
  8
LAYER1
 62
   178
 10
6.742160387267185
 20
37.83696454725116
 30
0.0
 11
5.010109579698329
 21
36.83696454725115
 31
0.0
  0
LINE
  5
1A0
  8
LAYER1
 62
   178
 10
10.36581188473313
 20
34.21331304978521
 30
0.0
 11
9.365811884733153
 21
32.48126224221632
 31
0.0
  0
LINE
  5
1A1
  8
LAYER1
 62
   178
 10
20.26581188473314
 20
34.2133130497852
 30
0.0
 11
21.26581188473316
 21
32.48126224221631
 31
0.0
  0
LINE
  5
1A2
  8
LAYER1
 62
   178
 10
23.88946338219908
 20
37.83696454725114
 30
0.0
 11
25.62151418976799
 21
36.83696454725114
 31
0.0
  0
LINE
  5
1A3
  8
LAYER1
 62
   178
 10
25.21581188473315
 20
42.78696454725112
 30
0.0
 11
27.21581188473318
 21
42.78696454725114
 31
0.0
  0
LINE
  5
1A4
  8
LAYER1
 62
   178
 10
23.8894633821991
 20
47.73696454725113
 30
0.0
 11
25.621514189768
 21
48.73696454725115
 31
0.0
  0
LINE
  5
1A5
  8
LAYER1
 62
   178
 10
20.26581188473317
 20
51.36061604471701
 30
0.0
 11
21.26581188473317
 21
53.09266685228592
 31
0.0
  0
TEXT
  5
1A7
  8
LAYER1
  6
BORDER
 62
   178
 10
4.025326426104854
 20
31.24992677568693
 30
0.0
 40
2.282999992370605
  1
0
  7
TEXT313171
  0
LINE
  5
1A8
  8
LAYER1
 62
   178
 10
9.365811884733153
 20
32.48126224221632
 30
0.0
 11
6.365811884733147
 21
32.48126224221632
 31
0.0
  0
LINE
  5
1A9
  8
LAYER1
 62
   178
 10
24.26581188473316
 20
32.48126224221631
 30
0.0
 11
21.26581188473316
 21
32.48126224221631
 31
0.0
  0
TEXT
  5
1AB
  8
LAYER1
  6
BORDER
 62
   178
 10
24.31301880280732
 20
31.37868006510942
 30
0.0
 40
2.282999992370605
  1
10
  7
TEXT313177
  0
TEXT
  5
1AD
  8
LAYER1
  6
BORDER
 62
   178
 10
14.48247852822022
 20
54.9974335426603
 30
0.0
 40
2.282999992370605
  1
5
  7
TEXT313179
  0
LINE
  5
1AE
  8
LAYER1
 62
   178
 10
15.31581188473314
 20
52.68696454725112
 30
0.0
 11
15.31581188473314
 21
54.68696454725112
 31
0.0
  0
LINE
  5
1AF
  8
LAYER1
 62
   178
 10
10.36581188473314
 20
51.36061604471706
 30
0.0
 11
9.36581188473314
 21
53.09266685228592
 31
0.0
  0
LINE
  5
1B0
  8
LAYER1
 62
   178
 10
6.742160387267196
 20
47.73696454725117
 30
0.0
 11
5.010109579698318
 21
48.73696454725115
 31
0.0
  0
LINE
  5
1B1
  8
LAYER1
 62
   178
 10
5.415811884733138
 20
42.78696454725116
 30
0.0
 11
3.415811884733141
 21
42.78696454725115
 31
0.0
  0
LINE
  5
1B2
  8
LAYER1
 62
   178
 10
6.742160387267185
 20
37.83696454725116
 30
0.0
 11
5.010109579698329
 21
36.83696454725115
 31
0.0
  0
LINE
  5
1B3
  8
LAYER1
 62
   178
 10
10.36581188473313
 20
34.21331304978521
 30
0.0
 11
9.365811884733153
 21
32.48126224221632
 31
0.0
  0
LINE
  5
1B4
  8
LAYER1
 62
   178
 10
20.26581188473314
 20
34.2133130497852
 30
0.0
 11
21.26581188473316
 21
32.48126224221631
 31
0.0
  0
LINE
  5
1B5
  8
LAYER1
 62
   178
 10
23.88946338219908
 20
37.83696454725114
 30
0.0
 11
25.62151418976799
 21
36.83696454725114
 31
0.0
  0
LINE
  5
1B6
  8
LAYER1
 62
   178
 10
25.21581188473315
 20
42.78696454725112
 30
0.0
 11
27.21581188473318
 21
42.78696454725114
 31
0.0
  0
LINE
  5
1B7
  8
LAYER1
 62
   178
 10
23.8894633821991
 20
47.73696454725113
 30
0.0
 11
25.621514189768
 21
48.73696454725115
 31
0.0
  0
LINE
  5
1B8
  8
LAYER1
 62
   178
 10
20.26581188473317
 20
51.36061604471701
 30
0.0
 11
21.26581188473317
 21
53.09266685228592
 31
0.0
  0
TEXT
  5
1BA
  8
LAYER1
  6
BORDER
 62
   178
 10
4.025326426104854
 20
31.24992677568693
 30
0.0
 40
2.282999992370605
  1
0
  7
TEXT313203
  0
LINE
  5
1BB
  8
LAYER1
 62
   178
 10
9.365811884733153
 20
32.48126224221632
 30
0.0
 11
6.365811884733147
 21
32.48126224221632
 31
0.0
  0
LINE
  5
1BC
  8
LAYER1
 62
   178
 10
24.26581188473316
 20
32.48126224221631
 30
0.0
 11
21.26581188473316
 21
32.48126224221631
 31
0.0
  0
TEXT
  5
1BE
  8
LAYER1
  6
BORDER
 62
   178
 10
24.31301880280732
 20
31.37868006510942
 30
0.0
 40
2.282999992370605
  1
10
  7
TEXT313209
  0
TEXT
  5
1C0
  8
LAYER1
  6
BORDER
 62
   178
 10
14.48247852822022
 20
54.9974335426603
 30
0.0
 40
2.282999992370605
  1
5
  7
TEXT313211
  0
LINE
  5
1C1
  8
LAYER1
 62
   178
 10
15.31581188473314
 20
52.68696454725112
 30
0.0
 11
15.31581188473314
 21
54.68696454725112
 31
0.0
  0
LINE
  5
1C2
  8
LAYER1
 62
   178
 10
10.36581188473314
 20
51.36061604471706
 30
0.0
 11
9.36581188473314
 21
53.09266685228592
 31
0.0
  0
LINE
  5
1C3
  8
LAYER1
 62
   178
 10
6.742160387267196
 20
47.73696454725117
 30
0.0
 11
5.010109579698318
 21
48.73696454725115
 31
0.0
  0
LINE
  5
1C4
  8
LAYER1
 62
   178
 10
5.415811884733138
 20
42.78696454725116
 30
0.0
 11
3.415811884733141
 21
42.78696454725115
 31
0.0
  0
LINE
  5
1C5
  8
LAYER1
 62
   178
 10
6.742160387267185
 20
37.83696454725116
 30
0.0
 11
5.010109579698329
 21
36.83696454725115
 31
0.0
  0
LINE
  5
1C6
  8
LAYER1
 62
   178
 10
10.36581188473313
 20
34.21331304978521
 30
0.0
 11
9.365811884733153
 21
32.48126224221632
 31
0.0
  0
LINE
  5
1C7
  8
LAYER1
 62
   178
 10
20.26581188473314
 20
34.2133130497852
 30
0.0
 11
21.26581188473316
 21
32.48126224221631
 31
0.0
  0
LINE
  5
1C8
  8
LAYER1
 62
   178
 10
23.88946338219908
 20
37.83696454725114
 30
0.0
 11
25.62151418976799
 21
36.83696454725114
 31
0.0
  0
LINE
  5
1C9
  8
LAYER1
 62
   178
 10
25.21581188473315
 20
42.78696454725112
 30
0.0
 11
27.21581188473318
 21
42.78696454725114
 31
0.0
  0
LINE
  5
1CA
  8
LAYER1
 62
   178
 10
23.8894633821991
 20
47.73696454725113
 30
0.0
 11
25.621514189768
 21
48.73696454725115
 31
0.0
  0
LINE
  5
1CB
  8
LAYER1
 62
   178
 10
20.26581188473317
 20
51.36061604471701
 30
0.0
 11
21.26581188473317
 21
53.09266685228592
 31
0.0
  0
TEXT
  5
1CD
  8
LAYER1
  6
BORDER
 62
   178
 10
4.025326426104854
 20
31.24992677568693
 30
0.0
 40
2.282999992370605
  1
0
  7
TEXT313235
  0
LINE
  5
1CE
  8
LAYER1
 62
   178
 10
9.365811884733153
 20
32.48126224221632
 30
0.0
 11
6.365811884733147
 21
32.48126224221632
 31
0.0
  0
LINE
  5
1CF
  8
LAYER1
 62
   178
 10
24.26581188473316
 20
32.48126224221631
 30
0.0
 11
21.26581188473316
 21
32.48126224221631
 31
0.0
  0
TEXT
  5
1D1
  8
LAYER1
  6
BORDER
 62
   178
 10
24.31301880280732
 20
31.37868006510942
 30
0.0
 40
2.282999992370605
  1
10
  7
TEXT313241
  0
TEXT
  5
1D3
  8
LAYER1
  6
BORDER
 62
   178
 10
14.48247852822022
 20
54.9974335426603
 30
0.0
 40
2.282999992370605
  1
5
  7
TEXT313243
  0
LINE
  5
1D4
  8
LAYER1
 62
   178
 10
15.31581188473314
 20
52.68696454725112
 30
0.0
 11
15.31581188473314
 21
54.68696454725112
 31
0.0
  0
LINE
  5
1D5
  8
LAYER1
 62
   178
 10
10.36581188473314
 20
51.36061604471706
 30
0.0
 11
9.36581188473314
 21
53.09266685228592
 31
0.0
  0
LINE
  5
1D6
  8
LAYER1
 62
   178
 10
6.742160387267196
 20
47.73696454725117
 30
0.0
 11
5.010109579698318
 21
48.73696454725115
 31
0.0
  0
LINE
  5
1D7
  8
LAYER1
 62
   178
 10
5.415811884733138
 20
42.78696454725116
 30
0.0
 11
3.415811884733141
 21
42.78696454725115
 31
0.0
  0
LINE
  5
1D8
  8
LAYER1
 62
   178
 10
6.742160387267185
 20
37.83696454725116
 30
0.0
 11
5.010109579698329
 21
36.83696454725115
 31
0.0
  0
LINE
  5
1D9
  8
LAYER1
 62
   178
 10
10.36581188473313
 20
34.21331304978521
 30
0.0
 11
9.365811884733153
 21
32.48126224221632
 31
0.0
  0
LINE
  5
1DA
  8
LAYER1
 62
   178
 10
20.26581188473314
 20
34.2133130497852
 30
0.0
 11
21.26581188473316
 21
32.48126224221631
 31
0.0
  0
LINE
  5
1DB
  8
LAYER1
 62
   178
 10
23.88946338219908
 20
37.83696454725114
 30
0.0
 11
25.62151418976799
 21
36.83696454725114
 31
0.0
  0
LINE
  5
1DC
  8
LAYER1
 62
   178
 10
25.21581188473315
 20
42.78696454725112
 30
0.0
 11
27.21581188473318
 21
42.78696454725114
 31
0.0
  0
LINE
  5
1DD
  8
LAYER1
 62
   178
 10
23.8894633821991
 20
47.73696454725113
 30
0.0
 11
25.621514189768
 21
48.73696454725115
 31
0.0
  0
LINE
  5
1DE
  8
LAYER1
 62
   178
 10
20.26581188473317
 20
51.36061604471701
 30
0.0
 11
21.26581188473317
 21
53.09266685228592
 31
0.0
  0
TEXT
  5
1E0
  8
LAYER1
  6
BORDER
 62
   178
 10
4.025326426104854
 20
31.24992677568693
 30
0.0
 40
2.282999992370605
  1
0
  7
TEXT313267
  0
LINE
  5
1E1
  8
LAYER1
 62
   178
 10
9.365811884733153
 20
32.48126224221632
 30
0.0
 11
6.365811884733147
 21
32.48126224221632
 31
0.0
  0
LINE
  5
1E2
  8
LAYER1
 62
   178
 10
24.26581188473316
 20
32.48126224221631
 30
0.0
 11
21.26581188473316
 21
32.48126224221631
 31
0.0
  0
TEXT
  5
1E4
  8
LAYER1
  6
BORDER
 62
   178
 10
24.31301880280732
 20
31.37868006510942
 30
0.0
 40
2.282999992370605
  1
10
  7
TEXT313273
  0
TEXT
  5
1E6
  8
LAYER1
  6
BORDER
 62
   178
 10
14.48247852822022
 20
54.9974335426603
 30
0.0
 40
2.282999992370605
  1
5
  7
TEXT313275
  0
LINE
  5
1E7
  8
LAYER1
 62
   178
 10
15.31587551283559
 20
85.0949831939632
 30
0.0
 11
15.31587551283559
 21
87.0949831939632
 31
0.0
  0
LINE
  5
1E8
  8
LAYER1
 62
   178
 10
10.36587551283559
 20
83.76863469142914
 30
0.0
 11
9.365875512835588
 21
85.50068549899801
 31
0.0
  0
LINE
  5
1E9
  8
LAYER1
 62
   178
 10
6.742224015369642
 20
80.1449831939632
 30
0.0
 11
5.010173207800763
 21
81.14498319396318
 31
0.0
  0
LINE
  5
1EA
  8
LAYER1
 62
   178
 10
5.415875512835584
 20
75.1949831939632
 30
0.0
 11
3.415875512835587
 21
75.1949831939632
 31
0.0
  0
LINE
  5
1EB
  8
LAYER1
 62
   178
 10
6.74222401536963
 20
70.2449831939632
 30
0.0
 11
5.010173207800775
 21
69.2449831939632
 31
0.0
  0
LINE
  5
1EC
  8
LAYER1
 62
   178
 10
10.36587551283557
 20
66.62133169649725
 30
0.0
 11
9.365875512835599
 21
64.88928088892837
 31
0.0
  0
LINE
  5
1ED
  8
LAYER1
 62
   178
 10
20.26587551283558
 20
66.62133169649725
 30
0.0
 11
21.26587551283561
 21
64.88928088892835
 31
0.0
  0
LINE
  5
1EE
  8
LAYER1
 62
   178
 10
23.88952701030152
 20
70.24498319396318
 30
0.0
 11
25.62157781787043
 21
69.24498319396318
 31
0.0
  0
LINE
  5
1EF
  8
LAYER1
 62
   178
 10
25.21587551283559
 20
75.19498319396317
 30
0.0
 11
27.21587551283562
 21
75.19498319396318
 31
0.0
  0
LINE
  5
1F0
  8
LAYER1
 62
   178
 10
23.88952701030155
 20
80.14498319396317
 30
0.0
 11
25.62157781787045
 21
81.14498319396318
 31
0.0
  0
LINE
  5
1F1
  8
LAYER1
 62
   178
 10
20.26587551283561
 20
83.76863469142911
 30
0.0
 11
21.26587551283562
 21
85.50068549899802
 31
0.0
  0
TEXT
  5
1F3
  8
LAYER1
  6
BORDER
 62
   178
 10
4.0253900542073
 20
63.65794542239897
 30
0.0
 40
2.282999992370605
  1
0
  7
TEXT313315
  0
LINE
  5
1F4
  8
LAYER1
 62
   178
 10
9.365875512835599
 20
64.88928088892837
 30
0.0
 11
6.365875512835593
 21
64.88928088892837
 31
0.0
  0
LINE
  5
1F5
  8
LAYER1
 62
   178
 10
24.26587551283561
 20
64.88928088892835
 30
0.0
 11
21.26587551283561
 21
64.88928088892835
 31
0.0
  0
TEXT
  5
1F7
  8
LAYER1
  6
BORDER
 62
   178
 10
24.31308243090976
 20
63.78669871182146
 30
0.0
 40
2.282999992370605
  1
10
  7
TEXT313321
  0
TEXT
  5
1F9
  8
LAYER1
  6
BORDER
 62
   178
 10
14.48254215632267
 20
87.4054521893724
 30
0.0
 40
2.282999992370605
  1
5
  7
TEXT313323
  0
LINE
  5
1FA
  8
LAYER1
 62
   178
 10
15.31587551283559
 20
85.0949831939632
 30
0.0
 11
15.31587551283559
 21
87.0949831939632
 31
0.0
  0
LINE
  5
1FB
  8
LAYER1
 62
   178
 10
10.36587551283559
 20
83.76863469142914
 30
0.0
 11
9.365875512835588
 21
85.50068549899801
 31
0.0
  0
LINE
  5
1FC
  8
LAYER1
 62
   178
 10
6.742224015369642
 20
80.1449831939632
 30
0.0
 11
5.010173207800763
 21
81.14498319396318
 31
0.0
  0
LINE
  5
1FD
  8
LAYER1
 62
   178
 10
5.415875512835584
 20
75.1949831939632
 30
0.0
 11
3.415875512835587
 21
75.1949831939632
 31
0.0
  0
LINE
  5
1FE
  8
LAYER1
 62
   178
 10
6.74222401536963
 20
70.2449831939632
 30
0.0
 11
5.010173207800775
 21
69.2449831939632
 31
0.0
  0
LINE
  5
1FF
  8
LAYER1
 62
   178
 10
10.36587551283557
 20
66.62133169649725
 30
0.0
 11
9.365875512835599
 21
64.88928088892837
 31
0.0
  0
LINE
  5
200
  8
LAYER1
 62
   178
 10
20.26587551283558
 20
66.62133169649725
 30
0.0
 11
21.26587551283561
 21
64.88928088892835
 31
0.0
  0
LINE
  5
201
  8
LAYER1
 62
   178
 10
23.88952701030152
 20
70.24498319396318
 30
0.0
 11
25.62157781787043
 21
69.24498319396318
 31
0.0
  0
LINE
  5
202
  8
LAYER1
 62
   178
 10
25.21587551283559
 20
75.19498319396317
 30
0.0
 11
27.21587551283562
 21
75.19498319396318
 31
0.0
  0
LINE
  5
203
  8
LAYER1
 62
   178
 10
23.88952701030155
 20
80.14498319396317
 30
0.0
 11
25.62157781787045
 21
81.14498319396318
 31
0.0
  0
LINE
  5
204
  8
LAYER1
 62
   178
 10
20.26587551283561
 20
83.76863469142911
 30
0.0
 11
21.26587551283562
 21
85.50068549899802
 31
0.0
  0
TEXT
  5
206
  8
LAYER1
  6
BORDER
 62
   178
 10
4.0253900542073
 20
63.65794542239897
 30
0.0
 40
2.282999992370605
  1
0
  7
TEXT313347
  0
LINE
  5
207
  8
LAYER1
 62
   178
 10
9.365875512835599
 20
64.88928088892837
 30
0.0
 11
6.365875512835593
 21
64.88928088892837
 31
0.0
  0
LINE
  5
208
  8
LAYER1
 62
   178
 10
24.26587551283561
 20
64.88928088892835
 30
0.0
 11
21.26587551283561
 21
64.88928088892835
 31
0.0
  0
TEXT
  5
20A
  8
LAYER1
  6
BORDER
 62
   178
 10
24.31308243090976
 20
63.78669871182146
 30
0.0
 40
2.282999992370605
  1
10
  7
TEXT313353
  0
TEXT
  5
20C
  8
LAYER1
  6
BORDER
 62
   178
 10
14.48254215632267
 20
87.4054521893724
 30
0.0
 40
2.282999992370605
  1
5
  7
TEXT313355
  0
LINE
  5
20D
  8
LAYER1
 62
   178
 10
15.31587551283559
 20
85.0949831939632
 30
0.0
 11
15.31587551283559
 21
87.0949831939632
 31
0.0
  0
LINE
  5
20E
  8
LAYER1
 62
   178
 10
10.36587551283559
 20
83.76863469142914
 30
0.0
 11
9.365875512835588
 21
85.50068549899801
 31
0.0
  0
LINE
  5
20F
  8
LAYER1
 62
   178
 10
6.742224015369642
 20
80.1449831939632
 30
0.0
 11
5.010173207800763
 21
81.14498319396318
 31
0.0
  0
LINE
  5
210
  8
LAYER1
 62
   178
 10
5.415875512835584
 20
75.1949831939632
 30
0.0
 11
3.415875512835587
 21
75.1949831939632
 31
0.0
  0
LINE
  5
211
  8
LAYER1
 62
   178
 10
6.74222401536963
 20
70.2449831939632
 30
0.0
 11
5.010173207800775
 21
69.2449831939632
 31
0.0
  0
LINE
  5
212
  8
LAYER1
 62
   178
 10
10.36587551283557
 20
66.62133169649725
 30
0.0
 11
9.365875512835599
 21
64.88928088892837
 31
0.0
  0
LINE
  5
213
  8
LAYER1
 62
   178
 10
20.26587551283558
 20
66.62133169649725
 30
0.0
 11
21.26587551283561
 21
64.88928088892835
 31
0.0
  0
LINE
  5
214
  8
LAYER1
 62
   178
 10
23.88952701030152
 20
70.24498319396318
 30
0.0
 11
25.62157781787043
 21
69.24498319396318
 31
0.0
  0
LINE
  5
215
  8
LAYER1
 62
   178
 10
25.21587551283559
 20
75.19498319396317
 30
0.0
 11
27.21587551283562
 21
75.19498319396318
 31
0.0
  0
LINE
  5
216
  8
LAYER1
 62
   178
 10
23.88952701030155
 20
80.14498319396317
 30
0.0
 11
25.62157781787045
 21
81.14498319396318
 31
0.0
  0
LINE
  5
217
  8
LAYER1
 62
   178
 10
20.26587551283561
 20
83.76863469142911
 30
0.0
 11
21.26587551283562
 21
85.50068549899802
 31
0.0
  0
TEXT
  5
219
  8
LAYER1
  6
BORDER
 62
   178
 10
4.0253900542073
 20
63.65794542239897
 30
0.0
 40
2.282999992370605
  1
0
  7
TEXT313379
  0
LINE
  5
21A
  8
LAYER1
 62
   178
 10
9.365875512835599
 20
64.88928088892837
 30
0.0
 11
6.365875512835593
 21
64.88928088892837
 31
0.0
  0
LINE
  5
21B
  8
LAYER1
 62
   178
 10
24.26587551283561
 20
64.88928088892835
 30
0.0
 11
21.26587551283561
 21
64.88928088892835
 31
0.0
  0
TEXT
  5
21D
  8
LAYER1
  6
BORDER
 62
   178
 10
24.31308243090976
 20
63.78669871182146
 30
0.0
 40
2.282999992370605
  1
10
  7
TEXT313385
  0
TEXT
  5
21F
  8
LAYER1
  6
BORDER
 62
   178
 10
14.48254215632267
 20
87.4054521893724
 30
0.0
 40
2.282999992370605
  1
5
  7
TEXT313387
  0
LINE
  5
220
  8
LAYER1
 62
   178
 10
15.31587551283559
 20
85.0949831939632
 30
0.0
 11
15.31587551283559
 21
87.0949831939632
 31
0.0
  0
LINE
  5
221
  8
LAYER1
 62
   178
 10
10.36587551283559
 20
83.76863469142914
 30
0.0
 11
9.365875512835588
 21
85.50068549899801
 31
0.0
  0
LINE
  5
222
  8
LAYER1
 62
   178
 10
6.742224015369642
 20
80.1449831939632
 30
0.0
 11
5.010173207800763
 21
81.14498319396318
 31
0.0
  0
LINE
  5
223
  8
LAYER1
 62
   178
 10
5.415875512835584
 20
75.1949831939632
 30
0.0
 11
3.415875512835587
 21
75.1949831939632
 31
0.0
  0
LINE
  5
224
  8
LAYER1
 62
   178
 10
6.74222401536963
 20
70.2449831939632
 30
0.0
 11
5.010173207800775
 21
69.2449831939632
 31
0.0
  0
LINE
  5
225
  8
LAYER1
 62
   178
 10
10.36587551283557
 20
66.62133169649725
 30
0.0
 11
9.365875512835599
 21
64.88928088892837
 31
0.0
  0
LINE
  5
226
  8
LAYER1
 62
   178
 10
20.26587551283558
 20
66.62133169649725
 30
0.0
 11
21.26587551283561
 21
64.88928088892835
 31
0.0
  0
LINE
  5
227
  8
LAYER1
 62
   178
 10
23.88952701030152
 20
70.24498319396318
 30
0.0
 11
25.62157781787043
 21
69.24498319396318
 31
0.0
  0
LINE
  5
228
  8
LAYER1
 62
   178
 10
25.21587551283559
 20
75.19498319396317
 30
0.0
 11
27.21587551283562
 21
75.19498319396318
 31
0.0
  0
LINE
  5
229
  8
LAYER1
 62
   178
 10
23.88952701030155
 20
80.14498319396317
 30
0.0
 11
25.62157781787045
 21
81.14498319396318
 31
0.0
  0
LINE
  5
22A
  8
LAYER1
 62
   178
 10
20.26587551283561
 20
83.76863469142911
 30
0.0
 11
21.26587551283562
 21
85.50068549899802
 31
0.0
  0
TEXT
  5
22C
  8
LAYER1
  6
BORDER
 62
   178
 10
4.0253900542073
 20
63.65794542239897
 30
0.0
 40
2.282999992370605
  1
0
  7
TEXT313411
  0
LINE
  5
22D
  8
LAYER1
 62
   178
 10
9.365875512835599
 20
64.88928088892837
 30
0.0
 11
6.365875512835593
 21
64.88928088892837
 31
0.0
  0
LINE
  5
22E
  8
LAYER1
 62
   178
 10
24.26587551283561
 20
64.88928088892835
 30
0.0
 11
21.26587551283561
 21
64.88928088892835
 31
0.0
  0
TEXT
  5
230
  8
LAYER1
  6
BORDER
 62
   178
 10
24.31308243090976
 20
63.78669871182146
 30
0.0
 40
2.282999992370605
  1
10
  7
TEXT313417
  0
TEXT
  5
232
  8
LAYER1
  6
BORDER
 62
   178
 10
14.48254215632267
 20
87.4054521893724
 30
0.0
 40
2.282999992370605
  1
5
  7
TEXT313419
  0
LINE
  5
233
  8
LAYER1
 62
   178
 10
40.45
 20
103.4644402393013
 30
0.0
 11
40.45
 21
105.4644402393013
 31
0.0
  0
LINE
  5
234
  8
LAYER1
 62
   178
 10
35.5
 20
102.1380917367673
 30
0.0
 11
34.50000000000001
 21
103.8701425443361
 31
0.0
  0
LINE
  5
235
  8
LAYER1
 62
   178
 10
31.87634850253406
 20
98.51444023930132
 30
0.0
 11
30.14429769496518
 21
99.51444023930131
 31
0.0
  0
LINE
  5
236
  8
LAYER1
 62
   178
 10
30.55
 20
93.56444023930132
 30
0.0
 11
28.55
 21
93.5644402393013
 31
0.0
  0
LINE
  5
237
  8
LAYER1
 62
   178
 10
31.87634850253405
 20
88.61444023930132
 30
0.0
 11
30.14429769496519
 21
87.6144402393013
 31
0.0
  0
LINE
  5
238
  8
LAYER1
 62
   178
 10
35.49999999999999
 20
84.99078874183537
 30
0.0
 11
34.50000000000001
 21
83.25873793426648
 31
0.0
  0
LINE
  5
239
  8
LAYER1
 62
   178
 10
45.4
 20
84.99078874183536
 30
0.0
 11
46.40000000000003
 21
83.25873793426648
 31
0.0
  0
LINE
  5
23A
  8
LAYER1
 62
   178
 10
49.02365149746594
 20
88.61444023930129
 30
0.0
 11
50.75570230503485
 21
87.6144402393013
 31
0.0
  0
LINE
  5
23B
  8
LAYER1
 62
   178
 10
50.35000000000001
 20
93.56444023930129
 30
0.0
 11
52.35000000000004
 21
93.56444023930129
 31
0.0
  0
LINE
  5
23C
  8
LAYER1
 62
   178
 10
49.02365149746596
 20
98.5144402393013
 30
0.0
 11
50.75570230503487
 21
99.51444023930131
 31
0.0
  0
LINE
  5
23D
  8
LAYER1
 62
   178
 10
45.40000000000003
 20
102.1380917367672
 30
0.0
 11
46.40000000000004
 21
103.8701425443362
 31
0.0
  0
TEXT
  5
23F
  8
LAYER1
  6
BORDER
 62
   178
 10
29.15951454137172
 20
82.02740246773709
 30
0.0
 40
2.282999992370605
  1
0
  7
TEXT313455
  0
LINE
  5
240
  8
LAYER1
 62
   178
 10
34.50000000000001
 20
83.25873793426648
 30
0.0
 11
31.50000000000001
 21
83.25873793426648
 31
0.0
  0
LINE
  5
241
  8
LAYER1
 62
   178
 10
49.40000000000002
 20
83.25873793426648
 30
0.0
 11
46.40000000000003
 21
83.25873793426648
 31
0.0
  0
TEXT
  5
243
  8
LAYER1
  6
BORDER
 62
   178
 10
49.44720691807418
 20
82.15615575715958
 30
0.0
 40
2.282999992370605
  1
10
  7
TEXT313462
  0
LINE
  5
244
  8
LAYER1
 62
   178
 10
40.45
 20
103.4644402393013
 30
0.0
 11
40.45
 21
105.4644402393013
 31
0.0
  0
LINE
  5
245
  8
LAYER1
 62
   178
 10
35.5
 20
102.1380917367673
 30
0.0
 11
34.50000000000001
 21
103.8701425443361
 31
0.0
  0
LINE
  5
246
  8
LAYER1
 62
   178
 10
31.87634850253406
 20
98.51444023930132
 30
0.0
 11
30.14429769496518
 21
99.51444023930131
 31
0.0
  0
LINE
  5
247
  8
LAYER1
 62
   178
 10
30.55
 20
93.56444023930132
 30
0.0
 11
28.55
 21
93.5644402393013
 31
0.0
  0
LINE
  5
248
  8
LAYER1
 62
   178
 10
31.87634850253405
 20
88.61444023930132
 30
0.0
 11
30.14429769496519
 21
87.6144402393013
 31
0.0
  0
LINE
  5
249
  8
LAYER1
 62
   178
 10
35.49999999999999
 20
84.99078874183537
 30
0.0
 11
34.50000000000001
 21
83.25873793426648
 31
0.0
  0
LINE
  5
24A
  8
LAYER1
 62
   178
 10
45.4
 20
84.99078874183536
 30
0.0
 11
46.40000000000003
 21
83.25873793426648
 31
0.0
  0
LINE
  5
24B
  8
LAYER1
 62
   178
 10
49.02365149746594
 20
88.61444023930129
 30
0.0
 11
50.75570230503485
 21
87.6144402393013
 31
0.0
  0
LINE
  5
24C
  8
LAYER1
 62
   178
 10
50.35000000000001
 20
93.56444023930129
 30
0.0
 11
52.35000000000004
 21
93.56444023930129
 31
0.0
  0
LINE
  5
24D
  8
LAYER1
 62
   178
 10
49.02365149746596
 20
98.5144402393013
 30
0.0
 11
50.75570230503487
 21
99.51444023930131
 31
0.0
  0
LINE
  5
24E
  8
LAYER1
 62
   178
 10
45.40000000000003
 20
102.1380917367672
 30
0.0
 11
46.40000000000004
 21
103.8701425443362
 31
0.0
  0
TEXT
  5
250
  8
LAYER1
  6
BORDER
 62
   178
 10
29.15951454137172
 20
82.02740246773709
 30
0.0
 40
2.282999992370605
  1
0
  7
TEXT313487
  0
LINE
  5
251
  8
LAYER1
 62
   178
 10
34.50000000000001
 20
83.25873793426648
 30
0.0
 11
31.50000000000001
 21
83.25873793426648
 31
0.0
  0
LINE
  5
252
  8
LAYER1
 62
   178
 10
49.40000000000002
 20
83.25873793426648
 30
0.0
 11
46.40000000000003
 21
83.25873793426648
 31
0.0
  0
TEXT
  5
254
  8
LAYER1
  6
BORDER
 62
   178
 10
49.44720691807418
 20
82.15615575715958
 30
0.0
 40
2.282999992370605
  1
10
  7
TEXT313494
  0
LINE
  5
255
  8
LAYER1
 62
   178
 10
40.45
 20
103.4644402393013
 30
0.0
 11
40.45
 21
105.4644402393013
 31
0.0
  0
LINE
  5
256
  8
LAYER1
 62
   178
 10
35.5
 20
102.1380917367673
 30
0.0
 11
34.50000000000001
 21
103.8701425443361
 31
0.0
  0
LINE
  5
257
  8
LAYER1
 62
   178
 10
31.87634850253406
 20
98.51444023930132
 30
0.0
 11
30.14429769496518
 21
99.51444023930131
 31
0.0
  0
LINE
  5
258
  8
LAYER1
 62
   178
 10
30.55
 20
93.56444023930132
 30
0.0
 11
28.55
 21
93.5644402393013
 31
0.0
  0
LINE
  5
259
  8
LAYER1
 62
   178
 10
31.87634850253405
 20
88.61444023930132
 30
0.0
 11
30.14429769496519
 21
87.6144402393013
 31
0.0
  0
LINE
  5
25A
  8
LAYER1
 62
   178
 10
35.49999999999999
 20
84.99078874183537
 30
0.0
 11
34.50000000000001
 21
83.25873793426648
 31
0.0
  0
LINE
  5
25B
  8
LAYER1
 62
   178
 10
45.4
 20
84.99078874183536
 30
0.0
 11
46.40000000000003
 21
83.25873793426648
 31
0.0
  0
LINE
  5
25C
  8
LAYER1
 62
   178
 10
49.02365149746594
 20
88.61444023930129
 30
0.0
 11
50.75570230503485
 21
87.6144402393013
 31
0.0
  0
LINE
  5
25D
  8
LAYER1
 62
   178
 10
50.35000000000001
 20
93.56444023930129
 30
0.0
 11
52.35000000000004
 21
93.56444023930129
 31
0.0
  0
LINE
  5
25E
  8
LAYER1
 62
   178
 10
49.02365149746596
 20
98.5144402393013
 30
0.0
 11
50.75570230503487
 21
99.51444023930131
 31
0.0
  0
LINE
  5
25F
  8
LAYER1
 62
   178
 10
45.40000000000003
 20
102.1380917367672
 30
0.0
 11
46.40000000000004
 21
103.8701425443362
 31
0.0
  0
TEXT
  5
261
  8
LAYER1
  6
BORDER
 62
   178
 10
29.15951454137172
 20
82.02740246773709
 30
0.0
 40
2.282999992370605
  1
0
  7
TEXT313519
  0
LINE
  5
262
  8
LAYER1
 62
   178
 10
34.50000000000001
 20
83.25873793426648
 30
0.0
 11
31.50000000000001
 21
83.25873793426648
 31
0.0
  0
LINE
  5
263
  8
LAYER1
 62
   178
 10
49.40000000000002
 20
83.25873793426648
 30
0.0
 11
46.40000000000003
 21
83.25873793426648
 31
0.0
  0
TEXT
  5
265
  8
LAYER1
  6
BORDER
 62
   178
 10
49.44720691807418
 20
82.15615575715958
 30
0.0
 40
2.282999992370605
  1
10
  7
TEXT313526
  0
LINE
  5
266
  8
LAYER1
 62
   178
 10
65.6749999999277
 20
85.03628546952027
 30
0.0
 11
65.6749999999277
 21
87.03628546952027
 31
0.0
  0
LINE
  5
267
  8
LAYER1
 62
   178
 10
60.7249999999277
 20
83.70993696698622
 30
0.0
 11
59.7249999999277
 21
85.44198777455507
 31
0.0
  0
LINE
  5
268
  8
LAYER1
 62
   178
 10
57.10134850246176
 20
80.08628546952026
 30
0.0
 11
55.36929769489288
 21
81.08628546952025
 31
0.0
  0
LINE
  5
269
  8
LAYER1
 62
   178
 10
55.7749999999277
 20
75.13628546952026
 30
0.0
 11
53.77499999992771
 21
75.13628546952026
 31
0.0
  0
LINE
  5
26A
  8
LAYER1
 62
   178
 10
57.10134850246175
 20
70.18628546952027
 30
0.0
 11
55.36929769489289
 21
69.18628546952026
 31
0.0
  0
LINE
  5
26B
  8
LAYER1
 62
   178
 10
60.72499999992769
 20
66.56263397205431
 30
0.0
 11
59.72499999992772
 21
64.83058316448543
 31
0.0
  0
LINE
  5
26C
  8
LAYER1
 62
   178
 10
70.62499999992771
 20
66.56263397205431
 30
0.0
 11
71.62499999992772
 21
64.83058316448542
 31
0.0
  0
LINE
  5
26D
  8
LAYER1
 62
   178
 10
74.24865149739362
 20
70.18628546952024
 30
0.0
 11
75.98070230496253
 21
69.18628546952024
 31
0.0
  0
LINE
  5
26E
  8
LAYER1
 62
   178
 10
75.57499999992771
 20
75.13628546952023
 30
0.0
 11
77.57499999992775
 21
75.13628546952025
 31
0.0
  0
LINE
  5
26F
  8
LAYER1
 62
   178
 10
74.24865149739368
 20
80.08628546952025
 30
0.0
 11
75.98070230496256
 21
81.08628546952025
 31
0.0
  0
LINE
  5
270
  8
LAYER1
 62
   178
 10
70.62499999992772
 20
83.70993696698616
 30
0.0
 11
71.62499999992772
 21
85.44198777455507
 31
0.0
  0
TEXT
  5
272
  8
LAYER1
  6
BORDER
 62
   178
 10
54.38451454129942
 20
63.59924769795604
 30
0.0
 40
2.282999992370605
  1
0
  7
TEXT313555
  0
LINE
  5
273
  8
LAYER1
 62
   178
 10
59.72499999992772
 20
64.83058316448543
 30
0.0
 11
56.72499999992771
 21
64.83058316448543
 31
0.0
  0
LINE
  5
274
  8
LAYER1
 62
   178
 10
74.62499999992772
 20
64.83058316448542
 30
0.0
 11
71.62499999992772
 21
64.83058316448542
 31
0.0
  0
TEXT
  5
276
  8
LAYER1
  6
BORDER
 62
   178
 10
74.67220691800188
 20
63.72800098737852
 30
0.0
 40
2.282999992370605
  1
10
  7
TEXT313561
  0
TEXT
  5
278
  8
LAYER1
  6
BORDER
 62
   178
 10
64.8416666434148
 20
87.34675446492946
 30
0.0
 40
2.282999992370605
  1
5
  7
TEXT313563
  0
LINE
  5
279
  8
LAYER1
 62
   178
 10
65.6749999999277
 20
85.03628546952027
 30
0.0
 11
65.6749999999277
 21
87.03628546952027
 31
0.0
  0
LINE
  5
27A
  8
LAYER1
 62
   178
 10
60.7249999999277
 20
83.70993696698622
 30
0.0
 11
59.7249999999277
 21
85.44198777455507
 31
0.0
  0
LINE
  5
27B
  8
LAYER1
 62
   178
 10
57.10134850246176
 20
80.08628546952026
 30
0.0
 11
55.36929769489288
 21
81.08628546952025
 31
0.0
  0
LINE
  5
27C
  8
LAYER1
 62
   178
 10
55.7749999999277
 20
75.13628546952026
 30
0.0
 11
53.77499999992771
 21
75.13628546952026
 31
0.0
  0
LINE
  5
27D
  8
LAYER1
 62
   178
 10
57.10134850246175
 20
70.18628546952027
 30
0.0
 11
55.36929769489289
 21
69.18628546952026
 31
0.0
  0
LINE
  5
27E
  8
LAYER1
 62
   178
 10
60.72499999992769
 20
66.56263397205431
 30
0.0
 11
59.72499999992772
 21
64.83058316448543
 31
0.0
  0
LINE
  5
27F
  8
LAYER1
 62
   178
 10
70.62499999992771
 20
66.56263397205431
 30
0.0
 11
71.62499999992772
 21
64.83058316448542
 31
0.0
  0
LINE
  5
280
  8
LAYER1
 62
   178
 10
74.24865149739362
 20
70.18628546952024
 30
0.0
 11
75.98070230496253
 21
69.18628546952024
 31
0.0
  0
LINE
  5
281
  8
LAYER1
 62
   178
 10
75.57499999992771
 20
75.13628546952023
 30
0.0
 11
77.57499999992775
 21
75.13628546952025
 31
0.0
  0
LINE
  5
282
  8
LAYER1
 62
   178
 10
74.24865149739368
 20
80.08628546952025
 30
0.0
 11
75.98070230496256
 21
81.08628546952025
 31
0.0
  0
LINE
  5
283
  8
LAYER1
 62
   178
 10
70.62499999992772
 20
83.70993696698616
 30
0.0
 11
71.62499999992772
 21
85.44198777455507
 31
0.0
  0
TEXT
  5
285
  8
LAYER1
  6
BORDER
 62
   178
 10
54.38451454129942
 20
63.59924769795604
 30
0.0
 40
2.282999992370605
  1
0
  7
TEXT313587
  0
LINE
  5
286
  8
LAYER1
 62
   178
 10
59.72499999992772
 20
64.83058316448543
 30
0.0
 11
56.72499999992771
 21
64.83058316448543
 31
0.0
  0
LINE
  5
287
  8
LAYER1
 62
   178
 10
74.62499999992772
 20
64.83058316448542
 30
0.0
 11
71.62499999992772
 21
64.83058316448542
 31
0.0
  0
TEXT
  5
289
  8
LAYER1
  6
BORDER
 62
   178
 10
74.67220691800188
 20
63.72800098737852
 30
0.0
 40
2.282999992370605
  1
10
  7
TEXT313593
  0
TEXT
  5
28B
  8
LAYER1
  6
BORDER
 62
   178
 10
64.8416666434148
 20
87.34675446492946
 30
0.0
 40
2.282999992370605
  1
5
  7
TEXT313595
  0
LINE
  5
28C
  8
LAYER1
 62
   178
 10
65.6749999999277
 20
85.03628546952027
 30
0.0
 11
65.6749999999277
 21
87.03628546952027
 31
0.0
  0
LINE
  5
28D
  8
LAYER1
 62
   178
 10
60.7249999999277
 20
83.70993696698622
 30
0.0
 11
59.7249999999277
 21
85.44198777455507
 31
0.0
  0
LINE
  5
28E
  8
LAYER1
 62
   178
 10
57.10134850246176
 20
80.08628546952026
 30
0.0
 11
55.36929769489288
 21
81.08628546952025
 31
0.0
  0
LINE
  5
28F
  8
LAYER1
 62
   178
 10
55.7749999999277
 20
75.13628546952026
 30
0.0
 11
53.77499999992771
 21
75.13628546952026
 31
0.0
  0
LINE
  5
290
  8
LAYER1
 62
   178
 10
57.10134850246175
 20
70.18628546952027
 30
0.0
 11
55.36929769489289
 21
69.18628546952026
 31
0.0
  0
LINE
  5
291
  8
LAYER1
 62
   178
 10
60.72499999992769
 20
66.56263397205431
 30
0.0
 11
59.72499999992772
 21
64.83058316448543
 31
0.0
  0
LINE
  5
292
  8
LAYER1
 62
   178
 10
70.62499999992771
 20
66.56263397205431
 30
0.0
 11
71.62499999992772
 21
64.83058316448542
 31
0.0
  0
LINE
  5
293
  8
LAYER1
 62
   178
 10
74.24865149739362
 20
70.18628546952024
 30
0.0
 11
75.98070230496253
 21
69.18628546952024
 31
0.0
  0
LINE
  5
294
  8
LAYER1
 62
   178
 10
75.57499999992771
 20
75.13628546952023
 30
0.0
 11
77.57499999992775
 21
75.13628546952025
 31
0.0
  0
LINE
  5
295
  8
LAYER1
 62
   178
 10
74.24865149739368
 20
80.08628546952025
 30
0.0
 11
75.98070230496256
 21
81.08628546952025
 31
0.0
  0
LINE
  5
296
  8
LAYER1
 62
   178
 10
70.62499999992772
 20
83.70993696698616
 30
0.0
 11
71.62499999992772
 21
85.44198777455507
 31
0.0
  0
TEXT
  5
298
  8
LAYER1
  6
BORDER
 62
   178
 10
54.38451454129942
 20
63.59924769795604
 30
0.0
 40
2.282999992370605
  1
0
  7
TEXT313619
  0
LINE
  5
299
  8
LAYER1
 62
   178
 10
59.72499999992772
 20
64.83058316448543
 30
0.0
 11
56.72499999992771
 21
64.83058316448543
 31
0.0
  0
LINE
  5
29A
  8
LAYER1
 62
   178
 10
74.62499999992772
 20
64.83058316448542
 30
0.0
 11
71.62499999992772
 21
64.83058316448542
 31
0.0
  0
TEXT
  5
29C
  8
LAYER1
  6
BORDER
 62
   178
 10
74.67220691800188
 20
63.72800098737852
 30
0.0
 40
2.282999992370605
  1
10
  7
TEXT313625
  0
TEXT
  5
29E
  8
LAYER1
  6
BORDER
 62
   178
 10
64.8416666434148
 20
87.34675446492946
 30
0.0
 40
2.282999992370605
  1
5
  7
TEXT313627
  0
LINE
  5
29F
  8
LAYER1
 62
   178
 10
65.6749999999277
 20
85.03628546952027
 30
0.0
 11
65.6749999999277
 21
87.03628546952027
 31
0.0
  0
LINE
  5
2A0
  8
LAYER1
 62
   178
 10
60.7249999999277
 20
83.70993696698622
 30
0.0
 11
59.7249999999277
 21
85.44198777455507
 31
0.0
  0
LINE
  5
2A1
  8
LAYER1
 62
   178
 10
57.10134850246176
 20
80.08628546952026
 30
0.0
 11
55.36929769489288
 21
81.08628546952025
 31
0.0
  0
LINE
  5
2A2
  8
LAYER1
 62
   178
 10
55.7749999999277
 20
75.13628546952026
 30
0.0
 11
53.77499999992771
 21
75.13628546952026
 31
0.0
  0
LINE
  5
2A3
  8
LAYER1
 62
   178
 10
57.10134850246175
 20
70.18628546952027
 30
0.0
 11
55.36929769489289
 21
69.18628546952026
 31
0.0
  0
LINE
  5
2A4
  8
LAYER1
 62
   178
 10
60.72499999992769
 20
66.56263397205431
 30
0.0
 11
59.72499999992772
 21
64.83058316448543
 31
0.0
  0
LINE
  5
2A5
  8
LAYER1
 62
   178
 10
70.62499999992771
 20
66.56263397205431
 30
0.0
 11
71.62499999992772
 21
64.83058316448542
 31
0.0
  0
LINE
  5
2A6
  8
LAYER1
 62
   178
 10
74.24865149739362
 20
70.18628546952024
 30
0.0
 11
75.98070230496253
 21
69.18628546952024
 31
0.0
  0
LINE
  5
2A7
  8
LAYER1
 62
   178
 10
75.57499999992771
 20
75.13628546952023
 30
0.0
 11
77.57499999992775
 21
75.13628546952025
 31
0.0
  0
LINE
  5
2A8
  8
LAYER1
 62
   178
 10
74.24865149739368
 20
80.08628546952025
 30
0.0
 11
75.98070230496256
 21
81.08628546952025
 31
0.0
  0
LINE
  5
2A9
  8
LAYER1
 62
   178
 10
70.62499999992772
 20
83.70993696698616
 30
0.0
 11
71.62499999992772
 21
85.44198777455507
 31
0.0
  0
TEXT
  5
2AB
  8
LAYER1
  6
BORDER
 62
   178
 10
54.38451454129942
 20
63.59924769795604
 30
0.0
 40
2.282999992370605
  1
0
  7
TEXT313651
  0
LINE
  5
2AC
  8
LAYER1
 62
   178
 10
59.72499999992772
 20
64.83058316448543
 30
0.0
 11
56.72499999992771
 21
64.83058316448543
 31
0.0
  0
LINE
  5
2AD
  8
LAYER1
 62
   178
 10
74.62499999992772
 20
64.83058316448542
 30
0.0
 11
71.62499999992772
 21
64.83058316448542
 31
0.0
  0
TEXT
  5
2AF
  8
LAYER1
  6
BORDER
 62
   178
 10
74.67220691800188
 20
63.72800098737852
 30
0.0
 40
2.282999992370605
  1
10
  7
TEXT313657
  0
TEXT
  5
2B1
  8
LAYER1
  6
BORDER
 62
   178
 10
64.8416666434148
 20
87.34675446492946
 30
0.0
 40
2.282999992370605
  1
5
  7
TEXT313659
  0
LINE
  5
2B2
  8
LAYER1
 62
   178
 10
65.67499999992768
 20
52.68696454725112
 30
0.0
 11
65.67499999992768
 21
54.68696454725112
 31
0.0
  0
LINE
  5
2B3
  8
LAYER1
 62
   178
 10
60.72499999992768
 20
51.36061604471706
 30
0.0
 11
59.72499999992768
 21
53.09266685228592
 31
0.0
  0
LINE
  5
2B4
  8
LAYER1
 62
   178
 10
57.10134850246174
 20
47.73696454725116
 30
0.0
 11
55.36929769489287
 21
48.73696454725114
 31
0.0
  0
LINE
  5
2B5
  8
LAYER1
 62
   178
 10
55.77499999992768
 20
42.78696454725115
 30
0.0
 11
53.77499999992768
 21
42.78696454725114
 31
0.0
  0
LINE
  5
2B6
  8
LAYER1
 62
   178
 10
57.10134850246174
 20
37.83696454725115
 30
0.0
 11
55.36929769489287
 21
36.83696454725114
 31
0.0
  0
LINE
  5
2B7
  8
LAYER1
 62
   178
 10
60.72499999992768
 20
34.21331304978521
 30
0.0
 11
59.7249999999277
 21
32.48126224221632
 31
0.0
  0
LINE
  5
2B8
  8
LAYER1
 62
   178
 10
70.62499999992768
 20
34.21331304978519
 30
0.0
 11
71.62499999992771
 21
32.4812622422163
 31
0.0
  0
LINE
  5
2B9
  8
LAYER1
 62
   178
 10
74.24865149739362
 20
37.83696454725113
 30
0.0
 11
75.98070230496253
 21
36.83696454725113
 31
0.0
  0
LINE
  5
2BA
  8
LAYER1
 62
   178
 10
75.57499999992768
 20
42.78696454725112
 30
0.0
 11
77.57499999992773
 21
42.78696454725113
 31
0.0
  0
LINE
  5
2BB
  8
LAYER1
 62
   178
 10
74.24865149739365
 20
47.73696454725112
 30
0.0
 11
75.98070230496253
 21
48.73696454725114
 31
0.0
  0
LINE
  5
2BC
  8
LAYER1
 62
   178
 10
70.62499999992771
 20
51.36061604471701
 30
0.0
 11
71.62499999992772
 21
53.09266685228592
 31
0.0
  0
TEXT
  5
2BE
  8
LAYER1
  6
BORDER
 62
   178
 10
54.3845145412994
 20
31.24992677568692
 30
0.0
 40
2.282999992370605
  1
0
  7
TEXT313699
  0
LINE
  5
2BF
  8
LAYER1
 62
   178
 10
59.7249999999277
 20
32.48126224221632
 30
0.0
 11
56.72499999992769
 21
32.48126224221632
 31
0.0
  0
LINE
  5
2C0
  8
LAYER1
 62
   178
 10
74.6249999999277
 20
32.4812622422163
 30
0.0
 11
71.62499999992771
 21
32.4812622422163
 31
0.0
  0
TEXT
  5
2C2
  8
LAYER1
  6
BORDER
 62
   178
 10
74.67220691800186
 20
31.37868006510941
 30
0.0
 40
2.282999992370605
  1
10
  7
TEXT313705
  0
TEXT
  5
2C4
  8
LAYER1
  6
BORDER
 62
   178
 10
64.84166664341477
 20
54.9974335426603
 30
0.0
 40
2.282999992370605
  1
5
  7
TEXT313707
  0
LINE
  5
2C5
  8
LAYER1
 62
   178
 10
65.67499999992768
 20
52.68696454725112
 30
0.0
 11
65.67499999992768
 21
54.68696454725112
 31
0.0
  0
LINE
  5
2C6
  8
LAYER1
 62
   178
 10
60.72499999992768
 20
51.36061604471706
 30
0.0
 11
59.72499999992768
 21
53.09266685228592
 31
0.0
  0
LINE
  5
2C7
  8
LAYER1
 62
   178
 10
57.10134850246174
 20
47.73696454725116
 30
0.0
 11
55.36929769489287
 21
48.73696454725114
 31
0.0
  0
LINE
  5
2C8
  8
LAYER1
 62
   178
 10
55.77499999992768
 20
42.78696454725115
 30
0.0
 11
53.77499999992768
 21
42.78696454725114
 31
0.0
  0
LINE
  5
2C9
  8
LAYER1
 62
   178
 10
57.10134850246174
 20
37.83696454725115
 30
0.0
 11
55.36929769489287
 21
36.83696454725114
 31
0.0
  0
LINE
  5
2CA
  8
LAYER1
 62
   178
 10
60.72499999992768
 20
34.21331304978521
 30
0.0
 11
59.7249999999277
 21
32.48126224221632
 31
0.0
  0
LINE
  5
2CB
  8
LAYER1
 62
   178
 10
70.62499999992768
 20
34.21331304978519
 30
0.0
 11
71.62499999992771
 21
32.4812622422163
 31
0.0
  0
LINE
  5
2CC
  8
LAYER1
 62
   178
 10
74.24865149739362
 20
37.83696454725113
 30
0.0
 11
75.98070230496253
 21
36.83696454725113
 31
0.0
  0
LINE
  5
2CD
  8
LAYER1
 62
   178
 10
75.57499999992768
 20
42.78696454725112
 30
0.0
 11
77.57499999992773
 21
42.78696454725113
 31
0.0
  0
LINE
  5
2CE
  8
LAYER1
 62
   178
 10
74.24865149739365
 20
47.73696454725112
 30
0.0
 11
75.98070230496253
 21
48.73696454725114
 31
0.0
  0
LINE
  5
2CF
  8
LAYER1
 62
   178
 10
70.62499999992771
 20
51.36061604471701
 30
0.0
 11
71.62499999992772
 21
53.09266685228592
 31
0.0
  0
TEXT
  5
2D1
  8
LAYER1
  6
BORDER
 62
   178
 10
54.3845145412994
 20
31.24992677568692
 30
0.0
 40
2.282999992370605
  1
0
  7
TEXT313731
  0
LINE
  5
2D2
  8
LAYER1
 62
   178
 10
59.7249999999277
 20
32.48126224221632
 30
0.0
 11
56.72499999992769
 21
32.48126224221632
 31
0.0
  0
LINE
  5
2D3
  8
LAYER1
 62
   178
 10
74.6249999999277
 20
32.4812622422163
 30
0.0
 11
71.62499999992771
 21
32.4812622422163
 31
0.0
  0
TEXT
  5
2D5
  8
LAYER1
  6
BORDER
 62
   178
 10
74.67220691800186
 20
31.37868006510941
 30
0.0
 40
2.282999992370605
  1
10
  7
TEXT313737
  0
TEXT
  5
2D7
  8
LAYER1
  6
BORDER
 62
   178
 10
64.84166664341477
 20
54.9974335426603
 30
0.0
 40
2.282999992370605
  1
5
  7
TEXT313739
  0
LINE
  5
2D8
  8
LAYER1
 62
   178
 10
65.67499999992768
 20
52.68696454725112
 30
0.0
 11
65.67499999992768
 21
54.68696454725112
 31
0.0
  0
LINE
  5
2D9
  8
LAYER1
 62
   178
 10
60.72499999992768
 20
51.36061604471706
 30
0.0
 11
59.72499999992768
 21
53.09266685228592
 31
0.0
  0
LINE
  5
2DA
  8
LAYER1
 62
   178
 10
57.10134850246174
 20
47.73696454725116
 30
0.0
 11
55.36929769489287
 21
48.73696454725114
 31
0.0
  0
LINE
  5
2DB
  8
LAYER1
 62
   178
 10
55.77499999992768
 20
42.78696454725115
 30
0.0
 11
53.77499999992768
 21
42.78696454725114
 31
0.0
  0
LINE
  5
2DC
  8
LAYER1
 62
   178
 10
57.10134850246174
 20
37.83696454725115
 30
0.0
 11
55.36929769489287
 21
36.83696454725114
 31
0.0
  0
LINE
  5
2DD
  8
LAYER1
 62
   178
 10
60.72499999992768
 20
34.21331304978521
 30
0.0
 11
59.7249999999277
 21
32.48126224221632
 31
0.0
  0
LINE
  5
2DE
  8
LAYER1
 62
   178
 10
70.62499999992768
 20
34.21331304978519
 30
0.0
 11
71.62499999992771
 21
32.4812622422163
 31
0.0
  0
LINE
  5
2DF
  8
LAYER1
 62
   178
 10
74.24865149739362
 20
37.83696454725113
 30
0.0
 11
75.98070230496253
 21
36.83696454725113
 31
0.0
  0
LINE
  5
2E0
  8
LAYER1
 62
   178
 10
75.57499999992768
 20
42.78696454725112
 30
0.0
 11
77.57499999992773
 21
42.78696454725113
 31
0.0
  0
LINE
  5
2E1
  8
LAYER1
 62
   178
 10
74.24865149739365
 20
47.73696454725112
 30
0.0
 11
75.98070230496253
 21
48.73696454725114
 31
0.0
  0
LINE
  5
2E2
  8
LAYER1
 62
   178
 10
70.62499999992771
 20
51.36061604471701
 30
0.0
 11
71.62499999992772
 21
53.09266685228592
 31
0.0
  0
TEXT
  5
2E4
  8
LAYER1
  6
BORDER
 62
   178
 10
54.3845145412994
 20
31.24992677568692
 30
0.0
 40
2.282999992370605
  1
0
  7
TEXT313763
  0
LINE
  5
2E5
  8
LAYER1
 62
   178
 10
59.7249999999277
 20
32.48126224221632
 30
0.0
 11
56.72499999992769
 21
32.48126224221632
 31
0.0
  0
LINE
  5
2E6
  8
LAYER1
 62
   178
 10
74.6249999999277
 20
32.4812622422163
 30
0.0
 11
71.62499999992771
 21
32.4812622422163
 31
0.0
  0
TEXT
  5
2E8
  8
LAYER1
  6
BORDER
 62
   178
 10
74.67220691800186
 20
31.37868006510941
 30
0.0
 40
2.282999992370605
  1
10
  7
TEXT313769
  0
TEXT
  5
2EA
  8
LAYER1
  6
BORDER
 62
   178
 10
64.84166664341477
 20
54.9974335426603
 30
0.0
 40
2.282999992370605
  1
5
  7
TEXT313771
  0
LINE
  5
2EB
  8
LAYER1
 62
   178
 10
65.67499999992768
 20
52.68696454725112
 30
0.0
 11
65.67499999992768
 21
54.68696454725112
 31
0.0
  0
LINE
  5
2EC
  8
LAYER1
 62
   178
 10
60.72499999992768
 20
51.36061604471706
 30
0.0
 11
59.72499999992768
 21
53.09266685228592
 31
0.0
  0
LINE
  5
2ED
  8
LAYER1
 62
   178
 10
57.10134850246174
 20
47.73696454725116
 30
0.0
 11
55.36929769489287
 21
48.73696454725114
 31
0.0
  0
LINE
  5
2EE
  8
LAYER1
 62
   178
 10
55.77499999992768
 20
42.78696454725115
 30
0.0
 11
53.77499999992768
 21
42.78696454725114
 31
0.0
  0
LINE
  5
2EF
  8
LAYER1
 62
   178
 10
57.10134850246174
 20
37.83696454725115
 30
0.0
 11
55.36929769489287
 21
36.83696454725114
 31
0.0
  0
LINE
  5
2F0
  8
LAYER1
 62
   178
 10
60.72499999992768
 20
34.21331304978521
 30
0.0
 11
59.7249999999277
 21
32.48126224221632
 31
0.0
  0
LINE
  5
2F1
  8
LAYER1
 62
   178
 10
70.62499999992768
 20
34.21331304978519
 30
0.0
 11
71.62499999992771
 21
32.4812622422163
 31
0.0
  0
LINE
  5
2F2
  8
LAYER1
 62
   178
 10
74.24865149739362
 20
37.83696454725113
 30
0.0
 11
75.98070230496253
 21
36.83696454725113
 31
0.0
  0
LINE
  5
2F3
  8
LAYER1
 62
   178
 10
75.57499999992768
 20
42.78696454725112
 30
0.0
 11
77.57499999992773
 21
42.78696454725113
 31
0.0
  0
LINE
  5
2F4
  8
LAYER1
 62
   178
 10
74.24865149739365
 20
47.73696454725112
 30
0.0
 11
75.98070230496253
 21
48.73696454725114
 31
0.0
  0
LINE
  5
2F5
  8
LAYER1
 62
   178
 10
70.62499999992771
 20
51.36061604471701
 30
0.0
 11
71.62499999992772
 21
53.09266685228592
 31
0.0
  0
TEXT
  5
2F7
  8
LAYER1
  6
BORDER
 62
   178
 10
54.3845145412994
 20
31.24992677568692
 30
0.0
 40
2.282999992370605
  1
0
  7
TEXT313795
  0
LINE
  5
2F8
  8
LAYER1
 62
   178
 10
59.7249999999277
 20
32.48126224221632
 30
0.0
 11
56.72499999992769
 21
32.48126224221632
 31
0.0
  0
LINE
  5
2F9
  8
LAYER1
 62
   178
 10
74.6249999999277
 20
32.4812622422163
 30
0.0
 11
71.62499999992771
 21
32.4812622422163
 31
0.0
  0
TEXT
  5
2FB
  8
LAYER1
  6
BORDER
 62
   178
 10
74.67220691800186
 20
31.37868006510941
 30
0.0
 40
2.282999992370605
  1
10
  7
TEXT313801
  0
TEXT
  5
2FD
  8
LAYER1
  6
BORDER
 62
   178
 10
64.84166664341477
 20
54.9974335426603
 30
0.0
 40
2.282999992370605
  1
5
  7
TEXT313803
  0
VIEWPORT
  5
41
 67
     1
  8
0
 10
0.0
 20
0.0
 30
0.0
 40
1.0
 41
1.0
 68
     1
 69
     1
1001
ACAD
1000
MVIEW
1002
{
1070
    16
1010
0.0
1020
0.0
1030
0.0
1020
0.0
1030
0.0
1010
0.0
1020
0.0
1030
1.0
1020
0.0
1030
1.0
1040
0.0
1040
1.0
1040
0.0
1040
0.0
1040
50.0
1040
0.0
1040
0.0
1070
     0
1070
   100
1070
     0
1070
     3
1070
     0
1070
     0
1070
     0
1070
     0
1040
0.0
1040
0.0
1040
0.0
1040
0.5
1040
0.5
1040
0.0
1040
0.0
1070
     0
1002
{
1002
}
1002
}
  0
ENDSEC
  0
EOF
