  0
SECTION
  2
HEADER
  9
$ACADVER
  1
AC1009
  9
$MEASUREMENT
  70
1
  9
$INSUNITS
  70
4
  9
$DIMLFAC
  40
0.999999995904
  9
$INSBASE
  10
0.0
  20
0.0
  30
0.0
  9
$EXTMIN
  10
-30.80000110592
  20
-50.800000761856
  9
$EXTMAX
  10
544.40002322432
  20
148.50000420864
  9
$LIMMIN
  10
-30.80000110592
  20
-50.800000761856
  9
$LIMMAX
  10
544.40002322432
  20
148.50000420864
  9
$CLAYER
  8
0
  0
ENDSEC
  0
SECTION
  2
TABLES
  0
TABLE
  2
LTYPE
  70
2
  0
LTYPE
  2
CONTINUOUS
  70
65
  3
Solid line
  72
65
  73
0
  40
0
  0
LTYPE
  2
DASHED
  70
65
  3
 _ _ _ _ _ _ _ _ _ _ _ _ _ _ _ _ _ _ _ _ _ _
  72
65
  73
2
  40
1.999999991808
  49
0.999999995904
  49
-0.999999995904
  0
ENDTAB
  0
TABLE
  2
LAYER
  70
1
  0
LAYER
  2
0
  70
0
  62
7
  6
CONTINUOUS
  0
ENDTAB
  0
ENDSEC
  0
SECTION
  2
BLOCKS
  0
ENDSEC
  0
SECTION
  2
ENTITIES
  0
CIRCLE
  8
0
  10
50.300006170624
  20
66.000045211648
  30
0
  40
4.749999996928
  0
CIRCLE
  8
0
  10
50.300006170624
  20
116.000045400064
  30
0
  40
4.749999996928
  0
CIRCLE
  8
0
  10
50.299997782016
  20
128.500002455552
  30
0
  40
1.650000003072
  0
CIRCLE
  8
0
  10
50.299997782016
  20
78.499998072832
  30
0
  40
1.650000003072
  0
CIRCLE
  8
0
  10
28.299998789632
  20
37.500001189888
  30
0
  40
3.050000089088
  0
CIRCLE
  8
0
  10
42.79999922176
  20
37.500001189888
  30
0
  40
3.050000089088
  0
CIRCLE
  8
0
  10
57.800000536576
  20
37.500001189888
  30
0
  40
3.050000089088
  0
CIRCLE
  8
0
  10
72.300003065856
  20
37.500001189888
  30
0
  40
3.050000089088
  0
CIRCLE
  8
0
  10
30.29999812608
  20
128.500002455552
  30
0
  40
3.75000006656
  0
CIRCLE
  8
0
  10
70.300003729408
  20
128.500002455552
  30
0
  40
3.75000006656
  0
CIRCLE
  8
0
  10
70.300003729408
  20
103.499996069888
  30
0
  40
3.75000006656
  0
CIRCLE
  8
0
  10
30.29999812608
  20
103.499996069888
  30
0
  40
3.75000006656
  0
CIRCLE
  8
0
  10
30.29999812608
  20
78.499998072832
  30
0
  40
3.75000006656
  0
CIRCLE
  8
0
  10
70.300003729408
  20
78.499998072832
  30
0
  40
3.75000006656
  0
CIRCLE
  8
0
  10
70.300003729408
  20
53.500000075776
  30
0
  40
3.75000006656
  0
CIRCLE
  8
0
  10
30.29999812608
  20
53.500000075776
  30
0
  40
3.75000006656
  0
LINE
  8
0
  10
26
  20
21.39999961853
  30
0
  11
29
  21
21.39999961853
  31
0
  0
ARC
  8
0
  10
29
  20
23
  30
0
  40
1.6
  50
270
  51
450
  0
LINE
  8
0
  10
29
  20
24.60000038147
  30
0
  11
26
  21
24.60000038147
  31
0
  0
ARC
  8
0
  10
26
  20
23
  30
0
  40
1.6
  50
90
  51
270
  0
LINE
  8
0
  10
26
  20
143.899993896484
  30
0
  11
29
  21
143.899993896484
  31
0
  0
ARC
  8
0
  10
29
  20
145.5
  30
0
  40
1.6
  50
270
  51
450
  0
LINE
  8
0
  10
29
  20
147.100006103516
  30
0
  11
26
  21
147.100006103516
  31
0
  0
ARC
  8
0
  10
26
  20
145.5
  30
0
  40
1.6
  50
90
  51
270
  0
LINE
  8
0
  10
66.639999389648
  20
143.899993896484
  30
0
  11
69.639999389648
  21
143.899993896484
  31
0
  0
ARC
  8
0
  10
69.639999389648
  20
145.5
  30
0
  40
1.6
  50
270
  51
450
  0
LINE
  8
0
  10
69.639999389648
  20
147.100006103516
  30
0
  11
66.639999389648
  21
147.100006103516
  31
0
  0
ARC
  8
0
  10
66.639999389648
  20
145.5
  30
0
  40
1.6
  50
90
  51
270
  0
LINE
  8
0
  10
66.639999389648
  20
21.39999961853
  30
0
  11
69.639999389648
  21
21.39999961853
  31
0
  0
ARC
  8
0
  10
69.639999389648
  20
23
  30
0
  40
1.6
  50
270
  51
450
  0
LINE
  8
0
  10
69.639999389648
  20
24.60000038147
  30
0
  11
66.639999389648
  21
24.60000038147
  31
0
  0
ARC
  8
0
  10
66.639999389648
  20
23
  30
0
  40
1.6
  50
90
  51
270
  0
LINE
  8
0
  10
20
  20
20
  30
1.5875
  11
80.6
  21
20
  31
1.5875
  0
LINE
  8
0
  10
80.599998474121
  20
20
  30
1.5875
  11
80.599998474121
  21
148.5
  31
1.5875
  0
LINE
  8
0
  10
80.599998474121
  20
148.5
  30
1.5875
  11
19.999998474121
  21
148.5
  31
1.5875
  0
LINE
  8
0
  10
20
  20
148.5
  30
1.5875
  11
20
  21
20
  31
1.5875
  0
TEXT
  8
0
  40
2.54
  72
0
  10
46.799999237061
  20
10
  30
0
  1
Top
  50
0
  0
LINE
  8
0
  6
DASHED
  10
85.60000038147
  20
148.5
  30
1.5875
  11
146.20000038147
  21
148.5
  31
1.5875
  0
LINE
  8
0
  6
DASHED
  10
146.199998855591
  20
148.5
  30
1.5875
  11
146.199998855591
  21
20
  31
1.5875
  0
LINE
  8
0
  6
DASHED
  10
146.199998855591
  20
20
  30
1.5875
  11
85.599998855591
  21
20
  31
1.5875
  0
LINE
  8
0
  6
DASHED
  10
85.60000038147
  20
20
  30
1.5875
  11
85.60000038147
  21
148.5
  31
1.5875
  0
CIRCLE
  8
0
  10
115.900007247925
  20
102.499954223633
  30
1.5875
  40
4.75
  0
CIRCLE
  8
0
  10
115.900007247925
  20
52.499954223633
  30
1.5875
  40
4.75
  0
CIRCLE
  8
0
  10
95.89999961853
  20
90
  30
1.5875
  40
3.75
  0
CIRCLE
  8
0
  10
95.89999961853
  20
65
  30
1.5875
  40
3.75
  0
CIRCLE
  8
0
  10
135.900003433228
  20
65
  30
1.5875
  40
3.75
  0
CIRCLE
  8
0
  10
95.89999961853
  20
115
  30
1.5875
  40
3.75
  0
CIRCLE
  8
0
  10
135.900003433228
  20
115
  30
1.5875
  40
3.75
  0
CIRCLE
  8
0
  10
135.900003433228
  20
90
  30
1.5875
  40
3.75
  0
CIRCLE
  8
0
  10
135.900003433228
  20
40
  30
1.5875
  40
3.75
  0
CIRCLE
  8
0
  10
95.89999961853
  20
40
  30
1.5875
  40
3.75
  0
CIRCLE
  8
0
  10
108.39999961853
  20
131
  30
1.5875
  40
3.05
  0
CIRCLE
  8
0
  10
93.89999961853
  20
131
  30
1.5875
  40
3.05
  0
CIRCLE
  8
0
  10
137.900003433228
  20
131
  30
1.5875
  40
3.05
  0
CIRCLE
  8
0
  10
123.39999961853
  20
131
  30
1.5875
  40
3.05
  0
LINE
  8
0
  10
91.60000038147
  20
24.600006103516
  30
1.5875
  11
94.60000038147
  21
24.600006103516
  31
1.5875
  0
ARC
  8
0
  10
94.60000038147
  20
23
  30
1.5875
  40
1.6
  50
270
  51
450
  0
LINE
  8
0
  10
94.60000038147
  20
21.399993896484
  30
1.5875
  11
91.60000038147
  21
21.399993896484
  31
1.5875
  0
ARC
  8
0
  10
91.60000038147
  20
23
  30
1.5875
  40
1.6
  50
90
  51
270
  0
LINE
  8
0
  10
91.60000038147
  20
147.10000038147
  30
1.5875
  11
94.60000038147
  21
147.10000038147
  31
1.5875
  0
ARC
  8
0
  10
94.60000038147
  20
145.5
  30
1.5875
  40
1.6
  50
270
  51
450
  0
LINE
  8
0
  10
94.60000038147
  20
143.89999961853
  30
1.5875
  11
91.60000038147
  21
143.89999961853
  31
1.5875
  0
ARC
  8
0
  10
91.60000038147
  20
145.5
  30
1.5875
  40
1.6
  50
90
  51
270
  0
LINE
  8
0
  10
132.239999771118
  20
147.10000038147
  30
1.5875
  11
135.239999771118
  21
147.10000038147
  31
1.5875
  0
ARC
  8
0
  10
135.239999771118
  20
145.5
  30
1.5875
  40
1.6
  50
270
  51
450
  0
LINE
  8
0
  10
135.239999771118
  20
143.89999961853
  30
1.5875
  11
132.239999771118
  21
143.89999961853
  31
1.5875
  0
ARC
  8
0
  10
132.239999771118
  20
145.5
  30
1.5875
  40
1.6
  50
90
  51
270
  0
LINE
  8
0
  10
132.239999771118
  20
24.600006103516
  30
1.5875
  11
135.239999771118
  21
24.600006103516
  31
1.5875
  0
ARC
  8
0
  10
135.239999771118
  20
23
  30
1.5875
  40
1.6
  50
270
  51
450
  0
LINE
  8
0
  10
135.239999771118
  20
21.399993896484
  30
1.5875
  11
132.239999771118
  21
21.399993896484
  31
1.5875
  0
ARC
  8
0
  10
132.239999771118
  20
23
  30
1.5875
  40
1.6
  50
90
  51
270
  0
CIRCLE
  8
0
  10
115.89999961853
  20
40
  30
1.5875
  40
1.65
  0
CIRCLE
  8
0
  10
115.89999961853
  20
90
  30
1.5875
  40
1.65
  0
TEXT
  8
0
  40
2.54
  72
0
  10
112.399998664856
  20
10
  30
0
  1
Bottom
  50
0
  0
LINE
  8
0
  10
279.699998855591
  20
21.587499976158
  30
60.599998474121
  11
279.699998855591
  21
20
  31
60.599998474121
  0
LINE
  8
0
  10
151.199998855591
  20
20
  30
60.599998474121
  11
151.199998855591
  21
21.587499976158
  31
60.599998474121
  0
LINE
  8
0
  10
151.199998855591
  20
21.587499976158
  30
60.599998474121
  11
279.699998855591
  21
21.587499976158
  31
60.599998474121
  0
LINE
  8
0
  10
279.699998855591
  20
20
  30
60.599998474121
  11
151.199998855591
  21
20
  31
60.599998474121
  0
LINE
  8
0
  6
DASHED
  10
188.449953079224
  20
21.587499976158
  30
35.049991607666
  11
188.449953079224
  21
20
  31
35.049991607666
  0
LINE
  8
0
  6
DASHED
  10
178.949953079224
  20
20
  30
35.049991607666
  11
178.949953079224
  21
21.587499976158
  31
35.049991607666
  0
LINE
  8
0
  6
DASHED
  10
178.949953079224
  20
21.587499976158
  30
35.049991607666
  11
188.449953079224
  21
21.587499976158
  31
35.049991607666
  0
LINE
  8
0
  6
DASHED
  10
188.449953079224
  20
20
  30
35.049991607666
  11
178.949953079224
  21
20
  31
35.049991607666
  0
LINE
  8
0
  6
DASHED
  10
238.449953079224
  20
21.587499976158
  30
35.049991607666
  11
238.449953079224
  21
20
  31
35.049991607666
  0
LINE
  8
0
  6
DASHED
  10
228.949953079224
  20
20
  30
35.049991607666
  11
228.949953079224
  21
21.587499976158
  31
35.049991607666
  0
LINE
  8
0
  6
DASHED
  10
228.949953079224
  20
21.587499976158
  30
35.049991607666
  11
238.449953079224
  21
21.587499976158
  31
35.049991607666
  0
LINE
  8
0
  6
DASHED
  10
238.449953079224
  20
20
  30
35.049991607666
  11
228.949953079224
  21
20
  31
35.049991607666
  0
LINE
  8
0
  6
DASHED
  10
224.949998855591
  20
21.587499976158
  30
14.049995422363
  11
224.949998855591
  21
20
  31
14.049995422363
  0
LINE
  8
0
  6
DASHED
  10
217.449998855591
  20
20
  30
14.049995422363
  11
217.449998855591
  21
21.587499976158
  31
14.049995422363
  0
LINE
  8
0
  6
DASHED
  10
217.449998855591
  20
21.587499976158
  30
14.049995422363
  11
224.949998855591
  21
21.587499976158
  31
14.049995422363
  0
LINE
  8
0
  6
DASHED
  10
224.949998855591
  20
20
  30
14.049995422363
  11
217.449998855591
  21
20
  31
14.049995422363
  0
LINE
  8
0
  6
DASHED
  10
249.949998855591
  20
21.587499976158
  30
14.049995422363
  11
249.949998855591
  21
20
  31
14.049995422363
  0
LINE
  8
0
  6
DASHED
  10
242.449998855591
  20
20
  30
14.049995422363
  11
242.449998855591
  21
21.587499976158
  31
14.049995422363
  0
LINE
  8
0
  6
DASHED
  10
242.449998855591
  20
21.587499976158
  30
14.049995422363
  11
249.949998855591
  21
21.587499976158
  31
14.049995422363
  0
LINE
  8
0
  6
DASHED
  10
249.949998855591
  20
20
  30
14.049995422363
  11
242.449998855591
  21
20
  31
14.049995422363
  0
LINE
  8
0
  6
DASHED
  10
174.949998855591
  20
21.587499976158
  30
54.049999237061
  11
174.949998855591
  21
20
  31
54.049999237061
  0
LINE
  8
0
  6
DASHED
  10
167.449998855591
  20
20
  30
54.049999237061
  11
167.449998855591
  21
21.587499976158
  31
54.049999237061
  0
LINE
  8
0
  6
DASHED
  10
167.449998855591
  20
21.587499976158
  30
54.049999237061
  11
174.949998855591
  21
21.587499976158
  31
54.049999237061
  0
LINE
  8
0
  6
DASHED
  10
174.949998855591
  20
20
  30
54.049999237061
  11
167.449998855591
  21
20
  31
54.049999237061
  0
LINE
  8
0
  6
DASHED
  10
174.949998855591
  20
21.587499976158
  30
14.049995422363
  11
174.949998855591
  21
20
  31
14.049995422363
  0
LINE
  8
0
  6
DASHED
  10
167.449998855591
  20
20
  30
14.049995422363
  11
167.449998855591
  21
21.587499976158
  31
14.049995422363
  0
LINE
  8
0
  6
DASHED
  10
167.449998855591
  20
21.587499976158
  30
14.049995422363
  11
174.949998855591
  21
21.587499976158
  31
14.049995422363
  0
LINE
  8
0
  6
DASHED
  10
174.949998855591
  20
20
  30
14.049995422363
  11
167.449998855591
  21
20
  31
14.049995422363
  0
LINE
  8
0
  6
DASHED
  10
199.949998855591
  20
21.587499976158
  30
54.049999237061
  11
199.949998855591
  21
20
  31
54.049999237061
  0
LINE
  8
0
  6
DASHED
  10
192.449998855591
  20
20
  30
54.049999237061
  11
192.449998855591
  21
21.587499976158
  31
54.049999237061
  0
LINE
  8
0
  6
DASHED
  10
192.449998855591
  20
21.587499976158
  30
54.049999237061
  11
199.949998855591
  21
21.587499976158
  31
54.049999237061
  0
LINE
  8
0
  6
DASHED
  10
199.949998855591
  20
20
  30
54.049999237061
  11
192.449998855591
  21
20
  31
54.049999237061
  0
LINE
  8
0
  6
DASHED
  10
224.949998855591
  20
21.587499976158
  30
54.049999237061
  11
224.949998855591
  21
20
  31
54.049999237061
  0
LINE
  8
0
  6
DASHED
  10
217.449998855591
  20
20
  30
54.049999237061
  11
217.449998855591
  21
21.587499976158
  31
54.049999237061
  0
LINE
  8
0
  6
DASHED
  10
217.449998855591
  20
21.587499976158
  30
54.049999237061
  11
224.949998855591
  21
21.587499976158
  31
54.049999237061
  0
LINE
  8
0
  6
DASHED
  10
224.949998855591
  20
20
  30
54.049999237061
  11
217.449998855591
  21
20
  31
54.049999237061
  0
LINE
  8
0
  6
DASHED
  10
249.949998855591
  20
21.587499976158
  30
54.049999237061
  11
249.949998855591
  21
20
  31
54.049999237061
  0
LINE
  8
0
  6
DASHED
  10
242.449998855591
  20
20
  30
54.049999237061
  11
242.449998855591
  21
21.587499976158
  31
54.049999237061
  0
LINE
  8
0
  6
DASHED
  10
242.449998855591
  20
21.587499976158
  30
54.049999237061
  11
249.949998855591
  21
21.587499976158
  31
54.049999237061
  0
LINE
  8
0
  6
DASHED
  10
249.949998855591
  20
20
  30
54.049999237061
  11
242.449998855591
  21
20
  31
54.049999237061
  0
LINE
  8
0
  6
DASHED
  10
199.949998855591
  20
21.587499976158
  30
14.049995422363
  11
199.949998855591
  21
20
  31
14.049995422363
  0
LINE
  8
0
  6
DASHED
  10
192.449998855591
  20
20
  30
14.049995422363
  11
192.449998855591
  21
21.587499976158
  31
14.049995422363
  0
LINE
  8
0
  6
DASHED
  10
192.449998855591
  20
21.587499976158
  30
14.049995422363
  11
199.949998855591
  21
21.587499976158
  31
14.049995422363
  0
LINE
  8
0
  6
DASHED
  10
199.949998855591
  20
20
  30
14.049995422363
  11
192.449998855591
  21
20
  31
14.049995422363
  0
LINE
  8
0
  6
DASHED
  10
265.249998092651
  20
21.587499976158
  30
11.349998474121
  11
265.249998092651
  21
20
  31
11.349998474121
  0
LINE
  8
0
  6
DASHED
  10
259.14999961853
  20
20
  30
11.349998474121
  11
259.14999961853
  21
21.587499976158
  31
11.349998474121
  0
LINE
  8
0
  6
DASHED
  10
259.14999961853
  20
21.587499976158
  30
11.349998474121
  11
265.249998092651
  21
21.587499976158
  31
11.349998474121
  0
LINE
  8
0
  6
DASHED
  10
265.249998092651
  20
20
  30
11.349998474121
  11
259.14999961853
  21
20
  31
11.349998474121
  0
LINE
  8
0
  6
DASHED
  10
265.249998092651
  20
21.587499976158
  30
25.849998474121
  11
265.249998092651
  21
20
  31
25.849998474121
  0
LINE
  8
0
  6
DASHED
  10
259.14999961853
  20
20
  30
25.849998474121
  11
259.14999961853
  21
21.587499976158
  31
25.849998474121
  0
LINE
  8
0
  6
DASHED
  10
259.14999961853
  20
21.587499976158
  30
25.849998474121
  11
265.249998092651
  21
21.587499976158
  31
25.849998474121
  0
LINE
  8
0
  6
DASHED
  10
265.249998092651
  20
20
  30
25.849998474121
  11
259.14999961853
  21
20
  31
25.849998474121
  0
LINE
  8
0
  6
DASHED
  10
265.249998092651
  20
21.587499976158
  30
40.849998474121
  11
265.249998092651
  21
20
  31
40.849998474121
  0
LINE
  8
0
  6
DASHED
  10
259.14999961853
  20
20
  30
40.849998474121
  11
259.14999961853
  21
21.587499976158
  31
40.849998474121
  0
LINE
  8
0
  6
DASHED
  10
259.14999961853
  20
21.587499976158
  30
40.849998474121
  11
265.249998092651
  21
21.587499976158
  31
40.849998474121
  0
LINE
  8
0
  6
DASHED
  10
265.249998092651
  20
20
  30
40.849998474121
  11
259.14999961853
  21
20
  31
40.849998474121
  0
LINE
  8
0
  6
DASHED
  10
265.249998092651
  20
21.587499976158
  30
55.349998474121
  11
265.249998092651
  21
20
  31
55.349998474121
  0
LINE
  8
0
  6
DASHED
  10
259.14999961853
  20
20
  30
55.349998474121
  11
259.14999961853
  21
21.587499976158
  31
55.349998474121
  0
LINE
  8
0
  6
DASHED
  10
259.14999961853
  20
21.587499976158
  30
55.349998474121
  11
265.249998092651
  21
21.587499976158
  31
55.349998474121
  0
LINE
  8
0
  6
DASHED
  10
265.249998092651
  20
20
  30
55.349998474121
  11
259.14999961853
  21
20
  31
55.349998474121
  0
LINE
  8
0
  6
DASHED
  10
155.800004959106
  20
21.587499976158
  30
56.199996948242
  11
155.800004959106
  21
20
  31
56.199996948242
  0
LINE
  8
0
  6
DASHED
  10
152.599992752075
  20
20
  30
56.199996948242
  11
152.599992752075
  21
21.587499976158
  31
56.199996948242
  0
LINE
  8
0
  6
DASHED
  10
152.599992752075
  20
21.587499976158
  30
56.199996948242
  11
155.800004959106
  21
21.587499976158
  31
56.199996948242
  0
LINE
  8
0
  6
DASHED
  10
155.800004959106
  20
20
  30
56.199996948242
  11
152.599992752075
  21
20
  31
56.199996948242
  0
LINE
  8
0
  6
DASHED
  10
278.299999237061
  20
21.587499976158
  30
56.199996948242
  11
278.299999237061
  21
20
  31
56.199996948242
  0
LINE
  8
0
  6
DASHED
  10
275.099998474121
  20
20
  30
56.199996948242
  11
275.099998474121
  21
21.587499976158
  31
56.199996948242
  0
LINE
  8
0
  6
DASHED
  10
275.099998474121
  20
21.587499976158
  30
56.199996948242
  11
278.299999237061
  21
21.587499976158
  31
56.199996948242
  0
LINE
  8
0
  6
DASHED
  10
278.299999237061
  20
20
  30
56.199996948242
  11
275.099998474121
  21
20
  31
56.199996948242
  0
LINE
  8
0
  6
DASHED
  10
278.299999237061
  20
21.587499976158
  30
15.559997558594
  11
278.299999237061
  21
20
  31
15.559997558594
  0
LINE
  8
0
  6
DASHED
  10
275.099998474121
  20
20
  30
15.559997558594
  11
275.099998474121
  21
21.587499976158
  31
15.559997558594
  0
LINE
  8
0
  6
DASHED
  10
275.099998474121
  20
21.587499976158
  30
15.559997558594
  11
278.299999237061
  21
21.587499976158
  31
15.559997558594
  0
LINE
  8
0
  6
DASHED
  10
278.299999237061
  20
20
  30
15.559997558594
  11
275.099998474121
  21
20
  31
15.559997558594
  0
LINE
  8
0
  6
DASHED
  10
155.800004959106
  20
21.587499976158
  30
15.559997558594
  11
155.800004959106
  21
20
  31
15.559997558594
  0
LINE
  8
0
  6
DASHED
  10
152.599992752075
  20
20
  30
15.559997558594
  11
152.599992752075
  21
21.587499976158
  31
15.559997558594
  0
LINE
  8
0
  6
DASHED
  10
152.599992752075
  20
21.587499976158
  30
15.559997558594
  11
155.800004959106
  21
21.587499976158
  31
15.559997558594
  0
LINE
  8
0
  6
DASHED
  10
155.800004959106
  20
20
  30
15.559997558594
  11
152.599992752075
  21
20
  31
15.559997558594
  0
LINE
  8
0
  6
DASHED
  10
222.85000038147
  20
21.587499976158
  30
31.950000762939
  11
222.85000038147
  21
20
  31
31.950000762939
  0
LINE
  8
0
  6
DASHED
  10
219.549997329712
  20
20
  30
31.950000762939
  11
219.549997329712
  21
21.587499976158
  31
31.950000762939
  0
LINE
  8
0
  6
DASHED
  10
219.549997329712
  20
21.587499976158
  30
31.950000762939
  11
222.85000038147
  21
21.587499976158
  31
31.950000762939
  0
LINE
  8
0
  6
DASHED
  10
222.85000038147
  20
20
  30
31.950000762939
  11
219.549997329712
  21
20
  31
31.950000762939
  0
LINE
  8
0
  6
DASHED
  10
172.849992752075
  20
21.587499976158
  30
31.950000762939
  11
172.849992752075
  21
20
  31
31.950000762939
  0
LINE
  8
0
  6
DASHED
  10
169.550004959106
  20
20
  30
31.950000762939
  11
169.550004959106
  21
21.587499976158
  31
31.950000762939
  0
LINE
  8
0
  6
DASHED
  10
169.549997329712
  20
21.587499976158
  30
31.950000762939
  11
172.849992752075
  21
21.587499976158
  31
31.950000762939
  0
LINE
  8
0
  6
DASHED
  10
172.849992752075
  20
20
  30
31.950000762939
  11
169.549997329712
  21
20
  31
31.950000762939
  0
TEXT
  8
0
  40
2.54
  72
0
  10
211.949998855591
  20
10
  30
0
  1
Left
  50
0
  0
LINE
  8
0
  10
284.699998855591
  20
21.587499976158
  30
60.599998474121
  11
284.699998855591
  21
20
  31
60.599998474121
  0
LINE
  8
0
  10
413.199998855591
  20
20
  30
60.599998474121
  11
413.199998855591
  21
21.587499976158
  31
60.599998474121
  0
LINE
  8
0
  10
413.199998855591
  20
21.587499976158
  30
60.599998474121
  11
284.699998855591
  21
21.587499976158
  31
60.599998474121
  0
LINE
  8
0
  10
284.699998855591
  20
20
  30
60.599998474121
  11
413.199998855591
  21
20
  31
60.599998474121
  0
LINE
  8
0
  6
DASHED
  10
375.950044631958
  20
21.587499976158
  30
35.050010681152
  11
375.950044631958
  21
20
  31
35.050010681152
  0
LINE
  8
0
  6
DASHED
  10
385.450044631958
  20
20
  30
35.050010681152
  11
385.450044631958
  21
21.587499976158
  31
35.050010681152
  0
LINE
  8
0
  6
DASHED
  10
385.450044631958
  20
21.587499976158
  30
35.050010681152
  11
375.950044631958
  21
21.587499976158
  31
35.050010681152
  0
LINE
  8
0
  6
DASHED
  10
375.950044631958
  20
20
  30
35.050010681152
  11
385.450044631958
  21
20
  31
35.050010681152
  0
LINE
  8
0
  6
DASHED
  10
325.950044631958
  20
21.587499976158
  30
35.050010681152
  11
325.950044631958
  21
20
  31
35.050010681152
  0
LINE
  8
0
  6
DASHED
  10
335.450044631958
  20
20
  30
35.050010681152
  11
335.450044631958
  21
21.587499976158
  31
35.050010681152
  0
LINE
  8
0
  6
DASHED
  10
335.450044631958
  20
21.587499976158
  30
35.050010681152
  11
325.950044631958
  21
21.587499976158
  31
35.050010681152
  0
LINE
  8
0
  6
DASHED
  10
325.950044631958
  20
20
  30
35.050010681152
  11
335.450044631958
  21
20
  31
35.050010681152
  0
LINE
  8
0
  6
DASHED
  10
339.449998855591
  20
21.587499976158
  30
54.050003051758
  11
339.449998855591
  21
20
  31
54.050003051758
  0
LINE
  8
0
  6
DASHED
  10
346.949998855591
  20
20
  30
54.050003051758
  11
346.949998855591
  21
21.587499976158
  31
54.050003051758
  0
LINE
  8
0
  6
DASHED
  10
346.949998855591
  20
21.587499976158
  30
54.050003051758
  11
339.449998855591
  21
21.587499976158
  31
54.050003051758
  0
LINE
  8
0
  6
DASHED
  10
339.449998855591
  20
20
  30
54.050003051758
  11
346.949998855591
  21
20
  31
54.050003051758
  0
LINE
  8
0
  6
DASHED
  10
314.449998855591
  20
21.587499976158
  30
54.050003051758
  11
314.449998855591
  21
20
  31
54.050003051758
  0
LINE
  8
0
  6
DASHED
  10
321.949998855591
  20
20
  30
54.050003051758
  11
321.949998855591
  21
21.587499976158
  31
54.050003051758
  0
LINE
  8
0
  6
DASHED
  10
321.949998855591
  20
21.587499976158
  30
54.050003051758
  11
314.449998855591
  21
21.587499976158
  31
54.050003051758
  0
LINE
  8
0
  6
DASHED
  10
314.449998855591
  20
20
  30
54.050003051758
  11
321.949998855591
  21
20
  31
54.050003051758
  0
LINE
  8
0
  6
DASHED
  10
389.449998855591
  20
21.587499976158
  30
14.050001144409
  11
389.449998855591
  21
20
  31
14.050001144409
  0
LINE
  8
0
  6
DASHED
  10
396.949998855591
  20
20
  30
14.050001144409
  11
396.949998855591
  21
21.587499976158
  31
14.050001144409
  0
LINE
  8
0
  6
DASHED
  10
396.949998855591
  20
21.587499976158
  30
14.050001144409
  11
389.449998855591
  21
21.587499976158
  31
14.050001144409
  0
LINE
  8
0
  6
DASHED
  10
389.449998855591
  20
20
  30
14.050001144409
  11
396.949998855591
  21
20
  31
14.050001144409
  0
LINE
  8
0
  6
DASHED
  10
389.449998855591
  20
21.587499976158
  30
54.050003051758
  11
389.449998855591
  21
20
  31
54.050003051758
  0
LINE
  8
0
  6
DASHED
  10
396.949998855591
  20
20
  30
54.050003051758
  11
396.949998855591
  21
21.587499976158
  31
54.050003051758
  0
LINE
  8
0
  6
DASHED
  10
396.949998855591
  20
21.587499976158
  30
54.050003051758
  11
389.449998855591
  21
21.587499976158
  31
54.050003051758
  0
LINE
  8
0
  6
DASHED
  10
389.449998855591
  20
20
  30
54.050003051758
  11
396.949998855591
  21
20
  31
54.050003051758
  0
LINE
  8
0
  6
DASHED
  10
364.449998855591
  20
21.587499976158
  30
14.050001144409
  11
364.449998855591
  21
20
  31
14.050001144409
  0
LINE
  8
0
  6
DASHED
  10
371.949998855591
  20
20
  30
14.050001144409
  11
371.949998855591
  21
21.587499976158
  31
14.050001144409
  0
LINE
  8
0
  6
DASHED
  10
371.949998855591
  20
21.587499976158
  30
14.050001144409
  11
364.449998855591
  21
21.587499976158
  31
14.050001144409
  0
LINE
  8
0
  6
DASHED
  10
364.449998855591
  20
20
  30
14.050001144409
  11
371.949998855591
  21
20
  31
14.050001144409
  0
LINE
  8
0
  6
DASHED
  10
339.449998855591
  20
21.587499976158
  30
14.050001144409
  11
339.449998855591
  21
20
  31
14.050001144409
  0
LINE
  8
0
  6
DASHED
  10
346.949998855591
  20
20
  30
14.050001144409
  11
346.949998855591
  21
21.587499976158
  31
14.050001144409
  0
LINE
  8
0
  6
DASHED
  10
346.949998855591
  20
21.587499976158
  30
14.050001144409
  11
339.449998855591
  21
21.587499976158
  31
14.050001144409
  0
LINE
  8
0
  6
DASHED
  10
339.449998855591
  20
20
  30
14.050001144409
  11
346.949998855591
  21
20
  31
14.050001144409
  0
LINE
  8
0
  6
DASHED
  10
314.449998855591
  20
21.587499976158
  30
14.050001144409
  11
314.449998855591
  21
20
  31
14.050001144409
  0
LINE
  8
0
  6
DASHED
  10
321.949998855591
  20
20
  30
14.050001144409
  11
321.949998855591
  21
21.587499976158
  31
14.050001144409
  0
LINE
  8
0
  6
DASHED
  10
321.949998855591
  20
21.587499976158
  30
14.050001144409
  11
314.449998855591
  21
21.587499976158
  31
14.050001144409
  0
LINE
  8
0
  6
DASHED
  10
314.449998855591
  20
20
  30
14.050001144409
  11
321.949998855591
  21
20
  31
14.050001144409
  0
LINE
  8
0
  6
DASHED
  10
364.449998855591
  20
21.587499976158
  30
54.050003051758
  11
364.449998855591
  21
20
  31
54.050003051758
  0
LINE
  8
0
  6
DASHED
  10
371.949998855591
  20
20
  30
54.050003051758
  11
371.949998855591
  21
21.587499976158
  31
54.050003051758
  0
LINE
  8
0
  6
DASHED
  10
371.949998855591
  20
21.587499976158
  30
54.050003051758
  11
364.449998855591
  21
21.587499976158
  31
54.050003051758
  0
LINE
  8
0
  6
DASHED
  10
364.449998855591
  20
20
  30
54.050003051758
  11
371.949998855591
  21
20
  31
54.050003051758
  0
LINE
  8
0
  6
DASHED
  10
299.14999961853
  20
21.587499976158
  30
55.350006103516
  11
299.14999961853
  21
20
  31
55.350006103516
  0
LINE
  8
0
  6
DASHED
  10
305.249998092651
  20
20
  30
55.350006103516
  11
305.249998092651
  21
21.587499976158
  31
55.350006103516
  0
LINE
  8
0
  6
DASHED
  10
305.249998092651
  20
21.587499976158
  30
55.350006103516
  11
299.14999961853
  21
21.587499976158
  31
55.350006103516
  0
LINE
  8
0
  6
DASHED
  10
299.14999961853
  20
20
  30
55.350006103516
  11
305.249998092651
  21
20
  31
55.350006103516
  0
LINE
  8
0
  6
DASHED
  10
299.14999961853
  20
21.587499976158
  30
40.849998474121
  11
299.14999961853
  21
20
  31
40.849998474121
  0
LINE
  8
0
  6
DASHED
  10
305.249998092651
  20
20
  30
40.849998474121
  11
305.249998092651
  21
21.587499976158
  31
40.849998474121
  0
LINE
  8
0
  6
DASHED
  10
305.249998092651
  20
21.587499976158
  30
40.849998474121
  11
299.14999961853
  21
21.587499976158
  31
40.849998474121
  0
LINE
  8
0
  6
DASHED
  10
299.14999961853
  20
20
  30
40.849998474121
  11
305.249998092651
  21
20
  31
40.849998474121
  0
LINE
  8
0
  6
DASHED
  10
299.14999961853
  20
21.587499976158
  30
25.85000038147
  11
299.14999961853
  21
20
  31
25.85000038147
  0
LINE
  8
0
  6
DASHED
  10
305.249998092651
  20
20
  30
25.85000038147
  11
305.249998092651
  21
21.587499976158
  31
25.85000038147
  0
LINE
  8
0
  6
DASHED
  10
305.249998092651
  20
21.587499976158
  30
25.85000038147
  11
299.14999961853
  21
21.587499976158
  31
25.85000038147
  0
LINE
  8
0
  6
DASHED
  10
299.14999961853
  20
20
  30
25.85000038147
  11
305.249998092651
  21
20
  31
25.85000038147
  0
LINE
  8
0
  6
DASHED
  10
299.14999961853
  20
21.587499976158
  30
11.35000038147
  11
299.14999961853
  21
20
  31
11.35000038147
  0
LINE
  8
0
  6
DASHED
  10
305.249998092651
  20
20
  30
11.35000038147
  11
305.249998092651
  21
21.587499976158
  31
11.35000038147
  0
LINE
  8
0
  6
DASHED
  10
305.249998092651
  20
21.587499976158
  30
11.35000038147
  11
299.14999961853
  21
21.587499976158
  31
11.35000038147
  0
LINE
  8
0
  6
DASHED
  10
299.14999961853
  20
20
  30
11.35000038147
  11
305.249998092651
  21
20
  31
11.35000038147
  0
LINE
  8
0
  6
DASHED
  10
408.599992752075
  20
21.587499976158
  30
10.600002288818
  11
408.599992752075
  21
20
  31
10.600002288818
  0
LINE
  8
0
  6
DASHED
  10
411.800004959106
  20
20
  30
10.600002288818
  11
411.800004959106
  21
21.587499976158
  31
10.600002288818
  0
LINE
  8
0
  6
DASHED
  10
411.800004959106
  20
21.587499976158
  30
10.600002288818
  11
408.599992752075
  21
21.587499976158
  31
10.600002288818
  0
LINE
  8
0
  6
DASHED
  10
408.599992752075
  20
20
  30
10.600002288818
  11
411.800004959106
  21
20
  31
10.600002288818
  0
LINE
  8
0
  6
DASHED
  10
286.099998474121
  20
21.587499976158
  30
10.600002288818
  11
286.099998474121
  21
20
  31
10.600002288818
  0
LINE
  8
0
  6
DASHED
  10
289.299999237061
  20
20
  30
10.600002288818
  11
289.299999237061
  21
21.587499976158
  31
10.600002288818
  0
LINE
  8
0
  6
DASHED
  10
289.299999237061
  20
21.587499976158
  30
10.600002288818
  11
286.099998474121
  21
21.587499976158
  31
10.600002288818
  0
LINE
  8
0
  6
DASHED
  10
286.099998474121
  20
20
  30
10.600002288818
  11
289.299999237061
  21
20
  31
10.600002288818
  0
LINE
  8
0
  6
DASHED
  10
286.099998474121
  20
21.587499976158
  30
51.23999786377
  11
286.099998474121
  21
20
  31
51.23999786377
  0
LINE
  8
0
  6
DASHED
  10
289.299999237061
  20
20
  30
51.23999786377
  11
289.299999237061
  21
21.587499976158
  31
51.23999786377
  0
LINE
  8
0
  6
DASHED
  10
289.299999237061
  20
21.587499976158
  30
51.23999786377
  11
286.099998474121
  21
21.587499976158
  31
51.23999786377
  0
LINE
  8
0
  6
DASHED
  10
286.099998474121
  20
20
  30
51.23999786377
  11
289.299999237061
  21
20
  31
51.23999786377
  0
LINE
  8
0
  6
DASHED
  10
408.599992752075
  20
21.587499976158
  30
51.23999786377
  11
408.599992752075
  21
20
  31
51.23999786377
  0
LINE
  8
0
  6
DASHED
  10
411.800004959106
  20
20
  30
51.23999786377
  11
411.800004959106
  21
21.587499976158
  31
51.23999786377
  0
LINE
  8
0
  6
DASHED
  10
411.800004959106
  20
21.587499976158
  30
51.23999786377
  11
408.599992752075
  21
21.587499976158
  31
51.23999786377
  0
LINE
  8
0
  6
DASHED
  10
408.599992752075
  20
20
  30
51.23999786377
  11
411.800004959106
  21
20
  31
51.23999786377
  0
LINE
  8
0
  6
DASHED
  10
341.549997329712
  20
21.587499976158
  30
31.950002670288
  11
341.549997329712
  21
20
  31
31.950002670288
  0
LINE
  8
0
  6
DASHED
  10
344.85000038147
  20
20
  30
31.950002670288
  11
344.85000038147
  21
21.587499976158
  31
31.950002670288
  0
LINE
  8
0
  6
DASHED
  10
344.85000038147
  20
21.587499976158
  30
31.950002670288
  11
341.549997329712
  21
21.587499976158
  31
31.950002670288
  0
LINE
  8
0
  6
DASHED
  10
341.549997329712
  20
20
  30
31.950002670288
  11
344.85000038147
  21
20
  31
31.950002670288
  0
LINE
  8
0
  6
DASHED
  10
391.550004959106
  20
21.587499976158
  30
31.950002670288
  11
391.550004959106
  21
20
  31
31.950002670288
  0
LINE
  8
0
  6
DASHED
  10
394.849992752075
  20
20
  30
31.950002670288
  11
394.849992752075
  21
21.587499976158
  31
31.950002670288
  0
LINE
  8
0
  6
DASHED
  10
394.85000038147
  20
21.587499976158
  30
31.950002670288
  11
391.550004959106
  21
21.587499976158
  31
31.950002670288
  0
LINE
  8
0
  6
DASHED
  10
391.550004959106
  20
20
  30
31.950002670288
  11
394.85000038147
  21
20
  31
31.950002670288
  0
TEXT
  8
0
  40
2.54
  72
0
  10
345.449998855591
  20
10
  30
0
  1
Right
  50
0
  0
LINE
  8
0
  10
418.199998855591
  20
21.587499976158
  30
128.5
  11
418.199998855591
  21
20
  31
128.5
  0
LINE
  8
0
  10
478.799997329712
  20
20
  30
128.5
  11
478.799997329712
  21
21.587499976158
  31
128.5
  0
LINE
  8
0
  10
478.799997329712
  20
21.587499976158
  30
128.5
  11
418.199998855591
  21
21.587499976158
  31
128.5
  0
LINE
  8
0
  10
418.199998855591
  20
20
  30
128.5
  11
478.799997329712
  21
20
  31
128.5
  0
LINE
  8
0
  6
DASHED
  10
443.750005722046
  20
21.587499976158
  30
37.249954223633
  11
443.750005722046
  21
20
  31
37.249954223633
  0
LINE
  8
0
  6
DASHED
  10
453.250009536743
  20
20
  30
37.249954223633
  11
453.250009536743
  21
21.587499976158
  31
37.249954223633
  0
LINE
  8
0
  6
DASHED
  10
453.250007629395
  20
21.587499976158
  30
37.249954223633
  11
443.750005722046
  21
21.587499976158
  31
37.249954223633
  0
LINE
  8
0
  6
DASHED
  10
443.750005722046
  20
20
  30
37.249954223633
  11
453.250007629395
  21
20
  31
37.249954223633
  0
LINE
  8
0
  6
DASHED
  10
443.750005722046
  20
21.587499976158
  30
87.249954223633
  11
443.750005722046
  21
20
  31
87.249954223633
  0
LINE
  8
0
  6
DASHED
  10
453.250009536743
  20
20
  30
87.249954223633
  11
453.250009536743
  21
21.587499976158
  31
87.249954223633
  0
LINE
  8
0
  6
DASHED
  10
453.250007629395
  20
21.587499976158
  30
87.249954223633
  11
443.750005722046
  21
21.587499976158
  31
87.249954223633
  0
LINE
  8
0
  6
DASHED
  10
443.750005722046
  20
20
  30
87.249954223633
  11
453.250007629395
  21
20
  31
87.249954223633
  0
LINE
  8
0
  6
DASHED
  10
464.750001907349
  20
21.587499976158
  30
73.75
  11
464.750001907349
  21
20
  31
73.75
  0
LINE
  8
0
  6
DASHED
  10
472.250001907349
  20
20
  30
73.75
  11
472.250001907349
  21
21.587499976158
  31
73.75
  0
LINE
  8
0
  6
DASHED
  10
472.250001907349
  20
21.587499976158
  30
73.75
  11
464.750001907349
  21
21.587499976158
  31
73.75
  0
LINE
  8
0
  6
DASHED
  10
464.750001907349
  20
20
  30
73.75
  11
472.250001907349
  21
20
  31
73.75
  0
LINE
  8
0
  6
DASHED
  10
464.750001907349
  20
21.587499976158
  30
98.75
  11
464.750001907349
  21
20
  31
98.75
  0
LINE
  8
0
  6
DASHED
  10
472.250001907349
  20
20
  30
98.75
  11
472.250001907349
  21
21.587499976158
  31
98.75
  0
LINE
  8
0
  6
DASHED
  10
472.250001907349
  20
21.587499976158
  30
98.75
  11
464.750001907349
  21
21.587499976158
  31
98.75
  0
LINE
  8
0
  6
DASHED
  10
464.750001907349
  20
20
  30
98.75
  11
472.250001907349
  21
20
  31
98.75
  0
LINE
  8
0
  6
DASHED
  10
424.75
  20
21.587499976158
  30
23.75
  11
424.75
  21
20
  31
23.75
  0
LINE
  8
0
  6
DASHED
  10
432.25
  20
20
  30
23.75
  11
432.25
  21
21.587499976158
  31
23.75
  0
LINE
  8
0
  6
DASHED
  10
432.25
  20
21.587499976158
  30
23.75
  11
424.75
  21
21.587499976158
  31
23.75
  0
LINE
  8
0
  6
DASHED
  10
424.75
  20
20
  30
23.75
  11
432.25
  21
20
  31
23.75
  0
LINE
  8
0
  6
DASHED
  10
464.750001907349
  20
21.587499976158
  30
23.75
  11
464.750001907349
  21
20
  31
23.75
  0
LINE
  8
0
  6
DASHED
  10
472.250001907349
  20
20
  30
23.75
  11
472.250001907349
  21
21.587499976158
  31
23.75
  0
LINE
  8
0
  6
DASHED
  10
472.250001907349
  20
21.587499976158
  30
23.75
  11
464.750001907349
  21
21.587499976158
  31
23.75
  0
LINE
  8
0
  6
DASHED
  10
464.750001907349
  20
20
  30
23.75
  11
472.250001907349
  21
20
  31
23.75
  0
LINE
  8
0
  6
DASHED
  10
424.75
  20
21.587499976158
  30
48.75
  11
424.75
  21
20
  31
48.75
  0
LINE
  8
0
  6
DASHED
  10
432.25
  20
20
  30
48.75
  11
432.25
  21
21.587499976158
  31
48.75
  0
LINE
  8
0
  6
DASHED
  10
432.25
  20
21.587499976158
  30
48.75
  11
424.75
  21
21.587499976158
  31
48.75
  0
LINE
  8
0
  6
DASHED
  10
424.75
  20
20
  30
48.75
  11
432.25
  21
20
  31
48.75
  0
LINE
  8
0
  6
DASHED
  10
424.75
  20
21.587499976158
  30
73.75
  11
424.75
  21
20
  31
73.75
  0
LINE
  8
0
  6
DASHED
  10
432.25
  20
20
  30
73.75
  11
432.25
  21
21.587499976158
  31
73.75
  0
LINE
  8
0
  6
DASHED
  10
432.25
  20
21.587499976158
  30
73.75
  11
424.75
  21
21.587499976158
  31
73.75
  0
LINE
  8
0
  6
DASHED
  10
424.75
  20
20
  30
73.75
  11
432.25
  21
20
  31
73.75
  0
LINE
  8
0
  6
DASHED
  10
424.75
  20
21.587499976158
  30
98.75
  11
424.75
  21
20
  31
98.75
  0
LINE
  8
0
  6
DASHED
  10
432.25
  20
20
  30
98.75
  11
432.25
  21
21.587499976158
  31
98.75
  0
LINE
  8
0
  6
DASHED
  10
432.25
  20
21.587499976158
  30
98.75
  11
424.75
  21
21.587499976158
  31
98.75
  0
LINE
  8
0
  6
DASHED
  10
424.75
  20
20
  30
98.75
  11
432.25
  21
20
  31
98.75
  0
LINE
  8
0
  6
DASHED
  10
464.750001907349
  20
21.587499976158
  30
48.75
  11
464.750001907349
  21
20
  31
48.75
  0
LINE
  8
0
  6
DASHED
  10
472.250001907349
  20
20
  30
48.75
  11
472.250001907349
  21
21.587499976158
  31
48.75
  0
LINE
  8
0
  6
DASHED
  10
472.250001907349
  20
21.587499976158
  30
48.75
  11
464.750001907349
  21
21.587499976158
  31
48.75
  0
LINE
  8
0
  6
DASHED
  10
464.750001907349
  20
20
  30
48.75
  11
472.250001907349
  21
20
  31
48.75
  0
LINE
  8
0
  6
DASHED
  10
467.449998855591
  20
21.587499976158
  30
114.050003051758
  11
467.449998855591
  21
20
  31
114.050003051758
  0
LINE
  8
0
  6
DASHED
  10
473.550004959106
  20
20
  30
114.050003051758
  11
473.550004959106
  21
21.587499976158
  31
114.050003051758
  0
LINE
  8
0
  6
DASHED
  10
473.550004959106
  20
21.587499976158
  30
114.050003051758
  11
467.449998855591
  21
21.587499976158
  31
114.050003051758
  0
LINE
  8
0
  6
DASHED
  10
467.449998855591
  20
20
  30
114.050003051758
  11
473.550004959106
  21
20
  31
114.050003051758
  0
LINE
  8
0
  6
DASHED
  10
452.950002670288
  20
21.587499976158
  30
114.050003051758
  11
452.950002670288
  21
20
  31
114.050003051758
  0
LINE
  8
0
  6
DASHED
  10
459.050001144409
  20
20
  30
114.050003051758
  11
459.050001144409
  21
21.587499976158
  31
114.050003051758
  0
LINE
  8
0
  6
DASHED
  10
459.050001144409
  20
21.587499976158
  30
114.050003051758
  11
452.950002670288
  21
21.587499976158
  31
114.050003051758
  0
LINE
  8
0
  6
DASHED
  10
452.950002670288
  20
20
  30
114.050003051758
  11
459.050001144409
  21
20
  31
114.050003051758
  0
LINE
  8
0
  6
DASHED
  10
437.950000762939
  20
21.587499976158
  30
114.050003051758
  11
437.950000762939
  21
20
  31
114.050003051758
  0
LINE
  8
0
  6
DASHED
  10
444.049999237061
  20
20
  30
114.050003051758
  11
444.049999237061
  21
21.587499976158
  31
114.050003051758
  0
LINE
  8
0
  6
DASHED
  10
444.049999237061
  20
21.587499976158
  30
114.050003051758
  11
437.950000762939
  21
21.587499976158
  31
114.050003051758
  0
LINE
  8
0
  6
DASHED
  10
437.950000762939
  20
20
  30
114.050003051758
  11
444.049999237061
  21
20
  31
114.050003051758
  0
LINE
  8
0
  6
DASHED
  10
423.450000762939
  20
21.587499976158
  30
114.050003051758
  11
423.450000762939
  21
20
  31
114.050003051758
  0
LINE
  8
0
  6
DASHED
  10
429.549999237061
  20
20
  30
114.050003051758
  11
429.549999237061
  21
21.587499976158
  31
114.050003051758
  0
LINE
  8
0
  6
DASHED
  10
429.549999237061
  20
21.587499976158
  30
114.050003051758
  11
423.450000762939
  21
21.587499976158
  31
114.050003051758
  0
LINE
  8
0
  6
DASHED
  10
423.450000762939
  20
20
  30
114.050003051758
  11
429.549999237061
  21
20
  31
114.050003051758
  0
LINE
  8
0
  6
DASHED
  10
422.60000038147
  20
21.587499976158
  30
4.600006103516
  11
422.60000038147
  21
20
  31
4.600006103516
  0
LINE
  8
0
  6
DASHED
  10
428.800001144409
  20
20
  30
4.600006103516
  11
428.800001144409
  21
21.587499976158
  31
4.600006103516
  0
LINE
  8
0
  6
DASHED
  10
428.800001144409
  20
21.587499976158
  30
4.600006103516
  11
422.60000038147
  21
21.587499976158
  31
4.600006103516
  0
LINE
  8
0
  6
DASHED
  10
422.60000038147
  20
20
  30
4.600006103516
  11
428.800001144409
  21
20
  31
4.600006103516
  0
LINE
  8
0
  6
DASHED
  10
422.60000038147
  20
21.587499976158
  30
127.099998474121
  11
422.60000038147
  21
20
  31
127.099998474121
  0
LINE
  8
0
  6
DASHED
  10
428.800001144409
  20
20
  30
127.099998474121
  11
428.800001144409
  21
21.587499976158
  31
127.099998474121
  0
LINE
  8
0
  6
DASHED
  10
428.800001144409
  20
21.587499976158
  30
127.099998474121
  11
422.60000038147
  21
21.587499976158
  31
127.099998474121
  0
LINE
  8
0
  6
DASHED
  10
422.60000038147
  20
20
  30
127.099998474121
  11
428.800001144409
  21
20
  31
127.099998474121
  0
LINE
  8
0
  6
DASHED
  10
463.239999771118
  20
21.587499976158
  30
127.099998474121
  11
463.239999771118
  21
20
  31
127.099998474121
  0
LINE
  8
0
  6
DASHED
  10
469.43999671936
  20
20
  30
127.099998474121
  11
469.43999671936
  21
21.587499976158
  31
127.099998474121
  0
LINE
  8
0
  6
DASHED
  10
469.43999671936
  20
21.587499976158
  30
127.099998474121
  11
463.239999771118
  21
21.587499976158
  31
127.099998474121
  0
LINE
  8
0
  6
DASHED
  10
463.239999771118
  20
20
  30
127.099998474121
  11
469.43999671936
  21
20
  31
127.099998474121
  0
LINE
  8
0
  6
DASHED
  10
463.239999771118
  20
21.587499976158
  30
4.600006103516
  11
463.239999771118
  21
20
  31
4.600006103516
  0
LINE
  8
0
  6
DASHED
  10
469.43999671936
  20
20
  30
4.600006103516
  11
469.43999671936
  21
21.587499976158
  31
4.600006103516
  0
LINE
  8
0
  6
DASHED
  10
469.43999671936
  20
21.587499976158
  30
4.600006103516
  11
463.239999771118
  21
21.587499976158
  31
4.600006103516
  0
LINE
  8
0
  6
DASHED
  10
463.239999771118
  20
20
  30
4.600006103516
  11
469.43999671936
  21
20
  31
4.600006103516
  0
LINE
  8
0
  6
DASHED
  10
446.849998474121
  20
21.587499976158
  30
71.650001525879
  11
446.849998474121
  21
20
  31
71.650001525879
  0
LINE
  8
0
  6
DASHED
  10
450.150001525879
  20
20
  30
71.650001525879
  11
450.150001525879
  21
21.587499976158
  31
71.650001525879
  0
LINE
  8
0
  6
DASHED
  10
450.150001525879
  20
21.587499976158
  30
71.650001525879
  11
446.849998474121
  21
21.587499976158
  31
71.650001525879
  0
LINE
  8
0
  6
DASHED
  10
446.849998474121
  20
20
  30
71.650001525879
  11
450.150001525879
  21
20
  31
71.650001525879
  0
LINE
  8
0
  6
DASHED
  10
446.849998474121
  20
21.587499976158
  30
21.650001525879
  11
446.849998474121
  21
20
  31
21.650001525879
  0
LINE
  8
0
  6
DASHED
  10
450.150001525879
  20
20
  30
21.650001525879
  11
450.150001525879
  21
21.587499976158
  31
21.650001525879
  0
LINE
  8
0
  6
DASHED
  10
450.150001525879
  20
21.587499976158
  30
21.650001525879
  11
446.849998474121
  21
21.587499976158
  31
21.650001525879
  0
LINE
  8
0
  6
DASHED
  10
446.849998474121
  20
20
  30
21.650001525879
  11
450.150001525879
  21
20
  31
21.650001525879
  0
TEXT
  8
0
  40
2.54
  72
0
  10
444.999998092651
  20
10
  30
0
  1
Front
  50
0
  0
LINE
  8
0
  10
483.799997329712
  20
20
  30
128.5
  11
483.799997329712
  21
21.587499976158
  31
128.5
  0
LINE
  8
0
  10
544.399995803833
  20
21.587499976158
  30
128.5
  11
544.399995803833
  21
20
  31
128.5
  0
LINE
  8
0
  10
544.399995803833
  20
20
  30
128.5
  11
483.799997329712
  21
20
  31
128.5
  0
LINE
  8
0
  10
483.799997329712
  20
21.587499976158
  30
128.5
  11
544.399995803833
  21
21.587499976158
  31
128.5
  0
LINE
  8
0
  6
DASHED
  10
509.350004196167
  20
20
  30
100.750045776367
  11
509.350004196167
  21
21.587499976158
  31
100.750045776367
  0
LINE
  8
0
  6
DASHED
  10
518.850008010864
  20
21.587499976158
  30
100.750045776367
  11
518.850008010864
  21
20
  31
100.750045776367
  0
LINE
  8
0
  6
DASHED
  10
518.850006103516
  20
20
  30
100.750045776367
  11
509.350004196167
  21
20
  31
100.750045776367
  0
LINE
  8
0
  6
DASHED
  10
509.350004196167
  20
21.587499976158
  30
100.750045776367
  11
518.850006103516
  21
21.587499976158
  31
100.750045776367
  0
LINE
  8
0
  6
DASHED
  10
509.350004196167
  20
20
  30
50.750045776367
  11
509.350004196167
  21
21.587499976158
  31
50.750045776367
  0
LINE
  8
0
  6
DASHED
  10
518.850008010864
  20
21.587499976158
  30
50.750045776367
  11
518.850008010864
  21
20
  31
50.750045776367
  0
LINE
  8
0
  6
DASHED
  10
518.850006103516
  20
20
  30
50.750045776367
  11
509.350004196167
  21
20
  31
50.750045776367
  0
LINE
  8
0
  6
DASHED
  10
509.350004196167
  20
21.587499976158
  30
50.750045776367
  11
518.850006103516
  21
21.587499976158
  31
50.750045776367
  0
LINE
  8
0
  6
DASHED
  10
530.35000038147
  20
20
  30
62.25
  11
530.35000038147
  21
21.587499976158
  31
62.25
  0
LINE
  8
0
  6
DASHED
  10
537.85000038147
  20
21.587499976158
  30
62.25
  11
537.85000038147
  21
20
  31
62.25
  0
LINE
  8
0
  6
DASHED
  10
537.85000038147
  20
20
  30
62.25
  11
530.35000038147
  21
20
  31
62.25
  0
LINE
  8
0
  6
DASHED
  10
530.35000038147
  20
21.587499976158
  30
62.25
  11
537.85000038147
  21
21.587499976158
  31
62.25
  0
LINE
  8
0
  6
DASHED
  10
530.35000038147
  20
20
  30
37.25
  11
530.35000038147
  21
21.587499976158
  31
37.25
  0
LINE
  8
0
  6
DASHED
  10
537.85000038147
  20
21.587499976158
  30
37.25
  11
537.85000038147
  21
20
  31
37.25
  0
LINE
  8
0
  6
DASHED
  10
537.85000038147
  20
20
  30
37.25
  11
530.35000038147
  21
20
  31
37.25
  0
LINE
  8
0
  6
DASHED
  10
530.35000038147
  20
21.587499976158
  30
37.25
  11
537.85000038147
  21
21.587499976158
  31
37.25
  0
LINE
  8
0
  6
DASHED
  10
490.349998474121
  20
20
  30
112.25
  11
490.349998474121
  21
21.587499976158
  31
112.25
  0
LINE
  8
0
  6
DASHED
  10
497.849998474121
  20
21.587499976158
  30
112.25
  11
497.849998474121
  21
20
  31
112.25
  0
LINE
  8
0
  6
DASHED
  10
497.849998474121
  20
20
  30
112.25
  11
490.349998474121
  21
20
  31
112.25
  0
LINE
  8
0
  6
DASHED
  10
490.349998474121
  20
21.587499976158
  30
112.25
  11
497.849998474121
  21
21.587499976158
  31
112.25
  0
LINE
  8
0
  6
DASHED
  10
530.35000038147
  20
20
  30
112.25
  11
530.35000038147
  21
21.587499976158
  31
112.25
  0
LINE
  8
0
  6
DASHED
  10
537.85000038147
  20
21.587499976158
  30
112.25
  11
537.85000038147
  21
20
  31
112.25
  0
LINE
  8
0
  6
DASHED
  10
537.85000038147
  20
20
  30
112.25
  11
530.35000038147
  21
20
  31
112.25
  0
LINE
  8
0
  6
DASHED
  10
530.35000038147
  20
21.587499976158
  30
112.25
  11
537.85000038147
  21
21.587499976158
  31
112.25
  0
LINE
  8
0
  6
DASHED
  10
490.349998474121
  20
20
  30
87.25
  11
490.349998474121
  21
21.587499976158
  31
87.25
  0
LINE
  8
0
  6
DASHED
  10
497.849998474121
  20
21.587499976158
  30
87.25
  11
497.849998474121
  21
20
  31
87.25
  0
LINE
  8
0
  6
DASHED
  10
497.849998474121
  20
20
  30
87.25
  11
490.349998474121
  21
20
  31
87.25
  0
LINE
  8
0
  6
DASHED
  10
490.349998474121
  20
21.587499976158
  30
87.25
  11
497.849998474121
  21
21.587499976158
  31
87.25
  0
LINE
  8
0
  6
DASHED
  10
490.349998474121
  20
20
  30
62.25
  11
490.349998474121
  21
21.587499976158
  31
62.25
  0
LINE
  8
0
  6
DASHED
  10
497.849998474121
  20
21.587499976158
  30
62.25
  11
497.849998474121
  21
20
  31
62.25
  0
LINE
  8
0
  6
DASHED
  10
497.849998474121
  20
20
  30
62.25
  11
490.349998474121
  21
20
  31
62.25
  0
LINE
  8
0
  6
DASHED
  10
490.349998474121
  20
21.587499976158
  30
62.25
  11
497.849998474121
  21
21.587499976158
  31
62.25
  0
LINE
  8
0
  6
DASHED
  10
490.349998474121
  20
20
  30
37.25
  11
490.349998474121
  21
21.587499976158
  31
37.25
  0
LINE
  8
0
  6
DASHED
  10
497.849998474121
  20
21.587499976158
  30
37.25
  11
497.849998474121
  21
20
  31
37.25
  0
LINE
  8
0
  6
DASHED
  10
497.849998474121
  20
20
  30
37.25
  11
490.349998474121
  21
20
  31
37.25
  0
LINE
  8
0
  6
DASHED
  10
490.349998474121
  20
21.587499976158
  30
37.25
  11
497.849998474121
  21
21.587499976158
  31
37.25
  0
LINE
  8
0
  6
DASHED
  10
530.35000038147
  20
20
  30
87.25
  11
530.35000038147
  21
21.587499976158
  31
87.25
  0
LINE
  8
0
  6
DASHED
  10
537.85000038147
  20
21.587499976158
  30
87.25
  11
537.85000038147
  21
20
  31
87.25
  0
LINE
  8
0
  6
DASHED
  10
537.85000038147
  20
20
  30
87.25
  11
530.35000038147
  21
20
  31
87.25
  0
LINE
  8
0
  6
DASHED
  10
530.35000038147
  20
21.587499976158
  30
87.25
  11
537.85000038147
  21
21.587499976158
  31
87.25
  0
LINE
  8
0
  6
DASHED
  10
533.049997329712
  20
20
  30
20.549999237061
  11
533.049997329712
  21
21.587499976158
  31
20.549999237061
  0
LINE
  8
0
  6
DASHED
  10
539.150003433228
  20
21.587499976158
  30
20.549999237061
  11
539.150003433228
  21
20
  31
20.549999237061
  0
LINE
  8
0
  6
DASHED
  10
539.150003433228
  20
20
  30
20.549999237061
  11
533.049997329712
  21
20
  31
20.549999237061
  0
LINE
  8
0
  6
DASHED
  10
533.049997329712
  20
21.587499976158
  30
20.549999237061
  11
539.150003433228
  21
21.587499976158
  31
20.549999237061
  0
LINE
  8
0
  6
DASHED
  10
518.550001144409
  20
20
  30
20.549999237061
  11
518.550001144409
  21
21.587499976158
  31
20.549999237061
  0
LINE
  8
0
  6
DASHED
  10
524.64999961853
  20
21.587499976158
  30
20.549999237061
  11
524.64999961853
  21
20
  31
20.549999237061
  0
LINE
  8
0
  6
DASHED
  10
524.64999961853
  20
20
  30
20.549999237061
  11
518.550001144409
  21
20
  31
20.549999237061
  0
LINE
  8
0
  6
DASHED
  10
518.550001144409
  20
21.587499976158
  30
20.549999237061
  11
524.64999961853
  21
21.587499976158
  31
20.549999237061
  0
LINE
  8
0
  6
DASHED
  10
503.549999237061
  20
20
  30
20.549999237061
  11
503.549999237061
  21
21.587499976158
  31
20.549999237061
  0
LINE
  8
0
  6
DASHED
  10
509.649997711182
  20
21.587499976158
  30
20.549999237061
  11
509.649997711182
  21
20
  31
20.549999237061
  0
LINE
  8
0
  6
DASHED
  10
509.649997711182
  20
20
  30
20.549999237061
  11
503.549999237061
  21
20
  31
20.549999237061
  0
LINE
  8
0
  6
DASHED
  10
503.549999237061
  20
21.587499976158
  30
20.549999237061
  11
509.649997711182
  21
21.587499976158
  31
20.549999237061
  0
LINE
  8
0
  6
DASHED
  10
489.049999237061
  20
20
  30
20.549999237061
  11
489.049999237061
  21
21.587499976158
  31
20.549999237061
  0
LINE
  8
0
  6
DASHED
  10
495.149997711182
  20
21.587499976158
  30
20.549999237061
  11
495.149997711182
  21
20
  31
20.549999237061
  0
LINE
  8
0
  6
DASHED
  10
495.149997711182
  20
20
  30
20.549999237061
  11
489.049999237061
  21
20
  31
20.549999237061
  0
LINE
  8
0
  6
DASHED
  10
489.049999237061
  20
21.587499976158
  30
20.549999237061
  11
495.149997711182
  21
21.587499976158
  31
20.549999237061
  0
LINE
  8
0
  6
DASHED
  10
488.199998855591
  20
20
  30
127.100006103516
  11
488.199998855591
  21
21.587499976158
  31
127.100006103516
  0
LINE
  8
0
  6
DASHED
  10
494.39999961853
  20
21.587499976158
  30
127.100006103516
  11
494.39999961853
  21
20
  31
127.100006103516
  0
LINE
  8
0
  6
DASHED
  10
494.39999961853
  20
20
  30
127.100006103516
  11
488.199998855591
  21
20
  31
127.100006103516
  0
LINE
  8
0
  6
DASHED
  10
488.199998855591
  20
21.587499976158
  30
127.100006103516
  11
494.39999961853
  21
21.587499976158
  31
127.100006103516
  0
LINE
  8
0
  6
DASHED
  10
488.199998855591
  20
20
  30
4.60000038147
  11
488.199998855591
  21
21.587499976158
  31
4.60000038147
  0
LINE
  8
0
  6
DASHED
  10
494.39999961853
  20
21.587499976158
  30
4.60000038147
  11
494.39999961853
  21
20
  31
4.60000038147
  0
LINE
  8
0
  6
DASHED
  10
494.39999961853
  20
20
  30
4.60000038147
  11
488.199998855591
  21
20
  31
4.60000038147
  0
LINE
  8
0
  6
DASHED
  10
488.199998855591
  20
21.587499976158
  30
4.60000038147
  11
494.39999961853
  21
21.587499976158
  31
4.60000038147
  0
LINE
  8
0
  6
DASHED
  10
528.839998245239
  20
20
  30
4.60000038147
  11
528.839998245239
  21
21.587499976158
  31
4.60000038147
  0
LINE
  8
0
  6
DASHED
  10
535.039995193481
  20
21.587499976158
  30
4.60000038147
  11
535.039995193481
  21
20
  31
4.60000038147
  0
LINE
  8
0
  6
DASHED
  10
535.039995193481
  20
20
  30
4.60000038147
  11
528.839998245239
  21
20
  31
4.60000038147
  0
LINE
  8
0
  6
DASHED
  10
528.839998245239
  20
21.587499976158
  30
4.60000038147
  11
535.039995193481
  21
21.587499976158
  31
4.60000038147
  0
LINE
  8
0
  6
DASHED
  10
528.839998245239
  20
20
  30
127.100006103516
  11
528.839998245239
  21
21.587499976158
  31
127.100006103516
  0
LINE
  8
0
  6
DASHED
  10
535.039995193481
  20
21.587499976158
  30
127.100006103516
  11
535.039995193481
  21
20
  31
127.100006103516
  0
LINE
  8
0
  6
DASHED
  10
535.039995193481
  20
20
  30
127.100006103516
  11
528.839998245239
  21
20
  31
127.100006103516
  0
LINE
  8
0
  6
DASHED
  10
528.839998245239
  20
21.587499976158
  30
127.100006103516
  11
535.039995193481
  21
21.587499976158
  31
127.100006103516
  0
LINE
  8
0
  6
DASHED
  10
512.449996948242
  20
20
  30
60.150001525879
  11
512.449996948242
  21
21.587499976158
  31
60.150001525879
  0
LINE
  8
0
  6
DASHED
  10
515.75
  20
21.587499976158
  30
60.150001525879
  11
515.75
  21
20
  31
60.150001525879
  0
LINE
  8
0
  6
DASHED
  10
515.75
  20
20
  30
60.150001525879
  11
512.449996948242
  21
20
  31
60.150001525879
  0
LINE
  8
0
  6
DASHED
  10
512.449996948242
  20
21.587499976158
  30
60.150001525879
  11
515.75
  21
21.587499976158
  31
60.150001525879
  0
LINE
  8
0
  6
DASHED
  10
512.449996948242
  20
20
  30
110.149993896484
  11
512.449996948242
  21
21.587499976158
  31
110.149993896484
  0
LINE
  8
0
  6
DASHED
  10
515.75
  20
21.587499976158
  30
110.149993896484
  11
515.75
  21
20
  31
110.149993896484
  0
LINE
  8
0
  6
DASHED
  10
515.75
  20
20
  30
110.149993896484
  11
512.449996948242
  21
20
  31
110.149993896484
  0
LINE
  8
0
  6
DASHED
  10
512.449996948242
  20
21.587499976158
  30
110.149993896484
  11
515.75
  21
21.587499976158
  31
110.149993896484
  0
TEXT
  8
0
  40
2.54
  72
0
  10
510.599996566772
  20
10
  30
0
  1
Back
  50
0
  0
LINE
  8
0
  10
-0.000001907349
  20
10
  30
0
  11
-0.000001907349
  21
0
  31
0
  0
LINE
  8
0
  10
-0.000001907349
  20
10
  30
0
  11
9.999998092651
  21
10
  31
0
  0
LINE
  8
0
  10
9.999998092651
  20
0
  30
0
  11
9.999998092651
  21
10
  31
0
  0
LINE
  8
0
  10
-0.000001907349
  20
0
  30
0
  11
9.999998092651
  21
0
  31
0
  0
TEXT
  8
0
  40
1
  72
0
  10
0.499998092651
  20
8
  30
0
  1
1 cm x 1 cm
  50
0
  0
TEXT
  8
0
  40
1
  72
0
  10
2.999998092651
  20
5
  30
0
  1
scaling
  50
0
  0
TEXT
  8
0
  40
1
  72
0
  10
1.499998092651
  20
2
  30
0
  1
reference
  50
0
  0
ENDSEC
  0
EOF
